G04 #@! TF.GenerationSoftware,KiCad,Pcbnew,8.0.3*
G04 #@! TF.CreationDate,2024-07-19T18:12:48+03:00*
G04 #@! TF.ProjectId,B-TPS63030-Brk-01Mbr-R01,422d5450-5336-4333-9033-302d42726b2d,rev?*
G04 #@! TF.SameCoordinates,Original*
G04 #@! TF.FileFunction,Legend,Bot*
G04 #@! TF.FilePolarity,Positive*
%FSLAX46Y46*%
G04 Gerber Fmt 4.6, Leading zero omitted, Abs format (unit mm)*
G04 Created by KiCad (PCBNEW 8.0.3) date 2024-07-19 18:12:48*
%MOMM*%
%LPD*%
G01*
G04 APERTURE LIST*
G04 Aperture macros list*
%AMRoundRect*
0 Rectangle with rounded corners*
0 $1 Rounding radius*
0 $2 $3 $4 $5 $6 $7 $8 $9 X,Y pos of 4 corners*
0 Add a 4 corners polygon primitive as box body*
4,1,4,$2,$3,$4,$5,$6,$7,$8,$9,$2,$3,0*
0 Add four circle primitives for the rounded corners*
1,1,$1+$1,$2,$3*
1,1,$1+$1,$4,$5*
1,1,$1+$1,$6,$7*
1,1,$1+$1,$8,$9*
0 Add four rect primitives between the rounded corners*
20,1,$1+$1,$2,$3,$4,$5,0*
20,1,$1+$1,$4,$5,$6,$7,0*
20,1,$1+$1,$6,$7,$8,$9,0*
20,1,$1+$1,$8,$9,$2,$3,0*%
G04 Aperture macros list end*
%ADD10C,0.000000*%
%ADD11C,0.150000*%
%ADD12C,2.082800*%
%ADD13O,2.000000X1.700000*%
%ADD14RoundRect,0.250000X-0.750000X0.600000X-0.750000X-0.600000X0.750000X-0.600000X0.750000X0.600000X0*%
%ADD15RoundRect,0.250000X-1.125000X-1.125000X1.125000X-1.125000X1.125000X1.125000X-1.125000X1.125000X0*%
%ADD16RoundRect,0.250000X0.750000X-0.600000X0.750000X0.600000X-0.750000X0.600000X-0.750000X-0.600000X0*%
G04 APERTURE END LIST*
D10*
G36*
X175973061Y-91867784D02*
G01*
X176030476Y-91872572D01*
X176085997Y-91879256D01*
X176139620Y-91887823D01*
X176191340Y-91898262D01*
X176241156Y-91910562D01*
X176289062Y-91924710D01*
X176335056Y-91940696D01*
X176379133Y-91958507D01*
X176421291Y-91978132D01*
X176461525Y-91999559D01*
X176499831Y-92022776D01*
X176536207Y-92047773D01*
X176570648Y-92074537D01*
X176603151Y-92103056D01*
X176633713Y-92133320D01*
X176662329Y-92165316D01*
X176688996Y-92199033D01*
X176713710Y-92234459D01*
X176736468Y-92271583D01*
X176757266Y-92310392D01*
X176776101Y-92350876D01*
X176792969Y-92393023D01*
X176807865Y-92436821D01*
X176820787Y-92482258D01*
X176831732Y-92529323D01*
X176840694Y-92578004D01*
X176847671Y-92628289D01*
X176852659Y-92680168D01*
X176855655Y-92733628D01*
X176856654Y-92788657D01*
X176855655Y-92840374D01*
X176852659Y-92890592D01*
X176847671Y-92939303D01*
X176840694Y-92986498D01*
X176831732Y-93032167D01*
X176820787Y-93076300D01*
X176807865Y-93118888D01*
X176792968Y-93159922D01*
X176776101Y-93199391D01*
X176757266Y-93237288D01*
X176736468Y-93273602D01*
X176713710Y-93308323D01*
X176688995Y-93341443D01*
X176662328Y-93372952D01*
X176633712Y-93402841D01*
X176603151Y-93431099D01*
X176570648Y-93457718D01*
X176536206Y-93482688D01*
X176499831Y-93505999D01*
X176461524Y-93527643D01*
X176421290Y-93547610D01*
X176379133Y-93565890D01*
X176335055Y-93582474D01*
X176289062Y-93597352D01*
X176241155Y-93610516D01*
X176191340Y-93621954D01*
X176139619Y-93631659D01*
X176085997Y-93639621D01*
X176030476Y-93645830D01*
X175973061Y-93650276D01*
X175913754Y-93652951D01*
X175852561Y-93653845D01*
X175852561Y-93653844D01*
X175732760Y-93650232D01*
X175620436Y-93639458D01*
X175567088Y-93631413D01*
X175515623Y-93621614D01*
X175466043Y-93610070D01*
X175418355Y-93596793D01*
X175372562Y-93581796D01*
X175328669Y-93565090D01*
X175286679Y-93546686D01*
X175246598Y-93526596D01*
X175208430Y-93504832D01*
X175172178Y-93481405D01*
X175137848Y-93456327D01*
X175105444Y-93429610D01*
X175074970Y-93401265D01*
X175046430Y-93371303D01*
X175019829Y-93339738D01*
X174995172Y-93306579D01*
X174972462Y-93271839D01*
X174951703Y-93235529D01*
X174932902Y-93197661D01*
X174916060Y-93158247D01*
X174901184Y-93117298D01*
X174888277Y-93074826D01*
X174877344Y-93030842D01*
X174868389Y-92985358D01*
X174861416Y-92938386D01*
X174856430Y-92889938D01*
X174853435Y-92840024D01*
X174852436Y-92788657D01*
X175209625Y-92788657D01*
X175210253Y-92825913D01*
X175212136Y-92861786D01*
X175215276Y-92896291D01*
X175219671Y-92929439D01*
X175225322Y-92961245D01*
X175232228Y-92991720D01*
X175240390Y-93020879D01*
X175249808Y-93048734D01*
X175260482Y-93075299D01*
X175272412Y-93100586D01*
X175285597Y-93124608D01*
X175300038Y-93147379D01*
X175315734Y-93168912D01*
X175332687Y-93189220D01*
X175350895Y-93208315D01*
X175370359Y-93226211D01*
X175391079Y-93242922D01*
X175413054Y-93258459D01*
X175436285Y-93272837D01*
X175460772Y-93286068D01*
X175486514Y-93298166D01*
X175513513Y-93309142D01*
X175541767Y-93319012D01*
X175571277Y-93327787D01*
X175602042Y-93335480D01*
X175634063Y-93342105D01*
X175667340Y-93347676D01*
X175701873Y-93352204D01*
X175774706Y-93358186D01*
X175852561Y-93360157D01*
X175930417Y-93358011D01*
X176003249Y-93351553D01*
X176071059Y-93340745D01*
X176103080Y-93333700D01*
X176133846Y-93325554D01*
X176163356Y-93316304D01*
X176191610Y-93305945D01*
X176218608Y-93294473D01*
X176244351Y-93281883D01*
X176268838Y-93268171D01*
X176292069Y-93253332D01*
X176314044Y-93237363D01*
X176334764Y-93220259D01*
X176354228Y-93202015D01*
X176372436Y-93182627D01*
X176389389Y-93162091D01*
X176405085Y-93140403D01*
X176419526Y-93117558D01*
X176432712Y-93093551D01*
X176444641Y-93068379D01*
X176455315Y-93042037D01*
X176464733Y-93014521D01*
X176472895Y-92985825D01*
X176479802Y-92955947D01*
X176485453Y-92924882D01*
X176489848Y-92892624D01*
X176492987Y-92859170D01*
X176494871Y-92824516D01*
X176495499Y-92788657D01*
X176494848Y-92752627D01*
X176492900Y-92717475D01*
X176489658Y-92683219D01*
X176485127Y-92649875D01*
X176479312Y-92617461D01*
X176472215Y-92585995D01*
X176463843Y-92555494D01*
X176454199Y-92525975D01*
X176443288Y-92497456D01*
X176431113Y-92469955D01*
X176417680Y-92443489D01*
X176402993Y-92418075D01*
X176387056Y-92393730D01*
X176369873Y-92370473D01*
X176351449Y-92348320D01*
X176331788Y-92327289D01*
X176310894Y-92307398D01*
X176288773Y-92288664D01*
X176265428Y-92271104D01*
X176240863Y-92254736D01*
X176215083Y-92239577D01*
X176188093Y-92225645D01*
X176159896Y-92212957D01*
X176130498Y-92201530D01*
X176099901Y-92191382D01*
X176068112Y-92182531D01*
X176035134Y-92174994D01*
X176000971Y-92168788D01*
X175965628Y-92163931D01*
X175929109Y-92160440D01*
X175891418Y-92158332D01*
X175852561Y-92157626D01*
X175813704Y-92158287D01*
X175776013Y-92160265D01*
X175739495Y-92163551D01*
X175704152Y-92168137D01*
X175669989Y-92174013D01*
X175637010Y-92181171D01*
X175605221Y-92189602D01*
X175574625Y-92199298D01*
X175545226Y-92210249D01*
X175517029Y-92222447D01*
X175490039Y-92235884D01*
X175464260Y-92250550D01*
X175439695Y-92266437D01*
X175416350Y-92283537D01*
X175394228Y-92301839D01*
X175373335Y-92321337D01*
X175353674Y-92342020D01*
X175335250Y-92363880D01*
X175318068Y-92386910D01*
X175302130Y-92411099D01*
X175287443Y-92436439D01*
X175274010Y-92462921D01*
X175261836Y-92490537D01*
X175250924Y-92519278D01*
X175241280Y-92549135D01*
X175232908Y-92580100D01*
X175225812Y-92612163D01*
X175219996Y-92645317D01*
X175215465Y-92679552D01*
X175212224Y-92714859D01*
X175210275Y-92751231D01*
X175209625Y-92788657D01*
X174852436Y-92788657D01*
X174853424Y-92733977D01*
X174856387Y-92680822D01*
X174861321Y-92629206D01*
X174868226Y-92579143D01*
X174877099Y-92530646D01*
X174887937Y-92483731D01*
X174900739Y-92438410D01*
X174915502Y-92394696D01*
X174932224Y-92352605D01*
X174950904Y-92312150D01*
X174971538Y-92273345D01*
X174994125Y-92236202D01*
X175018662Y-92200737D01*
X175045148Y-92166963D01*
X175073580Y-92134894D01*
X175103955Y-92104544D01*
X175136273Y-92075926D01*
X175170530Y-92049054D01*
X175206724Y-92023942D01*
X175244854Y-92000605D01*
X175284916Y-91979055D01*
X175326910Y-91959306D01*
X175370832Y-91941373D01*
X175416681Y-91925268D01*
X175464453Y-91911007D01*
X175514148Y-91898602D01*
X175565763Y-91888068D01*
X175619296Y-91879419D01*
X175674744Y-91872667D01*
X175732106Y-91867827D01*
X175791379Y-91864913D01*
X175852561Y-91863939D01*
X175973061Y-91867784D01*
G37*
G36*
X163507763Y-93114446D02*
G01*
X163521469Y-93115488D01*
X163534975Y-93117205D01*
X163548265Y-93119578D01*
X163561321Y-93122592D01*
X163574128Y-93126228D01*
X163586668Y-93130471D01*
X163598923Y-93135303D01*
X163610878Y-93140708D01*
X163622514Y-93146668D01*
X163633816Y-93153166D01*
X163644765Y-93160186D01*
X163655346Y-93167710D01*
X163665541Y-93175721D01*
X163675334Y-93184204D01*
X163684706Y-93193140D01*
X163693642Y-93202512D01*
X163702124Y-93212305D01*
X163710136Y-93222500D01*
X163717660Y-93233080D01*
X163724680Y-93244030D01*
X163731178Y-93255332D01*
X163737138Y-93266968D01*
X163742543Y-93278923D01*
X163747375Y-93291178D01*
X163751618Y-93303717D01*
X163755254Y-93316524D01*
X163758268Y-93329581D01*
X163760641Y-93342871D01*
X163762357Y-93356377D01*
X163763400Y-93370082D01*
X163763751Y-93383970D01*
X163763400Y-93397857D01*
X163762357Y-93411563D01*
X163760641Y-93425069D01*
X163758268Y-93438359D01*
X163755254Y-93451416D01*
X163751618Y-93464222D01*
X163747375Y-93476762D01*
X163742543Y-93489017D01*
X163737138Y-93500972D01*
X163731178Y-93512608D01*
X163724680Y-93523910D01*
X163717660Y-93534859D01*
X163710136Y-93545440D01*
X163702124Y-93555635D01*
X163693642Y-93565428D01*
X163684706Y-93574800D01*
X163675334Y-93583736D01*
X163665541Y-93592219D01*
X163655346Y-93600230D01*
X163644765Y-93607754D01*
X163633816Y-93614774D01*
X163622514Y-93621272D01*
X163610878Y-93627232D01*
X163598923Y-93632637D01*
X163586668Y-93637469D01*
X163574128Y-93641712D01*
X163561321Y-93645349D01*
X163548265Y-93648362D01*
X163534975Y-93650735D01*
X163521469Y-93652452D01*
X163507763Y-93653494D01*
X163493875Y-93653845D01*
X163479988Y-93653494D01*
X163466282Y-93652452D01*
X163452776Y-93650735D01*
X163439486Y-93648362D01*
X163426429Y-93645349D01*
X163413623Y-93641712D01*
X163401083Y-93637469D01*
X163388828Y-93632637D01*
X163376873Y-93627232D01*
X163365237Y-93621272D01*
X163353935Y-93614774D01*
X163342986Y-93607754D01*
X163332405Y-93600230D01*
X163322210Y-93592219D01*
X163312418Y-93583736D01*
X163303045Y-93574800D01*
X163294109Y-93565428D01*
X163285627Y-93555635D01*
X163277615Y-93545440D01*
X163270091Y-93534859D01*
X163263071Y-93523910D01*
X163256573Y-93512608D01*
X163250613Y-93500972D01*
X163245209Y-93489017D01*
X163240376Y-93476762D01*
X163236133Y-93464222D01*
X163232497Y-93451416D01*
X163229483Y-93438359D01*
X163227110Y-93425069D01*
X163225394Y-93411563D01*
X163224352Y-93397857D01*
X163224000Y-93383970D01*
X163224352Y-93370082D01*
X163225394Y-93356377D01*
X163227110Y-93342871D01*
X163229483Y-93329581D01*
X163232497Y-93316524D01*
X163236133Y-93303717D01*
X163240376Y-93291178D01*
X163245209Y-93278923D01*
X163250613Y-93266968D01*
X163256573Y-93255332D01*
X163263071Y-93244030D01*
X163270091Y-93233080D01*
X163277615Y-93222500D01*
X163285627Y-93212305D01*
X163294109Y-93202512D01*
X163303045Y-93193140D01*
X163312418Y-93184204D01*
X163322210Y-93175721D01*
X163332405Y-93167710D01*
X163342986Y-93160186D01*
X163353935Y-93153166D01*
X163365237Y-93146668D01*
X163376873Y-93140708D01*
X163388828Y-93135303D01*
X163401083Y-93130471D01*
X163413623Y-93126228D01*
X163426429Y-93122592D01*
X163439486Y-93119578D01*
X163452776Y-93117205D01*
X163466282Y-93115488D01*
X163479988Y-93114446D01*
X163493875Y-93114095D01*
X163507763Y-93114446D01*
G37*
G36*
X167932374Y-91867784D02*
G01*
X167989790Y-91872572D01*
X168045310Y-91879256D01*
X168098933Y-91887823D01*
X168150654Y-91898262D01*
X168200469Y-91910562D01*
X168248376Y-91924710D01*
X168294369Y-91940696D01*
X168338447Y-91958507D01*
X168380604Y-91978132D01*
X168420838Y-91999559D01*
X168459145Y-92022776D01*
X168495521Y-92047773D01*
X168529962Y-92074537D01*
X168562465Y-92103056D01*
X168593027Y-92133320D01*
X168621643Y-92165316D01*
X168648310Y-92199033D01*
X168673024Y-92234459D01*
X168695782Y-92271583D01*
X168716581Y-92310392D01*
X168735415Y-92350876D01*
X168752283Y-92393023D01*
X168767180Y-92436821D01*
X168780102Y-92482258D01*
X168791046Y-92529323D01*
X168800009Y-92578004D01*
X168806986Y-92628289D01*
X168811974Y-92680168D01*
X168814970Y-92733628D01*
X168815969Y-92788657D01*
X168814970Y-92840374D01*
X168811974Y-92890592D01*
X168806986Y-92939303D01*
X168800009Y-92986498D01*
X168791046Y-93032167D01*
X168780102Y-93076300D01*
X168767180Y-93118888D01*
X168752283Y-93159922D01*
X168735415Y-93199391D01*
X168716581Y-93237288D01*
X168695782Y-93273602D01*
X168673024Y-93308323D01*
X168648310Y-93341443D01*
X168621643Y-93372952D01*
X168593027Y-93402841D01*
X168562465Y-93431099D01*
X168529962Y-93457718D01*
X168495521Y-93482688D01*
X168459145Y-93505999D01*
X168420838Y-93527643D01*
X168380604Y-93547610D01*
X168338447Y-93565890D01*
X168294369Y-93582474D01*
X168248376Y-93597352D01*
X168200469Y-93610516D01*
X168150654Y-93621954D01*
X168098933Y-93631659D01*
X168045310Y-93639621D01*
X167989790Y-93645830D01*
X167932374Y-93650276D01*
X167873068Y-93652951D01*
X167811875Y-93653845D01*
X167811875Y-93653844D01*
X167692074Y-93650232D01*
X167579750Y-93639458D01*
X167526402Y-93631413D01*
X167474936Y-93621614D01*
X167425357Y-93610070D01*
X167377669Y-93596793D01*
X167331876Y-93581796D01*
X167287983Y-93565090D01*
X167245993Y-93546686D01*
X167205912Y-93526596D01*
X167167744Y-93504832D01*
X167131492Y-93481405D01*
X167097162Y-93456327D01*
X167064758Y-93429610D01*
X167034284Y-93401265D01*
X167005744Y-93371303D01*
X166979143Y-93339738D01*
X166954486Y-93306579D01*
X166931776Y-93271839D01*
X166911017Y-93235529D01*
X166892215Y-93197661D01*
X166875374Y-93158247D01*
X166860498Y-93117298D01*
X166847591Y-93074826D01*
X166836658Y-93030842D01*
X166827703Y-92985358D01*
X166820730Y-92938386D01*
X166815744Y-92889938D01*
X166812749Y-92840024D01*
X166811750Y-92788657D01*
X167168937Y-92788657D01*
X167169565Y-92825913D01*
X167171449Y-92861786D01*
X167174588Y-92896291D01*
X167178983Y-92929439D01*
X167184634Y-92961245D01*
X167191541Y-92991720D01*
X167199703Y-93020879D01*
X167209121Y-93048734D01*
X167219795Y-93075299D01*
X167231724Y-93100586D01*
X167244909Y-93124608D01*
X167259350Y-93147379D01*
X167275047Y-93168912D01*
X167292000Y-93189220D01*
X167310208Y-93208315D01*
X167329672Y-93226211D01*
X167350391Y-93242922D01*
X167372367Y-93258459D01*
X167395598Y-93272837D01*
X167420085Y-93286068D01*
X167445828Y-93298166D01*
X167472826Y-93309142D01*
X167501080Y-93319012D01*
X167530590Y-93327787D01*
X167561355Y-93335480D01*
X167593377Y-93342105D01*
X167626654Y-93347676D01*
X167661187Y-93352204D01*
X167734019Y-93358186D01*
X167811875Y-93360157D01*
X167889731Y-93358011D01*
X167962563Y-93351553D01*
X168030373Y-93340745D01*
X168062395Y-93333700D01*
X168093160Y-93325554D01*
X168122670Y-93316304D01*
X168150924Y-93305945D01*
X168177923Y-93294473D01*
X168203665Y-93281883D01*
X168228152Y-93268171D01*
X168251383Y-93253332D01*
X168273359Y-93237363D01*
X168294078Y-93220259D01*
X168313542Y-93202015D01*
X168331751Y-93182627D01*
X168348703Y-93162091D01*
X168364400Y-93140403D01*
X168378841Y-93117558D01*
X168392026Y-93093551D01*
X168403956Y-93068379D01*
X168414630Y-93042037D01*
X168424048Y-93014521D01*
X168432210Y-92985825D01*
X168439117Y-92955947D01*
X168444767Y-92924882D01*
X168449163Y-92892624D01*
X168452302Y-92859170D01*
X168454185Y-92824516D01*
X168454813Y-92788657D01*
X168454163Y-92752627D01*
X168452215Y-92717475D01*
X168448973Y-92683219D01*
X168444442Y-92649875D01*
X168438626Y-92617461D01*
X168431530Y-92585995D01*
X168423158Y-92555494D01*
X168413514Y-92525975D01*
X168402602Y-92497456D01*
X168390428Y-92469955D01*
X168376995Y-92443489D01*
X168362307Y-92418075D01*
X168346370Y-92393730D01*
X168329187Y-92370473D01*
X168310763Y-92348320D01*
X168291102Y-92327289D01*
X168270209Y-92307398D01*
X168248087Y-92288664D01*
X168224742Y-92271104D01*
X168200178Y-92254736D01*
X168174398Y-92239577D01*
X168147407Y-92225645D01*
X168119211Y-92212957D01*
X168089812Y-92201530D01*
X168059216Y-92191382D01*
X168027426Y-92182531D01*
X167994448Y-92174994D01*
X167960285Y-92168788D01*
X167924942Y-92163931D01*
X167888423Y-92160440D01*
X167850732Y-92158332D01*
X167811875Y-92157626D01*
X167773018Y-92158287D01*
X167735327Y-92160265D01*
X167698809Y-92163551D01*
X167663466Y-92168137D01*
X167629303Y-92174013D01*
X167596324Y-92181171D01*
X167564535Y-92189602D01*
X167533939Y-92199298D01*
X167504540Y-92210249D01*
X167476343Y-92222447D01*
X167449353Y-92235884D01*
X167423573Y-92250550D01*
X167399009Y-92266437D01*
X167375663Y-92283537D01*
X167353542Y-92301839D01*
X167332649Y-92321337D01*
X167312988Y-92342020D01*
X167294564Y-92363880D01*
X167277381Y-92386910D01*
X167261443Y-92411099D01*
X167246756Y-92436439D01*
X167233323Y-92462921D01*
X167221149Y-92490537D01*
X167210237Y-92519278D01*
X167200593Y-92549135D01*
X167192221Y-92580100D01*
X167185125Y-92612163D01*
X167179309Y-92645317D01*
X167174778Y-92679552D01*
X167171536Y-92714859D01*
X167169588Y-92751231D01*
X167168937Y-92788657D01*
X166811750Y-92788657D01*
X166812738Y-92733977D01*
X166815700Y-92680822D01*
X166820635Y-92629206D01*
X166827540Y-92579143D01*
X166836412Y-92530646D01*
X166847251Y-92483731D01*
X166860053Y-92438410D01*
X166874816Y-92394696D01*
X166891538Y-92352605D01*
X166910218Y-92312150D01*
X166930852Y-92273345D01*
X166953439Y-92236202D01*
X166977977Y-92200737D01*
X167004462Y-92166963D01*
X167032894Y-92134894D01*
X167063270Y-92104544D01*
X167095587Y-92075926D01*
X167129844Y-92049054D01*
X167166038Y-92023942D01*
X167204168Y-92000605D01*
X167244231Y-91979055D01*
X167286224Y-91959306D01*
X167330146Y-91941373D01*
X167375995Y-91925268D01*
X167423768Y-91911007D01*
X167473463Y-91898602D01*
X167525078Y-91888068D01*
X167578610Y-91879419D01*
X167634058Y-91872667D01*
X167691420Y-91867827D01*
X167750693Y-91864913D01*
X167811875Y-91863939D01*
X167932374Y-91867784D01*
G37*
G36*
X171673468Y-93161720D02*
G01*
X171706142Y-93178025D01*
X171740263Y-93194121D01*
X171775977Y-93209891D01*
X171813429Y-93225219D01*
X171852765Y-93239990D01*
X171894130Y-93254086D01*
X171937669Y-93267391D01*
X171983527Y-93279790D01*
X172031851Y-93291165D01*
X172082785Y-93301401D01*
X172136474Y-93310381D01*
X172193065Y-93317989D01*
X172252701Y-93324108D01*
X172315530Y-93328624D01*
X172381695Y-93331418D01*
X172451343Y-93332375D01*
X172451343Y-93649875D01*
X172385048Y-93648866D01*
X172321521Y-93645891D01*
X172260645Y-93641033D01*
X172202304Y-93634372D01*
X172146381Y-93625991D01*
X172092760Y-93615971D01*
X172041326Y-93604392D01*
X171991960Y-93591336D01*
X171944549Y-93576886D01*
X171898974Y-93561121D01*
X171855120Y-93544124D01*
X171812871Y-93525976D01*
X171772110Y-93506758D01*
X171732721Y-93486552D01*
X171694587Y-93465439D01*
X171657593Y-93443500D01*
X171657593Y-93618126D01*
X171653625Y-93622094D01*
X171312312Y-93622094D01*
X171312312Y-91895688D01*
X171673468Y-91895688D01*
X171673468Y-93161720D01*
G37*
G36*
X178868812Y-92185408D02*
G01*
X177527374Y-92181438D01*
X178825155Y-93376032D01*
X178825155Y-93622094D01*
X177102718Y-93622094D01*
X177102718Y-93340313D01*
X178344937Y-93344282D01*
X177051124Y-92145720D01*
X177051124Y-91899657D01*
X178868812Y-91899657D01*
X178868812Y-92185408D01*
G37*
G36*
X169830803Y-91865436D02*
G01*
X169889609Y-91869790D01*
X169948555Y-91876783D01*
X170007338Y-91886200D01*
X170065657Y-91897826D01*
X170123207Y-91911446D01*
X170179688Y-91926846D01*
X170234797Y-91943809D01*
X170288232Y-91962121D01*
X170339690Y-91981566D01*
X170388869Y-92001930D01*
X170435467Y-92022998D01*
X170479181Y-92044553D01*
X170519710Y-92066382D01*
X170556750Y-92088270D01*
X170590000Y-92110000D01*
X170590000Y-91895686D01*
X170931313Y-91895686D01*
X170931313Y-93042655D01*
X170930530Y-93081072D01*
X170928168Y-93118192D01*
X170924207Y-93154020D01*
X170918624Y-93188560D01*
X170911398Y-93221820D01*
X170902509Y-93253802D01*
X170891936Y-93284512D01*
X170879657Y-93313956D01*
X170865651Y-93342138D01*
X170849898Y-93369064D01*
X170832376Y-93394739D01*
X170813064Y-93419167D01*
X170791941Y-93442354D01*
X170768986Y-93464305D01*
X170744178Y-93485024D01*
X170717496Y-93504518D01*
X170688919Y-93522791D01*
X170658425Y-93539849D01*
X170625994Y-93555695D01*
X170591605Y-93570336D01*
X170555236Y-93583777D01*
X170516866Y-93596022D01*
X170476475Y-93607076D01*
X170434041Y-93616946D01*
X170389543Y-93625635D01*
X170342960Y-93633149D01*
X170294271Y-93639493D01*
X170243456Y-93644673D01*
X170190492Y-93648692D01*
X170135359Y-93651557D01*
X170018500Y-93653843D01*
X170018500Y-93653844D01*
X169899701Y-93651310D01*
X169782484Y-93643984D01*
X169668429Y-93632287D01*
X169559117Y-93616637D01*
X169456131Y-93597452D01*
X169361052Y-93575152D01*
X169316971Y-93562963D01*
X169275460Y-93550153D01*
X169236716Y-93536773D01*
X169200937Y-93522876D01*
X169200937Y-93213313D01*
X169241151Y-93227953D01*
X169282847Y-93242071D01*
X169325927Y-93255607D01*
X169370292Y-93268503D01*
X169415842Y-93280702D01*
X169462480Y-93292145D01*
X169510106Y-93302775D01*
X169558621Y-93312532D01*
X169607927Y-93321359D01*
X169657925Y-93329198D01*
X169708516Y-93335990D01*
X169759601Y-93341677D01*
X169811081Y-93346202D01*
X169862858Y-93349506D01*
X169914833Y-93351532D01*
X169966906Y-93352219D01*
X170048285Y-93351050D01*
X170122897Y-93347514D01*
X170190951Y-93341572D01*
X170252656Y-93333182D01*
X170308223Y-93322304D01*
X170357859Y-93308897D01*
X170401775Y-93292920D01*
X170440180Y-93274333D01*
X170457381Y-93264048D01*
X170473283Y-93253095D01*
X170487911Y-93241469D01*
X170501293Y-93229165D01*
X170513453Y-93216178D01*
X170524419Y-93202503D01*
X170534216Y-93188134D01*
X170542871Y-93173067D01*
X170550410Y-93157297D01*
X170556859Y-93140818D01*
X170566591Y-93105715D01*
X170572277Y-93067716D01*
X170574125Y-93026782D01*
X170574125Y-92872001D01*
X170505765Y-92889256D01*
X170432056Y-92905115D01*
X170353604Y-92919300D01*
X170271012Y-92931532D01*
X170184886Y-92941531D01*
X170095829Y-92949019D01*
X170004447Y-92953716D01*
X169911344Y-92955344D01*
X169822624Y-92954211D01*
X169736805Y-92950561D01*
X169654276Y-92944016D01*
X169575427Y-92934198D01*
X169500648Y-92920729D01*
X169430327Y-92903231D01*
X169364856Y-92881326D01*
X169304622Y-92854637D01*
X169276591Y-92839380D01*
X169250016Y-92822786D01*
X169224944Y-92804806D01*
X169201426Y-92785394D01*
X169179510Y-92764502D01*
X169159244Y-92742083D01*
X169140677Y-92718091D01*
X169123857Y-92692477D01*
X169108834Y-92665194D01*
X169095657Y-92636196D01*
X169084373Y-92605435D01*
X169075031Y-92572864D01*
X169067680Y-92538435D01*
X169062370Y-92502102D01*
X169059148Y-92463817D01*
X169058063Y-92423532D01*
X169058168Y-92419562D01*
X169423187Y-92419562D01*
X169423665Y-92440669D01*
X169425105Y-92460839D01*
X169427514Y-92480091D01*
X169430900Y-92498442D01*
X169435272Y-92515908D01*
X169440637Y-92532509D01*
X169447003Y-92548261D01*
X169454379Y-92563182D01*
X169462772Y-92577289D01*
X169472191Y-92590599D01*
X169482643Y-92603130D01*
X169494136Y-92614900D01*
X169506679Y-92625925D01*
X169520279Y-92636224D01*
X169534945Y-92645813D01*
X169550683Y-92654711D01*
X169567503Y-92662935D01*
X169585413Y-92670501D01*
X169604420Y-92677428D01*
X169624532Y-92683733D01*
X169645757Y-92689433D01*
X169668104Y-92694546D01*
X169691580Y-92699089D01*
X169716193Y-92703080D01*
X169741951Y-92706537D01*
X169768863Y-92709475D01*
X169826178Y-92713870D01*
X169888203Y-92716405D01*
X169955000Y-92717219D01*
X170041979Y-92715971D01*
X170126958Y-92712444D01*
X170209426Y-92706964D01*
X170288871Y-92699856D01*
X170364781Y-92691446D01*
X170436645Y-92682059D01*
X170503950Y-92672020D01*
X170566187Y-92661657D01*
X170566187Y-92356064D01*
X170534885Y-92332029D01*
X170500695Y-92309082D01*
X170463888Y-92287286D01*
X170424738Y-92266704D01*
X170383519Y-92247402D01*
X170340503Y-92229443D01*
X170295964Y-92212891D01*
X170250175Y-92197809D01*
X170203410Y-92184263D01*
X170155941Y-92172315D01*
X170108042Y-92162029D01*
X170059985Y-92153471D01*
X170012045Y-92146703D01*
X169964495Y-92141789D01*
X169917607Y-92138794D01*
X169871656Y-92137782D01*
X169818221Y-92138897D01*
X169768065Y-92142239D01*
X169721212Y-92147802D01*
X169677683Y-92155579D01*
X169637504Y-92165566D01*
X169600696Y-92177756D01*
X169567283Y-92192144D01*
X169537289Y-92208723D01*
X169523581Y-92217833D01*
X169510736Y-92227489D01*
X169498758Y-92237689D01*
X169487649Y-92248434D01*
X169477411Y-92259722D01*
X169468049Y-92271554D01*
X169459565Y-92283927D01*
X169451961Y-92296842D01*
X169445241Y-92310297D01*
X169439407Y-92324293D01*
X169434463Y-92338827D01*
X169430412Y-92353900D01*
X169427255Y-92369511D01*
X169424997Y-92385659D01*
X169423640Y-92402343D01*
X169423187Y-92419562D01*
X169058168Y-92419562D01*
X169059132Y-92383168D01*
X169062292Y-92344650D01*
X169067471Y-92307942D01*
X169074597Y-92273006D01*
X169083597Y-92239805D01*
X169094401Y-92208303D01*
X169106935Y-92178462D01*
X169121129Y-92150246D01*
X169136910Y-92123616D01*
X169154205Y-92098536D01*
X169172944Y-92074970D01*
X169193055Y-92052879D01*
X169214464Y-92032227D01*
X169237102Y-92012978D01*
X169260894Y-91995092D01*
X169285770Y-91978535D01*
X169311658Y-91963268D01*
X169338485Y-91949255D01*
X169366180Y-91936458D01*
X169394670Y-91924841D01*
X169423885Y-91914366D01*
X169453751Y-91904996D01*
X169484197Y-91896694D01*
X169515152Y-91889424D01*
X169578296Y-91877829D01*
X169642609Y-91869914D01*
X169707515Y-91865382D01*
X169772438Y-91863938D01*
X169830803Y-91865436D01*
G37*
G36*
X179808238Y-91865436D02*
G01*
X179867045Y-91869790D01*
X179925991Y-91876783D01*
X179984774Y-91886200D01*
X180043092Y-91897826D01*
X180100643Y-91911446D01*
X180157124Y-91926846D01*
X180212233Y-91943809D01*
X180265668Y-91962121D01*
X180317126Y-91981566D01*
X180366305Y-92001930D01*
X180412903Y-92022998D01*
X180456617Y-92044553D01*
X180497146Y-92066382D01*
X180534187Y-92088270D01*
X180567437Y-92110000D01*
X180567437Y-91895686D01*
X180908750Y-91895686D01*
X180908750Y-93042655D01*
X180907967Y-93081072D01*
X180905606Y-93118192D01*
X180901644Y-93154020D01*
X180896061Y-93188560D01*
X180888835Y-93221820D01*
X180879946Y-93253802D01*
X180869373Y-93284512D01*
X180857094Y-93313956D01*
X180843088Y-93342138D01*
X180827335Y-93369064D01*
X180809813Y-93394739D01*
X180790501Y-93419167D01*
X180769378Y-93442354D01*
X180746423Y-93464305D01*
X180721615Y-93485024D01*
X180694933Y-93504518D01*
X180666356Y-93522791D01*
X180635862Y-93539849D01*
X180603431Y-93555695D01*
X180569042Y-93570336D01*
X180532673Y-93583777D01*
X180494303Y-93596022D01*
X180453912Y-93607076D01*
X180411478Y-93616946D01*
X180366980Y-93625635D01*
X180320397Y-93633149D01*
X180271708Y-93639493D01*
X180220893Y-93644673D01*
X180167929Y-93648692D01*
X180112796Y-93651557D01*
X179995937Y-93653843D01*
X179995937Y-93653844D01*
X179877139Y-93651310D01*
X179759921Y-93643984D01*
X179645866Y-93632287D01*
X179536555Y-93616637D01*
X179433569Y-93597452D01*
X179338489Y-93575152D01*
X179294408Y-93562963D01*
X179252897Y-93550153D01*
X179214153Y-93536773D01*
X179178374Y-93522876D01*
X179178374Y-93213313D01*
X179218588Y-93227953D01*
X179260284Y-93242071D01*
X179303364Y-93255607D01*
X179347728Y-93268503D01*
X179393279Y-93280702D01*
X179439917Y-93292145D01*
X179487543Y-93302775D01*
X179536058Y-93312532D01*
X179585364Y-93321359D01*
X179635362Y-93329198D01*
X179685953Y-93335990D01*
X179737038Y-93341677D01*
X179788518Y-93346202D01*
X179840295Y-93349506D01*
X179892270Y-93351532D01*
X179944343Y-93352219D01*
X180025722Y-93351050D01*
X180100334Y-93347514D01*
X180168388Y-93341572D01*
X180230093Y-93333182D01*
X180285660Y-93322304D01*
X180335296Y-93308897D01*
X180379212Y-93292920D01*
X180417616Y-93274333D01*
X180434817Y-93264048D01*
X180450719Y-93253095D01*
X180465347Y-93241469D01*
X180478729Y-93229165D01*
X180490889Y-93216178D01*
X180501855Y-93202503D01*
X180511652Y-93188134D01*
X180520307Y-93173067D01*
X180527846Y-93157297D01*
X180534295Y-93140818D01*
X180544027Y-93105715D01*
X180549712Y-93067716D01*
X180551561Y-93026782D01*
X180551561Y-92872001D01*
X180483201Y-92889256D01*
X180409493Y-92905115D01*
X180331040Y-92919300D01*
X180248448Y-92931532D01*
X180162322Y-92941531D01*
X180073265Y-92949019D01*
X179981883Y-92953716D01*
X179888781Y-92955344D01*
X179800060Y-92954211D01*
X179714241Y-92950561D01*
X179631712Y-92944016D01*
X179552863Y-92934198D01*
X179478084Y-92920729D01*
X179407764Y-92903231D01*
X179342292Y-92881326D01*
X179282058Y-92854637D01*
X179254027Y-92839380D01*
X179227452Y-92822786D01*
X179202381Y-92804806D01*
X179178863Y-92785394D01*
X179156946Y-92764502D01*
X179136680Y-92742083D01*
X179118113Y-92718091D01*
X179101294Y-92692477D01*
X179086271Y-92665194D01*
X179073093Y-92636196D01*
X179061809Y-92605435D01*
X179052467Y-92572864D01*
X179045117Y-92538435D01*
X179039806Y-92502102D01*
X179036584Y-92463817D01*
X179035499Y-92423532D01*
X179035604Y-92419562D01*
X179400624Y-92419562D01*
X179401102Y-92440669D01*
X179402542Y-92460839D01*
X179404951Y-92480091D01*
X179408337Y-92498442D01*
X179412709Y-92515908D01*
X179418074Y-92532509D01*
X179424440Y-92548261D01*
X179431816Y-92563182D01*
X179440210Y-92577289D01*
X179449628Y-92590599D01*
X179460080Y-92603130D01*
X179471574Y-92614900D01*
X179484116Y-92625925D01*
X179497717Y-92636224D01*
X179512382Y-92645813D01*
X179528121Y-92654711D01*
X179544941Y-92662935D01*
X179562850Y-92670501D01*
X179581857Y-92677428D01*
X179601969Y-92683733D01*
X179623194Y-92689433D01*
X179645541Y-92694546D01*
X179669017Y-92699089D01*
X179693630Y-92703080D01*
X179719389Y-92706537D01*
X179746300Y-92709475D01*
X179803616Y-92713870D01*
X179865640Y-92716405D01*
X179932437Y-92717219D01*
X180019416Y-92715971D01*
X180104396Y-92712444D01*
X180186864Y-92706964D01*
X180266308Y-92699856D01*
X180342219Y-92691446D01*
X180414083Y-92682059D01*
X180481389Y-92672020D01*
X180543626Y-92661657D01*
X180543626Y-92356064D01*
X180512324Y-92332029D01*
X180478134Y-92309082D01*
X180441327Y-92287286D01*
X180402177Y-92266704D01*
X180360957Y-92247402D01*
X180317941Y-92229443D01*
X180273402Y-92212891D01*
X180227614Y-92197809D01*
X180180848Y-92184263D01*
X180133379Y-92172315D01*
X180085480Y-92162029D01*
X180037424Y-92153471D01*
X179989484Y-92146703D01*
X179941933Y-92141789D01*
X179895046Y-92138794D01*
X179849094Y-92137782D01*
X179795659Y-92138897D01*
X179745503Y-92142239D01*
X179698649Y-92147802D01*
X179655121Y-92155579D01*
X179614941Y-92165566D01*
X179578133Y-92177756D01*
X179544720Y-92192144D01*
X179514726Y-92208723D01*
X179501018Y-92217833D01*
X179488173Y-92227489D01*
X179476195Y-92237689D01*
X179465086Y-92248434D01*
X179454848Y-92259722D01*
X179445486Y-92271554D01*
X179437002Y-92283927D01*
X179429398Y-92296842D01*
X179422678Y-92310297D01*
X179416844Y-92324293D01*
X179411900Y-92338827D01*
X179407849Y-92353900D01*
X179404692Y-92369511D01*
X179402434Y-92385659D01*
X179401077Y-92402343D01*
X179400624Y-92419562D01*
X179035604Y-92419562D01*
X179036569Y-92383168D01*
X179039729Y-92344650D01*
X179044907Y-92307942D01*
X179052033Y-92273006D01*
X179061034Y-92239805D01*
X179071837Y-92208303D01*
X179084372Y-92178462D01*
X179098565Y-92150246D01*
X179114346Y-92123616D01*
X179131642Y-92098536D01*
X179150381Y-92074970D01*
X179170491Y-92052879D01*
X179191901Y-92032227D01*
X179214538Y-92012978D01*
X179238330Y-91995092D01*
X179263206Y-91978535D01*
X179289094Y-91963268D01*
X179315921Y-91949255D01*
X179343616Y-91936458D01*
X179372106Y-91924841D01*
X179401321Y-91914366D01*
X179431187Y-91904996D01*
X179461633Y-91896694D01*
X179492587Y-91889424D01*
X179555732Y-91877829D01*
X179620045Y-91869914D01*
X179684950Y-91865382D01*
X179749874Y-91863938D01*
X179808238Y-91865436D01*
G37*
G36*
X173535622Y-91869098D02*
G01*
X173587112Y-91872597D01*
X173637614Y-91878293D01*
X173687052Y-91886077D01*
X173735350Y-91895837D01*
X173782434Y-91907463D01*
X173828226Y-91920845D01*
X173872653Y-91935872D01*
X173915638Y-91952434D01*
X173957105Y-91970420D01*
X173996980Y-91989720D01*
X174035186Y-92010224D01*
X174071648Y-92031820D01*
X174106290Y-92054399D01*
X174139037Y-92077851D01*
X174169813Y-92102063D01*
X174169813Y-91899657D01*
X174511125Y-91899657D01*
X174511125Y-94201532D01*
X174149969Y-94201532D01*
X174149969Y-93427625D01*
X174118762Y-93451793D01*
X174086159Y-93475119D01*
X174052161Y-93497502D01*
X174016768Y-93518845D01*
X173979979Y-93539048D01*
X173941796Y-93558013D01*
X173902217Y-93575641D01*
X173861242Y-93591833D01*
X173818873Y-93606490D01*
X173775108Y-93619513D01*
X173729948Y-93630804D01*
X173683393Y-93640264D01*
X173635442Y-93647793D01*
X173586097Y-93653294D01*
X173535356Y-93656667D01*
X173483219Y-93657813D01*
X173381404Y-93654768D01*
X173284471Y-93645543D01*
X173192655Y-93630004D01*
X173148738Y-93619825D01*
X173106187Y-93608018D01*
X173065032Y-93594565D01*
X173025301Y-93579451D01*
X172987023Y-93562658D01*
X172950228Y-93544169D01*
X172914944Y-93523968D01*
X172881201Y-93502039D01*
X172849028Y-93478364D01*
X172818453Y-93452927D01*
X172789506Y-93425710D01*
X172762216Y-93396698D01*
X172736612Y-93365874D01*
X172712723Y-93333221D01*
X172690579Y-93298721D01*
X172670207Y-93262360D01*
X172651637Y-93224119D01*
X172634899Y-93183982D01*
X172620021Y-93141932D01*
X172607033Y-93097953D01*
X172595963Y-93052028D01*
X172586840Y-93004140D01*
X172579694Y-92954272D01*
X172574554Y-92902409D01*
X172571449Y-92848532D01*
X172570407Y-92792626D01*
X172570604Y-92780719D01*
X172935531Y-92780719D01*
X172936214Y-92818696D01*
X172938253Y-92855246D01*
X172941630Y-92890383D01*
X172946329Y-92924121D01*
X172952333Y-92956476D01*
X172959625Y-92987462D01*
X172968190Y-93017094D01*
X172978009Y-93045385D01*
X172989066Y-93072351D01*
X173001346Y-93098006D01*
X173014830Y-93122364D01*
X173029502Y-93145441D01*
X173045345Y-93167250D01*
X173062344Y-93187806D01*
X173080480Y-93207125D01*
X173099738Y-93225219D01*
X173120100Y-93242104D01*
X173141550Y-93257794D01*
X173164072Y-93272305D01*
X173187647Y-93285649D01*
X173212261Y-93297843D01*
X173237895Y-93308900D01*
X173264534Y-93318835D01*
X173292161Y-93327662D01*
X173320758Y-93335396D01*
X173350309Y-93342052D01*
X173380798Y-93347645D01*
X173412208Y-93352187D01*
X173477723Y-93358183D01*
X173546720Y-93360156D01*
X173589642Y-93359230D01*
X173632063Y-93356466D01*
X173673950Y-93351889D01*
X173715268Y-93345521D01*
X173755980Y-93337386D01*
X173796053Y-93327507D01*
X173835452Y-93315907D01*
X173874141Y-93302609D01*
X173912086Y-93287637D01*
X173949253Y-93271014D01*
X173985605Y-93252764D01*
X174021109Y-93232908D01*
X174055728Y-93211472D01*
X174089430Y-93188477D01*
X174122178Y-93163948D01*
X174153937Y-93137907D01*
X174153937Y-92379876D01*
X174149969Y-92379876D01*
X174122267Y-92356540D01*
X174092810Y-92334204D01*
X174061701Y-92312938D01*
X174029046Y-92292812D01*
X173994950Y-92273894D01*
X173959516Y-92256256D01*
X173922850Y-92239966D01*
X173885055Y-92225095D01*
X173846238Y-92211712D01*
X173806502Y-92199887D01*
X173765952Y-92189690D01*
X173724693Y-92181191D01*
X173682829Y-92174459D01*
X173640465Y-92169563D01*
X173597706Y-92166575D01*
X173554656Y-92165564D01*
X173515169Y-92166247D01*
X173477068Y-92168286D01*
X173440345Y-92171666D01*
X173404991Y-92176369D01*
X173370997Y-92182381D01*
X173338355Y-92189684D01*
X173307056Y-92198264D01*
X173277091Y-92208104D01*
X173248452Y-92219188D01*
X173221130Y-92231500D01*
X173195115Y-92245024D01*
X173170400Y-92259744D01*
X173146976Y-92275644D01*
X173124833Y-92292709D01*
X173103964Y-92310922D01*
X173084359Y-92330267D01*
X173066010Y-92350728D01*
X173048908Y-92372289D01*
X173033044Y-92394935D01*
X173018409Y-92418649D01*
X173004996Y-92443415D01*
X172992795Y-92469217D01*
X172981797Y-92496040D01*
X172971994Y-92523867D01*
X172963376Y-92552682D01*
X172955936Y-92582470D01*
X172949665Y-92613214D01*
X172944553Y-92644898D01*
X172937775Y-92711024D01*
X172935531Y-92780719D01*
X172570604Y-92780719D01*
X172571336Y-92736548D01*
X172574118Y-92682174D01*
X172578746Y-92629507D01*
X172585212Y-92578553D01*
X172593510Y-92529317D01*
X172603632Y-92481804D01*
X172615570Y-92436019D01*
X172629318Y-92391968D01*
X172644868Y-92349654D01*
X172662213Y-92309084D01*
X172681346Y-92270263D01*
X172702259Y-92233195D01*
X172724946Y-92197885D01*
X172749398Y-92164339D01*
X172775609Y-92132562D01*
X172803571Y-92102559D01*
X172833277Y-92074335D01*
X172864720Y-92047895D01*
X172897893Y-92023244D01*
X172932788Y-92000387D01*
X172969397Y-91979330D01*
X173007715Y-91960077D01*
X173047733Y-91942633D01*
X173089445Y-91927004D01*
X173132842Y-91913195D01*
X173177918Y-91901210D01*
X173224665Y-91891056D01*
X173273077Y-91882736D01*
X173323145Y-91876256D01*
X173374863Y-91871621D01*
X173428224Y-91868837D01*
X173483219Y-91867907D01*
X173535622Y-91869098D01*
G37*
G36*
X165913099Y-91901720D02*
G01*
X165997226Y-91907975D01*
X166037234Y-91912705D01*
X166075864Y-91918520D01*
X166113111Y-91925432D01*
X166148968Y-91933454D01*
X166183430Y-91942598D01*
X166216491Y-91952876D01*
X166248145Y-91964301D01*
X166278387Y-91976885D01*
X166307210Y-91990640D01*
X166334608Y-92005580D01*
X166360576Y-92021715D01*
X166385109Y-92039059D01*
X166408200Y-92057624D01*
X166429843Y-92077422D01*
X166450032Y-92098466D01*
X166468763Y-92120767D01*
X166486028Y-92144339D01*
X166501823Y-92169194D01*
X166516141Y-92195343D01*
X166528976Y-92222800D01*
X166540323Y-92251576D01*
X166550176Y-92281685D01*
X166558529Y-92313138D01*
X166565377Y-92345947D01*
X166570713Y-92380126D01*
X166574531Y-92415686D01*
X166576827Y-92452641D01*
X166577593Y-92491001D01*
X166577132Y-92518523D01*
X166575760Y-92545279D01*
X166573499Y-92571270D01*
X166570369Y-92596498D01*
X166566390Y-92620965D01*
X166561583Y-92644672D01*
X166555967Y-92667620D01*
X166549564Y-92689811D01*
X166542393Y-92711246D01*
X166534476Y-92731926D01*
X166525831Y-92751854D01*
X166516481Y-92771030D01*
X166506444Y-92789457D01*
X166495742Y-92807135D01*
X166484394Y-92824066D01*
X166472421Y-92840251D01*
X166459844Y-92855692D01*
X166446683Y-92870391D01*
X166432957Y-92884348D01*
X166418688Y-92897565D01*
X166403896Y-92910045D01*
X166388601Y-92921787D01*
X166372823Y-92932794D01*
X166356584Y-92943067D01*
X166339902Y-92952607D01*
X166322799Y-92961416D01*
X166305295Y-92969496D01*
X166287410Y-92976847D01*
X166269164Y-92983472D01*
X166250579Y-92989372D01*
X166231673Y-92994548D01*
X166212469Y-92999001D01*
X166247784Y-93011942D01*
X166282170Y-93027000D01*
X166315439Y-93044243D01*
X166347406Y-93063742D01*
X166377885Y-93085566D01*
X166406689Y-93109786D01*
X166433633Y-93136470D01*
X166458531Y-93165689D01*
X166481196Y-93197513D01*
X166491633Y-93214423D01*
X166501443Y-93232011D01*
X166510601Y-93250285D01*
X166519085Y-93269253D01*
X166526871Y-93288925D01*
X166533937Y-93309309D01*
X166540258Y-93330413D01*
X166545812Y-93352248D01*
X166550575Y-93374821D01*
X166554525Y-93398140D01*
X166557637Y-93422216D01*
X166559889Y-93447056D01*
X166561257Y-93472669D01*
X166561718Y-93499064D01*
X166560919Y-93539159D01*
X166558531Y-93577604D01*
X166554573Y-93614424D01*
X166549060Y-93649644D01*
X166542009Y-93683289D01*
X166533438Y-93715382D01*
X166523362Y-93745950D01*
X166511799Y-93775016D01*
X166498765Y-93802606D01*
X166484276Y-93828744D01*
X166468350Y-93853454D01*
X166451004Y-93876762D01*
X166432254Y-93898692D01*
X166412116Y-93919269D01*
X166390608Y-93938517D01*
X166367746Y-93956462D01*
X166343546Y-93973128D01*
X166318027Y-93988540D01*
X166291203Y-94002722D01*
X166263093Y-94015699D01*
X166233713Y-94027496D01*
X166203078Y-94038138D01*
X166138116Y-94056053D01*
X166068341Y-94069643D01*
X165993885Y-94079106D01*
X165914883Y-94084639D01*
X165831468Y-94086439D01*
X163116844Y-94086439D01*
X163116844Y-93780845D01*
X165815593Y-93780845D01*
X165858282Y-93779768D01*
X165898511Y-93776504D01*
X165917691Y-93774038D01*
X165936240Y-93771008D01*
X165954155Y-93767409D01*
X165971429Y-93763234D01*
X165988058Y-93758477D01*
X166004036Y-93753134D01*
X166019360Y-93747197D01*
X166034022Y-93740662D01*
X166048019Y-93733521D01*
X166061345Y-93725771D01*
X166073995Y-93717404D01*
X166085965Y-93708415D01*
X166097248Y-93698799D01*
X166107840Y-93688549D01*
X166117736Y-93677659D01*
X166126931Y-93666124D01*
X166135420Y-93653937D01*
X166143197Y-93641094D01*
X166150257Y-93627588D01*
X166156596Y-93613414D01*
X166162208Y-93598565D01*
X166167089Y-93583036D01*
X166171232Y-93566820D01*
X166174634Y-93549914D01*
X166177288Y-93532309D01*
X166179191Y-93514001D01*
X166180336Y-93494984D01*
X166180719Y-93475251D01*
X166180244Y-93452251D01*
X166178831Y-93430125D01*
X166176493Y-93408864D01*
X166173246Y-93388458D01*
X166169103Y-93368898D01*
X166164080Y-93350175D01*
X166158190Y-93332278D01*
X166151449Y-93315199D01*
X166143870Y-93298928D01*
X166135469Y-93283456D01*
X166126260Y-93268773D01*
X166116257Y-93254869D01*
X166105476Y-93241736D01*
X166093929Y-93229364D01*
X166081633Y-93217743D01*
X166068601Y-93206865D01*
X166054849Y-93196718D01*
X166040390Y-93187295D01*
X166025239Y-93178585D01*
X166009411Y-93170580D01*
X165992920Y-93163269D01*
X165975781Y-93156644D01*
X165958009Y-93150694D01*
X165939617Y-93145411D01*
X165901034Y-93136806D01*
X165860149Y-93130753D01*
X165817078Y-93127177D01*
X165771937Y-93126001D01*
X164632906Y-93126001D01*
X164632906Y-92836283D01*
X165843375Y-92836283D01*
X165885930Y-92835336D01*
X165925781Y-92832423D01*
X165962923Y-92827441D01*
X165980476Y-92824141D01*
X165997350Y-92820284D01*
X166013544Y-92815858D01*
X166029056Y-92810849D01*
X166043887Y-92805244D01*
X166058036Y-92799029D01*
X166071502Y-92792193D01*
X166084284Y-92784722D01*
X166096381Y-92776603D01*
X166107793Y-92767822D01*
X166118519Y-92758367D01*
X166128558Y-92748224D01*
X166137910Y-92737381D01*
X166146573Y-92725824D01*
X166154548Y-92713541D01*
X166161833Y-92700518D01*
X166168428Y-92686742D01*
X166174331Y-92672200D01*
X166179543Y-92656879D01*
X166184062Y-92640766D01*
X166187888Y-92623847D01*
X166191020Y-92606111D01*
X166193458Y-92587543D01*
X166195199Y-92568131D01*
X166196245Y-92547861D01*
X166196594Y-92526721D01*
X166196187Y-92505523D01*
X166194972Y-92485087D01*
X166192951Y-92465407D01*
X166190129Y-92446477D01*
X166186511Y-92428291D01*
X166182100Y-92410844D01*
X166176902Y-92394129D01*
X166170921Y-92378140D01*
X166164160Y-92362873D01*
X166156625Y-92348320D01*
X166148320Y-92334477D01*
X166139248Y-92321338D01*
X166129415Y-92308895D01*
X166118825Y-92297145D01*
X166107482Y-92286081D01*
X166095391Y-92275697D01*
X166082555Y-92265987D01*
X166068980Y-92256946D01*
X166054669Y-92248568D01*
X166039627Y-92240846D01*
X166023858Y-92233776D01*
X166007367Y-92227351D01*
X165990158Y-92221565D01*
X165972235Y-92216414D01*
X165934267Y-92207988D01*
X165893496Y-92202027D01*
X165849958Y-92198484D01*
X165803688Y-92197314D01*
X164251907Y-92197314D01*
X164251907Y-93126001D01*
X163870907Y-93126001D01*
X163870907Y-91899657D01*
X165823531Y-91899657D01*
X165913099Y-91901720D01*
G37*
D11*
G36*
X164318876Y-90111000D02*
G01*
X164318876Y-91294063D01*
X164875799Y-91294063D01*
X164875799Y-91494098D01*
X163521594Y-91494098D01*
X163521594Y-91294063D01*
X164078517Y-91294063D01*
X164078517Y-90111000D01*
X164318876Y-90111000D01*
G37*
G36*
X165316193Y-90606006D02*
G01*
X165873115Y-90606006D01*
X165957321Y-90609726D01*
X166034696Y-90620992D01*
X166104924Y-90639970D01*
X166167687Y-90666821D01*
X166222668Y-90701709D01*
X166269550Y-90744797D01*
X166308017Y-90796250D01*
X166337750Y-90856229D01*
X166358433Y-90924898D01*
X166369749Y-91002420D01*
X166371933Y-91059101D01*
X166367315Y-91140923D01*
X166353612Y-91213496D01*
X166331049Y-91277082D01*
X166287569Y-91348339D01*
X166229268Y-91404707D01*
X166156678Y-91446809D01*
X166093179Y-91469396D01*
X166022165Y-91484570D01*
X165943862Y-91492593D01*
X165887721Y-91494098D01*
X165075833Y-91494098D01*
X165075833Y-91294063D01*
X165316193Y-91294063D01*
X165889626Y-91294063D01*
X165961341Y-91287522D01*
X166030055Y-91263178D01*
X166080524Y-91222144D01*
X166113464Y-91165802D01*
X166129591Y-91095534D01*
X166131573Y-91055609D01*
X166125781Y-90991286D01*
X166103123Y-90922243D01*
X166062631Y-90865335D01*
X166003564Y-90824004D01*
X165939617Y-90803942D01*
X165878513Y-90798739D01*
X165316193Y-90798739D01*
X165316193Y-91294063D01*
X165075833Y-91294063D01*
X165075833Y-90111000D01*
X165316193Y-90111000D01*
X165316193Y-90606006D01*
G37*
G36*
X167126667Y-90693323D02*
G01*
X167213162Y-90687466D01*
X167287907Y-90680793D01*
X167351611Y-90672770D01*
X167420596Y-90659055D01*
X167483551Y-90635287D01*
X167534109Y-90585231D01*
X167548686Y-90522132D01*
X167548963Y-90509482D01*
X167537624Y-90441765D01*
X167494139Y-90379097D01*
X167433070Y-90341079D01*
X167368004Y-90319174D01*
X167288561Y-90304223D01*
X167219561Y-90297235D01*
X167142503Y-90293606D01*
X167086660Y-90292936D01*
X167017943Y-90294363D01*
X166951369Y-90298424D01*
X166887340Y-90304789D01*
X166806621Y-90316291D01*
X166732095Y-90330522D01*
X166664712Y-90346701D01*
X166591981Y-90368474D01*
X166524023Y-90394859D01*
X166524023Y-90194506D01*
X166594215Y-90166059D01*
X166670208Y-90143572D01*
X166740534Y-90127290D01*
X166817855Y-90113228D01*
X166900805Y-90102032D01*
X166965889Y-90095907D01*
X167032796Y-90092031D01*
X167100949Y-90090678D01*
X167183378Y-90092142D01*
X167260624Y-90096582D01*
X167332669Y-90104074D01*
X167399493Y-90114691D01*
X167489900Y-90136639D01*
X167568456Y-90166039D01*
X167635100Y-90203141D01*
X167689767Y-90248196D01*
X167732395Y-90301456D01*
X167762921Y-90363171D01*
X167781283Y-90433594D01*
X167787418Y-90512974D01*
X167782351Y-90588133D01*
X167766877Y-90652414D01*
X167729345Y-90722801D01*
X167671604Y-90777690D01*
X167614451Y-90810007D01*
X167544971Y-90835768D01*
X167462753Y-90855898D01*
X167367385Y-90871325D01*
X167296299Y-90879453D01*
X167219064Y-90886177D01*
X167135558Y-90891771D01*
X167059927Y-90897067D01*
X166993518Y-90904107D01*
X166918646Y-90916870D01*
X166845730Y-90939541D01*
X166786176Y-90978955D01*
X166754165Y-91034607D01*
X166746284Y-91095616D01*
X166759026Y-91162341D01*
X166795481Y-91215023D01*
X166852987Y-91254780D01*
X166912363Y-91278033D01*
X166982147Y-91294304D01*
X167060979Y-91304165D01*
X167125221Y-91307699D01*
X167170167Y-91308351D01*
X167243290Y-91306921D01*
X167313810Y-91302840D01*
X167381353Y-91296420D01*
X167445544Y-91287974D01*
X167525269Y-91274099D01*
X167597477Y-91257918D01*
X167661279Y-91240170D01*
X167727858Y-91216910D01*
X167760111Y-91202936D01*
X167760111Y-91408686D01*
X167697167Y-91438694D01*
X167627430Y-91461746D01*
X167560835Y-91478134D01*
X167485025Y-91492099D01*
X167400363Y-91503091D01*
X167331274Y-91509053D01*
X167257561Y-91512801D01*
X167179375Y-91514101D01*
X167092927Y-91512239D01*
X167013048Y-91506706D01*
X166939600Y-91497581D01*
X166872446Y-91484945D01*
X166783220Y-91459578D01*
X166707388Y-91426757D01*
X166644489Y-91386750D01*
X166594061Y-91339824D01*
X166555642Y-91286250D01*
X166528772Y-91226294D01*
X166512988Y-91160225D01*
X166507829Y-91088313D01*
X166512945Y-91013634D01*
X166528424Y-90948794D01*
X166565534Y-90876419D01*
X166621903Y-90818593D01*
X166677105Y-90783760D01*
X166743609Y-90755455D01*
X166821617Y-90732968D01*
X166911328Y-90715590D01*
X166977738Y-90706493D01*
X167049497Y-90699141D01*
X167126667Y-90693323D01*
G37*
G36*
X168784385Y-90092389D02*
G01*
X168849403Y-90097527D01*
X168941048Y-90111693D01*
X169025020Y-90133647D01*
X169100628Y-90163433D01*
X169167182Y-90201095D01*
X169223991Y-90246676D01*
X169270364Y-90300222D01*
X169305611Y-90361775D01*
X169329041Y-90431380D01*
X169339963Y-90509081D01*
X169340704Y-90536788D01*
X169334995Y-90616693D01*
X169318269Y-90685900D01*
X169291132Y-90745027D01*
X169239798Y-90809257D01*
X169172462Y-90858141D01*
X169112319Y-90885618D01*
X169044586Y-90905909D01*
X168969865Y-90919636D01*
X168888762Y-90927417D01*
X168801880Y-90929872D01*
X168728385Y-90927959D01*
X168658374Y-90922237D01*
X168591982Y-90912731D01*
X168529344Y-90899465D01*
X168451898Y-90875974D01*
X168381687Y-90845904D01*
X168319028Y-90809316D01*
X168264243Y-90766268D01*
X168217651Y-90716819D01*
X168211398Y-90780607D01*
X168210348Y-90824457D01*
X168213082Y-90891373D01*
X168227078Y-90980708D01*
X168252260Y-91057459D01*
X168287858Y-91122377D01*
X168333098Y-91176210D01*
X168387208Y-91219706D01*
X168449415Y-91253615D01*
X168518949Y-91278685D01*
X168595035Y-91295666D01*
X168676902Y-91305305D01*
X168763778Y-91308351D01*
X168845556Y-91305987D01*
X168924044Y-91299322D01*
X168998663Y-91288995D01*
X169068831Y-91275647D01*
X169133969Y-91259918D01*
X169207433Y-91237882D01*
X169270996Y-91214376D01*
X169293394Y-91204841D01*
X169295300Y-91410274D01*
X169236092Y-91437218D01*
X169165042Y-91461087D01*
X169100281Y-91477558D01*
X169028978Y-91491357D01*
X168951595Y-91502171D01*
X168868594Y-91509689D01*
X168802934Y-91512976D01*
X168734567Y-91514101D01*
X168647474Y-91511606D01*
X168565116Y-91504037D01*
X168487617Y-91491269D01*
X168415096Y-91473177D01*
X168347678Y-91449635D01*
X168285482Y-91420519D01*
X168228631Y-91385704D01*
X168177247Y-91345064D01*
X168131452Y-91298474D01*
X168091368Y-91245810D01*
X168057116Y-91186946D01*
X168028819Y-91121756D01*
X168006597Y-91050117D01*
X167990574Y-90971902D01*
X167980871Y-90886987D01*
X167977609Y-90795246D01*
X167981226Y-90701259D01*
X167991880Y-90615010D01*
X168009281Y-90536270D01*
X168015149Y-90518690D01*
X168261468Y-90518690D01*
X168298676Y-90576431D01*
X168344211Y-90625737D01*
X168397173Y-90666835D01*
X168456661Y-90699951D01*
X168521776Y-90725314D01*
X168591615Y-90743148D01*
X168665280Y-90753683D01*
X168741870Y-90757144D01*
X168805371Y-90755565D01*
X168880574Y-90748265D01*
X168944881Y-90734525D01*
X169009813Y-90707453D01*
X169064847Y-90659032D01*
X169094644Y-90591473D01*
X169100345Y-90534883D01*
X169088928Y-90459741D01*
X169055894Y-90399288D01*
X169003066Y-90352725D01*
X168932269Y-90319251D01*
X168863920Y-90301360D01*
X168786171Y-90290925D01*
X168722254Y-90287747D01*
X168699958Y-90287538D01*
X168623177Y-90290516D01*
X168551564Y-90299812D01*
X168485674Y-90315970D01*
X168426061Y-90339531D01*
X168361216Y-90380224D01*
X168308129Y-90434396D01*
X168267882Y-90503109D01*
X168261468Y-90518690D01*
X168015149Y-90518690D01*
X168033135Y-90464806D01*
X168063151Y-90400388D01*
X168099037Y-90342784D01*
X168140500Y-90291763D01*
X168187249Y-90247095D01*
X168238991Y-90208547D01*
X168295435Y-90175889D01*
X168356288Y-90148889D01*
X168421258Y-90127317D01*
X168490053Y-90110941D01*
X168562382Y-90099530D01*
X168637951Y-90092853D01*
X168716468Y-90090678D01*
X168784385Y-90092389D01*
G37*
G36*
X169502002Y-90179900D02*
G01*
X169564279Y-90159863D01*
X169635091Y-90142002D01*
X169712586Y-90126470D01*
X169794911Y-90113421D01*
X169858709Y-90105354D01*
X169923400Y-90098833D01*
X169988202Y-90093923D01*
X170052333Y-90090688D01*
X170135446Y-90089091D01*
X170217925Y-90090525D01*
X170295966Y-90094845D01*
X170369448Y-90102082D01*
X170438247Y-90112265D01*
X170502243Y-90125422D01*
X170588963Y-90150800D01*
X170664189Y-90183036D01*
X170727511Y-90222229D01*
X170778516Y-90268478D01*
X170816793Y-90321883D01*
X170841932Y-90382541D01*
X170853521Y-90450551D01*
X170854302Y-90474872D01*
X170848280Y-90549149D01*
X170830716Y-90612635D01*
X170793675Y-90677838D01*
X170741242Y-90728536D01*
X170674885Y-90766036D01*
X170612760Y-90787413D01*
X170543414Y-90801850D01*
X170525038Y-90804454D01*
X170588315Y-90820055D01*
X170660113Y-90849062D01*
X170721928Y-90888834D01*
X170771754Y-90939588D01*
X170807587Y-91001542D01*
X170827420Y-91074914D01*
X170830806Y-91124510D01*
X170824693Y-91196360D01*
X170806282Y-91260389D01*
X170775465Y-91316761D01*
X170732133Y-91365640D01*
X170676179Y-91407191D01*
X170607493Y-91441580D01*
X170525968Y-91468971D01*
X170431495Y-91489529D01*
X170361266Y-91499519D01*
X170285203Y-91506594D01*
X170203272Y-91510804D01*
X170115443Y-91512196D01*
X170050902Y-91511340D01*
X169966632Y-91507578D01*
X169884975Y-91500900D01*
X169806554Y-91491391D01*
X169731996Y-91479136D01*
X169661925Y-91464223D01*
X169596967Y-91446735D01*
X169523911Y-91421387D01*
X169523911Y-91219447D01*
X169584295Y-91239881D01*
X169650317Y-91257603D01*
X169721094Y-91272609D01*
X169795744Y-91284895D01*
X169873386Y-91294457D01*
X169953138Y-91301291D01*
X170034117Y-91305395D01*
X170115443Y-91306764D01*
X170204120Y-91304887D01*
X170282961Y-91299252D01*
X170352209Y-91289850D01*
X170430037Y-91271443D01*
X170491820Y-91246307D01*
X170547363Y-91205397D01*
X170583697Y-91142338D01*
X170590446Y-91091806D01*
X170580571Y-91028880D01*
X170542567Y-90970868D01*
X170489000Y-90935826D01*
X170415433Y-90911714D01*
X170342121Y-90899562D01*
X170278673Y-90894245D01*
X170207950Y-90891921D01*
X170182756Y-90891771D01*
X169663935Y-90891771D01*
X169663935Y-90713327D01*
X170200854Y-90713327D01*
X170273708Y-90712201D01*
X170339697Y-90708542D01*
X170416891Y-90698990D01*
X170481610Y-90683175D01*
X170544725Y-90653070D01*
X170593979Y-90599193D01*
X170612596Y-90537201D01*
X170614260Y-90507577D01*
X170601094Y-90442278D01*
X170562328Y-90389236D01*
X170499060Y-90347964D01*
X170431541Y-90323094D01*
X170349604Y-90305196D01*
X170279028Y-90296198D01*
X170200895Y-90290876D01*
X170115443Y-90289126D01*
X170032863Y-90290406D01*
X169949714Y-90294246D01*
X169867124Y-90300646D01*
X169786219Y-90309606D01*
X169708126Y-90321125D01*
X169633975Y-90335205D01*
X169564891Y-90351845D01*
X169502002Y-90371045D01*
X169502002Y-90179900D01*
G37*
G36*
X171836890Y-90093878D02*
G01*
X171915091Y-90103382D01*
X171988080Y-90119053D01*
X172055831Y-90140752D01*
X172118317Y-90168338D01*
X172175511Y-90201674D01*
X172227385Y-90240621D01*
X172273914Y-90285038D01*
X172315070Y-90334787D01*
X172350826Y-90389729D01*
X172381155Y-90449725D01*
X172406031Y-90514636D01*
X172425425Y-90584323D01*
X172439312Y-90658646D01*
X172447663Y-90737468D01*
X172450453Y-90820647D01*
X172447583Y-90904934D01*
X172439012Y-90983722D01*
X172424799Y-91057021D01*
X172405004Y-91124837D01*
X172379685Y-91187180D01*
X172348901Y-91244058D01*
X172292608Y-91319146D01*
X172224353Y-91381985D01*
X172144333Y-91432603D01*
X172084550Y-91459573D01*
X172019687Y-91481132D01*
X171949801Y-91497289D01*
X171874953Y-91508052D01*
X171795202Y-91513430D01*
X171753506Y-91514101D01*
X171670934Y-91511414D01*
X171593285Y-91503344D01*
X171520614Y-91489885D01*
X171452978Y-91471028D01*
X171390431Y-91446765D01*
X171333031Y-91417087D01*
X171256701Y-91362398D01*
X171192264Y-91295479D01*
X171139908Y-91216302D01*
X171111808Y-91156692D01*
X171089217Y-91091614D01*
X171072191Y-91021057D01*
X171060785Y-90945015D01*
X171055055Y-90863478D01*
X171054337Y-90820647D01*
X171291203Y-90820647D01*
X171295059Y-90909866D01*
X171306712Y-90990188D01*
X171326292Y-91061638D01*
X171353926Y-91124244D01*
X171389744Y-91178031D01*
X171450454Y-91236078D01*
X171505868Y-91269395D01*
X171569894Y-91293983D01*
X171642662Y-91309869D01*
X171724300Y-91317079D01*
X171753506Y-91317559D01*
X171837569Y-91313235D01*
X171912838Y-91300244D01*
X171979429Y-91278560D01*
X172037456Y-91248155D01*
X172101702Y-91194006D01*
X172140192Y-91143151D01*
X172170499Y-91083488D01*
X172192740Y-91014989D01*
X172207027Y-90937627D01*
X172213476Y-90851377D01*
X172213904Y-90820647D01*
X172209959Y-90727060D01*
X172198081Y-90642749D01*
X172178208Y-90567700D01*
X172150277Y-90501897D01*
X172114225Y-90445324D01*
X172069989Y-90397966D01*
X172017507Y-90359806D01*
X171956716Y-90330830D01*
X171887553Y-90311020D01*
X171809955Y-90300362D01*
X171753506Y-90298334D01*
X171669763Y-90302899D01*
X171594588Y-90316606D01*
X171527908Y-90339469D01*
X171469651Y-90371505D01*
X171419745Y-90412729D01*
X171378118Y-90463157D01*
X171344698Y-90522805D01*
X171319413Y-90591689D01*
X171302189Y-90669823D01*
X171292956Y-90757224D01*
X171291203Y-90820647D01*
X171054337Y-90820647D01*
X171057127Y-90737468D01*
X171065482Y-90658646D01*
X171079379Y-90584323D01*
X171098794Y-90514636D01*
X171123702Y-90449725D01*
X171154081Y-90389729D01*
X171189905Y-90334787D01*
X171231153Y-90285038D01*
X171277800Y-90240621D01*
X171329822Y-90201674D01*
X171387195Y-90168338D01*
X171449897Y-90140752D01*
X171517902Y-90119053D01*
X171591188Y-90103382D01*
X171669731Y-90093878D01*
X171753506Y-90090678D01*
X171836890Y-90093878D01*
G37*
G36*
X172625087Y-90179900D02*
G01*
X172687363Y-90159863D01*
X172758175Y-90142002D01*
X172835670Y-90126470D01*
X172917995Y-90113421D01*
X172981793Y-90105354D01*
X173046484Y-90098833D01*
X173111286Y-90093923D01*
X173175417Y-90090688D01*
X173258531Y-90089091D01*
X173341010Y-90090525D01*
X173419051Y-90094845D01*
X173492532Y-90102082D01*
X173561331Y-90112265D01*
X173625327Y-90125422D01*
X173712047Y-90150800D01*
X173787274Y-90183036D01*
X173850595Y-90222229D01*
X173901600Y-90268478D01*
X173939878Y-90321883D01*
X173965017Y-90382541D01*
X173976605Y-90450551D01*
X173977386Y-90474872D01*
X173971364Y-90549149D01*
X173953801Y-90612635D01*
X173916760Y-90677838D01*
X173864326Y-90728536D01*
X173797969Y-90766036D01*
X173735844Y-90787413D01*
X173666499Y-90801850D01*
X173648122Y-90804454D01*
X173711400Y-90820055D01*
X173783197Y-90849062D01*
X173845012Y-90888834D01*
X173894839Y-90939588D01*
X173930672Y-91001542D01*
X173950505Y-91074914D01*
X173953890Y-91124510D01*
X173947777Y-91196360D01*
X173929366Y-91260389D01*
X173898549Y-91316761D01*
X173855218Y-91365640D01*
X173799263Y-91407191D01*
X173730577Y-91441580D01*
X173649052Y-91468971D01*
X173554579Y-91489529D01*
X173484350Y-91499519D01*
X173408287Y-91506594D01*
X173326357Y-91510804D01*
X173238527Y-91512196D01*
X173173987Y-91511340D01*
X173089717Y-91507578D01*
X173008059Y-91500900D01*
X172929639Y-91491391D01*
X172855081Y-91479136D01*
X172785010Y-91464223D01*
X172720051Y-91446735D01*
X172646995Y-91421387D01*
X172646995Y-91219447D01*
X172707380Y-91239881D01*
X172773401Y-91257603D01*
X172844178Y-91272609D01*
X172918828Y-91284895D01*
X172996470Y-91294457D01*
X173076222Y-91301291D01*
X173157201Y-91305395D01*
X173238527Y-91306764D01*
X173327205Y-91304887D01*
X173406046Y-91299252D01*
X173475294Y-91289850D01*
X173553122Y-91271443D01*
X173614905Y-91246307D01*
X173670448Y-91205397D01*
X173706781Y-91142338D01*
X173713531Y-91091806D01*
X173703656Y-91028880D01*
X173665652Y-90970868D01*
X173612084Y-90935826D01*
X173538517Y-90911714D01*
X173465205Y-90899562D01*
X173401757Y-90894245D01*
X173331035Y-90891921D01*
X173305840Y-90891771D01*
X172787020Y-90891771D01*
X172787020Y-90713327D01*
X173323939Y-90713327D01*
X173396792Y-90712201D01*
X173462781Y-90708542D01*
X173539976Y-90698990D01*
X173604694Y-90683175D01*
X173667809Y-90653070D01*
X173717064Y-90599193D01*
X173735681Y-90537201D01*
X173737344Y-90507577D01*
X173724178Y-90442278D01*
X173685413Y-90389236D01*
X173622144Y-90347964D01*
X173554625Y-90323094D01*
X173472688Y-90305196D01*
X173402112Y-90296198D01*
X173323980Y-90290876D01*
X173238527Y-90289126D01*
X173155948Y-90290406D01*
X173072799Y-90294246D01*
X172990208Y-90300646D01*
X172909303Y-90309606D01*
X172831211Y-90321125D01*
X172757059Y-90335205D01*
X172687975Y-90351845D01*
X172625087Y-90371045D01*
X172625087Y-90179900D01*
G37*
G36*
X174959975Y-90093878D02*
G01*
X175038175Y-90103382D01*
X175111164Y-90119053D01*
X175178915Y-90140752D01*
X175241401Y-90168338D01*
X175298595Y-90201674D01*
X175350470Y-90240621D01*
X175396999Y-90285038D01*
X175438155Y-90334787D01*
X175473911Y-90389729D01*
X175504240Y-90449725D01*
X175529115Y-90514636D01*
X175548509Y-90584323D01*
X175562396Y-90658646D01*
X175570748Y-90737468D01*
X175573538Y-90820647D01*
X175570667Y-90904934D01*
X175562096Y-90983722D01*
X175547884Y-91057021D01*
X175528088Y-91124837D01*
X175502769Y-91187180D01*
X175471985Y-91244058D01*
X175415693Y-91319146D01*
X175347437Y-91381985D01*
X175267418Y-91432603D01*
X175207635Y-91459573D01*
X175142771Y-91481132D01*
X175072886Y-91497289D01*
X174998038Y-91508052D01*
X174918287Y-91513430D01*
X174876591Y-91514101D01*
X174794019Y-91511414D01*
X174716369Y-91503344D01*
X174643698Y-91489885D01*
X174576062Y-91471028D01*
X174513516Y-91446765D01*
X174456115Y-91417087D01*
X174379786Y-91362398D01*
X174315349Y-91295479D01*
X174262992Y-91216302D01*
X174234893Y-91156692D01*
X174212302Y-91091614D01*
X174195275Y-91021057D01*
X174183870Y-90945015D01*
X174178140Y-90863478D01*
X174177421Y-90820647D01*
X174414288Y-90820647D01*
X174418144Y-90909866D01*
X174429797Y-90990188D01*
X174449376Y-91061638D01*
X174477011Y-91124244D01*
X174512829Y-91178031D01*
X174573539Y-91236078D01*
X174628952Y-91269395D01*
X174692979Y-91293983D01*
X174765747Y-91309869D01*
X174847385Y-91317079D01*
X174876591Y-91317559D01*
X174960653Y-91313235D01*
X175035923Y-91300244D01*
X175102514Y-91278560D01*
X175160541Y-91248155D01*
X175224786Y-91194006D01*
X175263276Y-91143151D01*
X175293584Y-91083488D01*
X175315824Y-91014989D01*
X175330112Y-90937627D01*
X175336561Y-90851377D01*
X175336988Y-90820647D01*
X175333043Y-90727060D01*
X175321165Y-90642749D01*
X175301292Y-90567700D01*
X175273361Y-90501897D01*
X175237309Y-90445324D01*
X175193074Y-90397966D01*
X175140592Y-90359806D01*
X175079801Y-90330830D01*
X175010637Y-90311020D01*
X174933040Y-90300362D01*
X174876591Y-90298334D01*
X174792847Y-90302899D01*
X174717672Y-90316606D01*
X174650992Y-90339469D01*
X174592735Y-90371505D01*
X174542830Y-90412729D01*
X174501203Y-90463157D01*
X174467783Y-90522805D01*
X174442497Y-90591689D01*
X174425274Y-90669823D01*
X174416040Y-90757224D01*
X174414288Y-90820647D01*
X174177421Y-90820647D01*
X174180211Y-90737468D01*
X174188567Y-90658646D01*
X174202464Y-90584323D01*
X174221878Y-90514636D01*
X174246786Y-90449725D01*
X174277165Y-90389729D01*
X174312990Y-90334787D01*
X174354238Y-90285038D01*
X174400884Y-90240621D01*
X174452906Y-90201674D01*
X174510280Y-90168338D01*
X174572981Y-90140752D01*
X174640987Y-90119053D01*
X174714272Y-90103382D01*
X174792815Y-90093878D01*
X174876591Y-90090678D01*
X174959975Y-90093878D01*
G37*
%LPC*%
D12*
X171215000Y-95925000D03*
X168675000Y-95925000D03*
X166135000Y-95925000D03*
D13*
X194000000Y-87450000D03*
D14*
X194000000Y-89950000D03*
D15*
X194025000Y-82450000D03*
X159825000Y-82450000D03*
D12*
X169170000Y-82850000D03*
X166630000Y-82850000D03*
X184130000Y-82850000D03*
X186670000Y-82850000D03*
D13*
X159825000Y-89950000D03*
D16*
X159825000Y-87450000D03*
D15*
X159825000Y-94950000D03*
D12*
X187605000Y-95900000D03*
X185065000Y-95900000D03*
X182525000Y-95900000D03*
D15*
X194000000Y-94950000D03*
%LPD*%
M02*
