G04 #@! TF.GenerationSoftware,KiCad,Pcbnew,8.0.3*
G04 #@! TF.CreationDate,2024-07-19T18:12:48+03:00*
G04 #@! TF.ProjectId,B-TPS63030-Brk-01Mbr-R01,422d5450-5336-4333-9033-302d42726b2d,rev?*
G04 #@! TF.SameCoordinates,Original*
G04 #@! TF.FileFunction,Copper,L2,Bot*
G04 #@! TF.FilePolarity,Positive*
%FSLAX46Y46*%
G04 Gerber Fmt 4.6, Leading zero omitted, Abs format (unit mm)*
G04 Created by KiCad (PCBNEW 8.0.3) date 2024-07-19 18:12:48*
%MOMM*%
%LPD*%
G01*
G04 APERTURE LIST*
G04 Aperture macros list*
%AMRoundRect*
0 Rectangle with rounded corners*
0 $1 Rounding radius*
0 $2 $3 $4 $5 $6 $7 $8 $9 X,Y pos of 4 corners*
0 Add a 4 corners polygon primitive as box body*
4,1,4,$2,$3,$4,$5,$6,$7,$8,$9,$2,$3,0*
0 Add four circle primitives for the rounded corners*
1,1,$1+$1,$2,$3*
1,1,$1+$1,$4,$5*
1,1,$1+$1,$6,$7*
1,1,$1+$1,$8,$9*
0 Add four rect primitives between the rounded corners*
20,1,$1+$1,$2,$3,$4,$5,0*
20,1,$1+$1,$4,$5,$6,$7,0*
20,1,$1+$1,$6,$7,$8,$9,0*
20,1,$1+$1,$8,$9,$2,$3,0*%
G04 Aperture macros list end*
G04 #@! TA.AperFunction,ComponentPad*
%ADD10C,1.879600*%
G04 #@! TD*
G04 #@! TA.AperFunction,ComponentPad*
%ADD11O,2.000000X1.700000*%
G04 #@! TD*
G04 #@! TA.AperFunction,ComponentPad*
%ADD12RoundRect,0.250000X-0.750000X0.600000X-0.750000X-0.600000X0.750000X-0.600000X0.750000X0.600000X0*%
G04 #@! TD*
G04 #@! TA.AperFunction,ComponentPad*
%ADD13RoundRect,0.250000X-1.125000X-1.125000X1.125000X-1.125000X1.125000X1.125000X-1.125000X1.125000X0*%
G04 #@! TD*
G04 #@! TA.AperFunction,ComponentPad*
%ADD14RoundRect,0.250000X0.750000X-0.600000X0.750000X0.600000X-0.750000X0.600000X-0.750000X-0.600000X0*%
G04 #@! TD*
G04 #@! TA.AperFunction,ViaPad*
%ADD15C,0.800000*%
G04 #@! TD*
G04 #@! TA.AperFunction,Conductor*
%ADD16C,0.250000*%
G04 #@! TD*
G04 #@! TA.AperFunction,Conductor*
%ADD17C,0.849000*%
G04 #@! TD*
G04 APERTURE END LIST*
D10*
X171215000Y-95925000D03*
X168675000Y-95925000D03*
X166135000Y-95925000D03*
D11*
X194000000Y-87450000D03*
D12*
X194000000Y-89950000D03*
D13*
X194025000Y-82450000D03*
X159825000Y-82450000D03*
D10*
X169170000Y-82850000D03*
X166630000Y-82850000D03*
X184130000Y-82850000D03*
X186670000Y-82850000D03*
D11*
X159825000Y-89950000D03*
D14*
X159825000Y-87450000D03*
D13*
X159825000Y-94950000D03*
D10*
X187605000Y-95900000D03*
X185065000Y-95900000D03*
X182525000Y-95900000D03*
D13*
X194000000Y-94950000D03*
D15*
X168220000Y-89530000D03*
X173550000Y-92950000D03*
X173500000Y-82350000D03*
X177425000Y-89875000D03*
X176700000Y-83975000D03*
X179875000Y-82350000D03*
X182200000Y-90150000D03*
X171770000Y-90790000D03*
X178175000Y-94975000D03*
X176050000Y-85375000D03*
X176200000Y-89850000D03*
X176700000Y-82525000D03*
X179850000Y-84450000D03*
X173475000Y-84450000D03*
X181100000Y-86600000D03*
X179850000Y-83400000D03*
X167500000Y-93950000D03*
X176800000Y-86450000D03*
X172675000Y-86650000D03*
X173475000Y-83400000D03*
X182375000Y-86600000D03*
X177450000Y-85375000D03*
X171350000Y-86650000D03*
X183150000Y-90920000D03*
X184065000Y-88650000D03*
X183160000Y-91840000D03*
X183190000Y-88650000D03*
X182365000Y-88625000D03*
D16*
X168220000Y-90820000D02*
X170350000Y-92950000D01*
X170350000Y-92950000D02*
X173550000Y-92950000D01*
D17*
X159825000Y-94950000D02*
X159825000Y-89950000D01*
D16*
X168220000Y-89530000D02*
X168220000Y-90820000D01*
X183160000Y-91840000D02*
X183160000Y-90930000D01*
X183215000Y-88625000D02*
X182365000Y-88625000D01*
X183025000Y-88815000D02*
X183190000Y-88650000D01*
X183160000Y-90910000D02*
X183160000Y-88815000D01*
X183160000Y-90930000D02*
X183150000Y-90920000D01*
X184015000Y-88625000D02*
X183265000Y-88625000D01*
X183240000Y-88900000D02*
X183215000Y-88925000D01*
D17*
X194025000Y-82275000D02*
X194025000Y-87425000D01*
D16*
X183150000Y-90920000D02*
X183160000Y-90910000D01*
X184040000Y-88925000D02*
X183990000Y-88900000D01*
X183215000Y-88925000D02*
X183190000Y-88900000D01*
D17*
X194000000Y-82300000D02*
X194025000Y-82275000D01*
G04 #@! TA.AperFunction,Conductor*
G36*
X183469552Y-88323704D02*
G01*
X183977113Y-88497293D01*
X183983832Y-88503212D01*
X183985027Y-88508363D01*
X183985027Y-88742222D01*
X183981600Y-88750495D01*
X183977857Y-88753010D01*
X183353887Y-89015010D01*
X183344932Y-89015053D01*
X183338571Y-89008754D01*
X183190875Y-88654499D01*
X183190855Y-88645550D01*
X183338856Y-88290561D01*
X183345203Y-88284244D01*
X183353441Y-88283994D01*
X183469552Y-88323704D01*
G37*
G04 #@! TD.AperFunction*
G04 #@! TA.AperFunction,Conductor*
G36*
X173395294Y-92584728D02*
G01*
X173401280Y-92590890D01*
X173549123Y-92945498D01*
X173549144Y-92954452D01*
X173549123Y-92954502D01*
X173401280Y-93309109D01*
X173394933Y-93315427D01*
X173386344Y-93315551D01*
X172757563Y-93077858D01*
X172751036Y-93071727D01*
X172750000Y-93066914D01*
X172750000Y-92833085D01*
X172753427Y-92824812D01*
X172757563Y-92822141D01*
X173386345Y-92584448D01*
X173395294Y-92584728D01*
G37*
G04 #@! TD.AperFunction*
G04 #@! TA.AperFunction,Conductor*
G36*
X183548647Y-88798526D02*
G01*
X183554965Y-88804873D01*
X183554944Y-88813827D01*
X183554900Y-88813932D01*
X183288038Y-89436940D01*
X183281630Y-89443195D01*
X183277283Y-89444033D01*
X183043422Y-89444033D01*
X183035149Y-89440606D01*
X183032327Y-89436047D01*
X182971116Y-89253185D01*
X182823903Y-88813394D01*
X182824527Y-88804463D01*
X182830494Y-88798884D01*
X183185500Y-88650875D01*
X183194449Y-88650855D01*
X183548647Y-88798526D01*
G37*
G04 #@! TD.AperFunction*
G04 #@! TA.AperFunction,Conductor*
G36*
X175500956Y-78820146D02*
G01*
X175546711Y-78872950D01*
X175556428Y-78905303D01*
X175556744Y-78907327D01*
X175556746Y-78907334D01*
X175625288Y-79113417D01*
X175727064Y-79305281D01*
X175727068Y-79305288D01*
X175835656Y-79446848D01*
X175859258Y-79477617D01*
X175859265Y-79477624D01*
X176018192Y-79625629D01*
X176018194Y-79625630D01*
X176018196Y-79625631D01*
X176018200Y-79625635D01*
X176199490Y-79745240D01*
X176199494Y-79745241D01*
X176199496Y-79745243D01*
X176266857Y-79775047D01*
X176398107Y-79833121D01*
X176608549Y-79886843D01*
X176824986Y-79904917D01*
X177041423Y-79886843D01*
X177212606Y-79843142D01*
X177251862Y-79833122D01*
X177251863Y-79833121D01*
X177251865Y-79833121D01*
X177450482Y-79745241D01*
X177631772Y-79625635D01*
X177631776Y-79625631D01*
X177631779Y-79625629D01*
X177769389Y-79497476D01*
X177790714Y-79477617D01*
X177922904Y-79305288D01*
X178024682Y-79113420D01*
X178093227Y-78907330D01*
X178093544Y-78905298D01*
X178093904Y-78904535D01*
X178094439Y-78902333D01*
X178094891Y-78902442D01*
X178123351Y-78842108D01*
X178182591Y-78805062D01*
X178216055Y-78800461D01*
X195433924Y-78800461D01*
X195500963Y-78820146D01*
X195546718Y-78872950D01*
X195553932Y-78897007D01*
X195554723Y-78896820D01*
X195555855Y-78901581D01*
X195618976Y-79097178D01*
X195618984Y-79097198D01*
X195712051Y-79280459D01*
X195818229Y-79426810D01*
X195832761Y-79446841D01*
X195978104Y-79592192D01*
X196144458Y-79712896D01*
X196144478Y-79712910D01*
X196208130Y-79745239D01*
X196327743Y-79805991D01*
X196523357Y-79869130D01*
X196523360Y-79869130D01*
X196528100Y-79870258D01*
X196527609Y-79872320D01*
X196582796Y-79898320D01*
X196619869Y-79957542D01*
X196624485Y-79991061D01*
X196624485Y-97208878D01*
X196604800Y-97275917D01*
X196551996Y-97321672D01*
X196527938Y-97328904D01*
X196528122Y-97329678D01*
X196523365Y-97330809D01*
X196327749Y-97393945D01*
X196327735Y-97393951D01*
X196144486Y-97487019D01*
X196144476Y-97487025D01*
X195978099Y-97607735D01*
X195832760Y-97753071D01*
X195832753Y-97753079D01*
X195712041Y-97919448D01*
X195712036Y-97919456D01*
X195618960Y-98102712D01*
X195618958Y-98102716D01*
X195555818Y-98298329D01*
X195554689Y-98303077D01*
X195552632Y-98302587D01*
X195526611Y-98357790D01*
X195467381Y-98394852D01*
X195433886Y-98399461D01*
X178216056Y-98399461D01*
X178149017Y-98379776D01*
X178103262Y-98326972D01*
X178093545Y-98294619D01*
X178093228Y-98292594D01*
X178093228Y-98292592D01*
X178024683Y-98086501D01*
X177922906Y-97894633D01*
X177863471Y-97817151D01*
X177790721Y-97722310D01*
X177790707Y-97722296D01*
X177631780Y-97574291D01*
X177631776Y-97574288D01*
X177450485Y-97454681D01*
X177450476Y-97454676D01*
X177251867Y-97366800D01*
X177251865Y-97366799D01*
X177041423Y-97313077D01*
X177041422Y-97313076D01*
X177041419Y-97313076D01*
X176849100Y-97297016D01*
X176824986Y-97295003D01*
X176824985Y-97295003D01*
X176608551Y-97313076D01*
X176398105Y-97366799D01*
X176199487Y-97454681D01*
X176199481Y-97454684D01*
X176018195Y-97574288D01*
X176018191Y-97574291D01*
X175859264Y-97722296D01*
X175859257Y-97722303D01*
X175752755Y-97861145D01*
X175727066Y-97894634D01*
X175727063Y-97894640D01*
X175625288Y-98086501D01*
X175556745Y-98292587D01*
X175556744Y-98292591D01*
X175556427Y-98294622D01*
X175556066Y-98295386D01*
X175555532Y-98297589D01*
X175555079Y-98297479D01*
X175526620Y-98357814D01*
X175467380Y-98394860D01*
X175433916Y-98399461D01*
X158216129Y-98399461D01*
X158149090Y-98379776D01*
X158103335Y-98326972D01*
X158096105Y-98302876D01*
X158095324Y-98303062D01*
X158094196Y-98298320D01*
X158031058Y-98102717D01*
X158031053Y-98102701D01*
X158031052Y-98102699D01*
X158031051Y-98102696D01*
X157937968Y-97919435D01*
X157937962Y-97919424D01*
X157817248Y-97753057D01*
X157817246Y-97753054D01*
X157671890Y-97607707D01*
X157505509Y-97486996D01*
X157505502Y-97486992D01*
X157505497Y-97486989D01*
X157322236Y-97393922D01*
X157322232Y-97393920D01*
X157322231Y-97393920D01*
X157126609Y-97330787D01*
X157126602Y-97330785D01*
X157121859Y-97329658D01*
X157122348Y-97327597D01*
X157067153Y-97301579D01*
X157030094Y-97242347D01*
X157025485Y-97208856D01*
X157025485Y-93770730D01*
X158249500Y-93770730D01*
X158249500Y-96129269D01*
X158252353Y-96159699D01*
X158252353Y-96159701D01*
X158297206Y-96287880D01*
X158297207Y-96287882D01*
X158377850Y-96397150D01*
X158487118Y-96477793D01*
X158529845Y-96492744D01*
X158615299Y-96522646D01*
X158645730Y-96525500D01*
X158645734Y-96525500D01*
X161004270Y-96525500D01*
X161034699Y-96522646D01*
X161034701Y-96522646D01*
X161098790Y-96500219D01*
X161162882Y-96477793D01*
X161272150Y-96397150D01*
X161352793Y-96287882D01*
X161379373Y-96211920D01*
X161397646Y-96159701D01*
X161397646Y-96159699D01*
X161400500Y-96129269D01*
X161400500Y-95924999D01*
X164989815Y-95924999D01*
X164989815Y-95925000D01*
X165009313Y-96135426D01*
X165009314Y-96135429D01*
X165067144Y-96338684D01*
X165067147Y-96338690D01*
X165161344Y-96527862D01*
X165288699Y-96696508D01*
X165417446Y-96813875D01*
X165444872Y-96838877D01*
X165624547Y-96950128D01*
X165821605Y-97026468D01*
X166029336Y-97065300D01*
X166029338Y-97065300D01*
X166240662Y-97065300D01*
X166240664Y-97065300D01*
X166448395Y-97026468D01*
X166645453Y-96950128D01*
X166825128Y-96838877D01*
X166981302Y-96696506D01*
X167108656Y-96527862D01*
X167202853Y-96338689D01*
X167202853Y-96338686D01*
X167202855Y-96338684D01*
X167260685Y-96135429D01*
X167260686Y-96135426D01*
X167280185Y-95925000D01*
X167280185Y-95924999D01*
X167529815Y-95924999D01*
X167529815Y-95925000D01*
X167549313Y-96135426D01*
X167549314Y-96135429D01*
X167607144Y-96338684D01*
X167607147Y-96338690D01*
X167701344Y-96527862D01*
X167828699Y-96696508D01*
X167957446Y-96813875D01*
X167984872Y-96838877D01*
X168164547Y-96950128D01*
X168361605Y-97026468D01*
X168569336Y-97065300D01*
X168569338Y-97065300D01*
X168780662Y-97065300D01*
X168780664Y-97065300D01*
X168988395Y-97026468D01*
X169185453Y-96950128D01*
X169365128Y-96838877D01*
X169521302Y-96696506D01*
X169648656Y-96527862D01*
X169742853Y-96338689D01*
X169742853Y-96338686D01*
X169742855Y-96338684D01*
X169800685Y-96135429D01*
X169800686Y-96135426D01*
X169820185Y-95925000D01*
X169820185Y-95924999D01*
X170070317Y-95924999D01*
X170070317Y-95925000D01*
X170089806Y-96135334D01*
X170147614Y-96338504D01*
X170147619Y-96338517D01*
X170241771Y-96527598D01*
X170249118Y-96537327D01*
X170725504Y-96060941D01*
X170741619Y-96121081D01*
X170808498Y-96236920D01*
X170903080Y-96331502D01*
X171018919Y-96398381D01*
X171079057Y-96414494D01*
X170605401Y-96888150D01*
X170704770Y-96949677D01*
X170704771Y-96949678D01*
X170901740Y-97025983D01*
X171109384Y-97064800D01*
X171320616Y-97064800D01*
X171528259Y-97025983D01*
X171725228Y-96949678D01*
X171725232Y-96949676D01*
X171824596Y-96888151D01*
X171824596Y-96888150D01*
X171350942Y-96414494D01*
X171411081Y-96398381D01*
X171526920Y-96331502D01*
X171621502Y-96236920D01*
X171688381Y-96121081D01*
X171704495Y-96060941D01*
X172180880Y-96537326D01*
X172180881Y-96537326D01*
X172188228Y-96527598D01*
X172282380Y-96338517D01*
X172282385Y-96338504D01*
X172340193Y-96135334D01*
X172359683Y-95925000D01*
X172359683Y-95924999D01*
X172357366Y-95899999D01*
X181379815Y-95899999D01*
X181379815Y-95900000D01*
X181399313Y-96110426D01*
X181399314Y-96110429D01*
X181457144Y-96313684D01*
X181457147Y-96313690D01*
X181551344Y-96502862D01*
X181678699Y-96671508D01*
X181813050Y-96793983D01*
X181834872Y-96813877D01*
X182014547Y-96925128D01*
X182211605Y-97001468D01*
X182419336Y-97040300D01*
X182419338Y-97040300D01*
X182630662Y-97040300D01*
X182630664Y-97040300D01*
X182838395Y-97001468D01*
X183035453Y-96925128D01*
X183215128Y-96813877D01*
X183371302Y-96671506D01*
X183498656Y-96502862D01*
X183592853Y-96313689D01*
X183592853Y-96313686D01*
X183592855Y-96313684D01*
X183645326Y-96129266D01*
X183650686Y-96110427D01*
X183670185Y-95900000D01*
X183670185Y-95899999D01*
X183919815Y-95899999D01*
X183919815Y-95900000D01*
X183939313Y-96110426D01*
X183939314Y-96110429D01*
X183997144Y-96313684D01*
X183997147Y-96313690D01*
X184091344Y-96502862D01*
X184218699Y-96671508D01*
X184353050Y-96793983D01*
X184374872Y-96813877D01*
X184554547Y-96925128D01*
X184751605Y-97001468D01*
X184959336Y-97040300D01*
X184959338Y-97040300D01*
X185170662Y-97040300D01*
X185170664Y-97040300D01*
X185378395Y-97001468D01*
X185575453Y-96925128D01*
X185755128Y-96813877D01*
X185911302Y-96671506D01*
X186038656Y-96502862D01*
X186132853Y-96313689D01*
X186132853Y-96313686D01*
X186132855Y-96313684D01*
X186185326Y-96129266D01*
X186190686Y-96110427D01*
X186210185Y-95900000D01*
X186210185Y-95899999D01*
X186460317Y-95899999D01*
X186460317Y-95900000D01*
X186479806Y-96110334D01*
X186537614Y-96313504D01*
X186537619Y-96313517D01*
X186631771Y-96502598D01*
X186639118Y-96512327D01*
X187115504Y-96035941D01*
X187131619Y-96096081D01*
X187198498Y-96211920D01*
X187293080Y-96306502D01*
X187408919Y-96373381D01*
X187469057Y-96389494D01*
X186995401Y-96863150D01*
X187094770Y-96924677D01*
X187094771Y-96924678D01*
X187291740Y-97000983D01*
X187499384Y-97039800D01*
X187710616Y-97039800D01*
X187918259Y-97000983D01*
X188115228Y-96924678D01*
X188115232Y-96924676D01*
X188214596Y-96863151D01*
X188214596Y-96863150D01*
X187740942Y-96389494D01*
X187801081Y-96373381D01*
X187916920Y-96306502D01*
X188011502Y-96211920D01*
X188078381Y-96096081D01*
X188094495Y-96035941D01*
X188570880Y-96512326D01*
X188570881Y-96512326D01*
X188578228Y-96502598D01*
X188672380Y-96313517D01*
X188672385Y-96313504D01*
X188730193Y-96110334D01*
X188749683Y-95900000D01*
X188749683Y-95899999D01*
X188730193Y-95689665D01*
X188672385Y-95486495D01*
X188672380Y-95486482D01*
X188578232Y-95297407D01*
X188578227Y-95297399D01*
X188570880Y-95287671D01*
X188094494Y-95764057D01*
X188078381Y-95703919D01*
X188011502Y-95588080D01*
X187916920Y-95493498D01*
X187801081Y-95426619D01*
X187740941Y-95410504D01*
X188214597Y-94936848D01*
X188115227Y-94875321D01*
X188115226Y-94875320D01*
X187918259Y-94799016D01*
X187710616Y-94760200D01*
X187499384Y-94760200D01*
X187291740Y-94799016D01*
X187094772Y-94875321D01*
X187094765Y-94875325D01*
X186995402Y-94936847D01*
X186995401Y-94936848D01*
X187469058Y-95410504D01*
X187408919Y-95426619D01*
X187293080Y-95493498D01*
X187198498Y-95588080D01*
X187131619Y-95703919D01*
X187115504Y-95764058D01*
X186639118Y-95287672D01*
X186639117Y-95287672D01*
X186631770Y-95297402D01*
X186537619Y-95486482D01*
X186537614Y-95486495D01*
X186479806Y-95689665D01*
X186460317Y-95899999D01*
X186210185Y-95899999D01*
X186190686Y-95689573D01*
X186149963Y-95546446D01*
X186132855Y-95486315D01*
X186132852Y-95486309D01*
X186098340Y-95417000D01*
X186038656Y-95297138D01*
X185911302Y-95128494D01*
X185911300Y-95128491D01*
X185755129Y-94986124D01*
X185755128Y-94986123D01*
X185575453Y-94874872D01*
X185575452Y-94874871D01*
X185379644Y-94799016D01*
X185378395Y-94798532D01*
X185170664Y-94759700D01*
X184959336Y-94759700D01*
X184751605Y-94798532D01*
X184751602Y-94798532D01*
X184751602Y-94798533D01*
X184554547Y-94874871D01*
X184554546Y-94874872D01*
X184374870Y-94986124D01*
X184218699Y-95128491D01*
X184091344Y-95297137D01*
X183997147Y-95486309D01*
X183997144Y-95486315D01*
X183939314Y-95689570D01*
X183939313Y-95689573D01*
X183919815Y-95899999D01*
X183670185Y-95899999D01*
X183650686Y-95689573D01*
X183609963Y-95546446D01*
X183592855Y-95486315D01*
X183592852Y-95486309D01*
X183558340Y-95417000D01*
X183498656Y-95297138D01*
X183371302Y-95128494D01*
X183371300Y-95128491D01*
X183215129Y-94986124D01*
X183215128Y-94986123D01*
X183035453Y-94874872D01*
X183035452Y-94874871D01*
X182839644Y-94799016D01*
X182838395Y-94798532D01*
X182630664Y-94759700D01*
X182419336Y-94759700D01*
X182211605Y-94798532D01*
X182211602Y-94798532D01*
X182211602Y-94798533D01*
X182014547Y-94874871D01*
X182014546Y-94874872D01*
X181834870Y-94986124D01*
X181678699Y-95128491D01*
X181551344Y-95297137D01*
X181457147Y-95486309D01*
X181457144Y-95486315D01*
X181399314Y-95689570D01*
X181399313Y-95689573D01*
X181379815Y-95899999D01*
X172357366Y-95899999D01*
X172340193Y-95714665D01*
X172282385Y-95511495D01*
X172282380Y-95511482D01*
X172188232Y-95322407D01*
X172188227Y-95322399D01*
X172180880Y-95312671D01*
X171704494Y-95789057D01*
X171688381Y-95728919D01*
X171621502Y-95613080D01*
X171526920Y-95518498D01*
X171411081Y-95451619D01*
X171350941Y-95435504D01*
X171824597Y-94961848D01*
X171725227Y-94900321D01*
X171725226Y-94900320D01*
X171528259Y-94824016D01*
X171320616Y-94785200D01*
X171109384Y-94785200D01*
X170901740Y-94824016D01*
X170704772Y-94900321D01*
X170704765Y-94900325D01*
X170605402Y-94961847D01*
X170605401Y-94961848D01*
X171079058Y-95435504D01*
X171018919Y-95451619D01*
X170903080Y-95518498D01*
X170808498Y-95613080D01*
X170741619Y-95728919D01*
X170725504Y-95789058D01*
X170249118Y-95312672D01*
X170249117Y-95312672D01*
X170241770Y-95322402D01*
X170147619Y-95511482D01*
X170147614Y-95511495D01*
X170089806Y-95714665D01*
X170070317Y-95924999D01*
X169820185Y-95924999D01*
X169800686Y-95714573D01*
X169800685Y-95714570D01*
X169742855Y-95511315D01*
X169742852Y-95511309D01*
X169700681Y-95426619D01*
X169648656Y-95322138D01*
X169521302Y-95153494D01*
X169521300Y-95153491D01*
X169365129Y-95011124D01*
X169365128Y-95011123D01*
X169185453Y-94899872D01*
X169185452Y-94899871D01*
X168989644Y-94824016D01*
X168988395Y-94823532D01*
X168780664Y-94784700D01*
X168569336Y-94784700D01*
X168361605Y-94823532D01*
X168361602Y-94823532D01*
X168361602Y-94823533D01*
X168164547Y-94899871D01*
X168164546Y-94899872D01*
X167984870Y-95011124D01*
X167828699Y-95153491D01*
X167701344Y-95322137D01*
X167607147Y-95511309D01*
X167607144Y-95511315D01*
X167549314Y-95714570D01*
X167549313Y-95714573D01*
X167529815Y-95924999D01*
X167280185Y-95924999D01*
X167260686Y-95714573D01*
X167260685Y-95714570D01*
X167202855Y-95511315D01*
X167202852Y-95511309D01*
X167160681Y-95426619D01*
X167108656Y-95322138D01*
X166981302Y-95153494D01*
X166981300Y-95153491D01*
X166825129Y-95011124D01*
X166825128Y-95011123D01*
X166645453Y-94899872D01*
X166645452Y-94899871D01*
X166449644Y-94824016D01*
X166448395Y-94823532D01*
X166240664Y-94784700D01*
X166029336Y-94784700D01*
X165821605Y-94823532D01*
X165821602Y-94823532D01*
X165821602Y-94823533D01*
X165624547Y-94899871D01*
X165624546Y-94899872D01*
X165444870Y-95011124D01*
X165288699Y-95153491D01*
X165161344Y-95322137D01*
X165067147Y-95511309D01*
X165067144Y-95511315D01*
X165009314Y-95714570D01*
X165009313Y-95714573D01*
X164989815Y-95924999D01*
X161400500Y-95924999D01*
X161400500Y-93770730D01*
X161397646Y-93740300D01*
X161397646Y-93740298D01*
X161352793Y-93612119D01*
X161352792Y-93612117D01*
X161272150Y-93502850D01*
X161162882Y-93422207D01*
X161162880Y-93422206D01*
X161034700Y-93377353D01*
X161007316Y-93374785D01*
X160942407Y-93348926D01*
X160911423Y-93313178D01*
X160889739Y-93275500D01*
X160702413Y-92949998D01*
X160466527Y-92540117D01*
X160450000Y-92478266D01*
X160450000Y-91719317D01*
X160456643Y-91679275D01*
X160841344Y-90551785D01*
X160855591Y-90522950D01*
X160905941Y-90447598D01*
X160985130Y-90256420D01*
X161025500Y-90053465D01*
X161025500Y-89846535D01*
X160985130Y-89643580D01*
X160938083Y-89529998D01*
X167614318Y-89529998D01*
X167614318Y-89530001D01*
X167634955Y-89686760D01*
X167634957Y-89686765D01*
X167695461Y-89832836D01*
X167695464Y-89832841D01*
X167706086Y-89846684D01*
X167719998Y-89869564D01*
X167882788Y-90217039D01*
X167894500Y-90269645D01*
X167894500Y-90862852D01*
X167916682Y-90945640D01*
X167938108Y-90982750D01*
X167959535Y-91019862D01*
X170150138Y-93210465D01*
X170224361Y-93253318D01*
X170307147Y-93275500D01*
X172676577Y-93275500D01*
X172720421Y-93283510D01*
X173313679Y-93507775D01*
X173324027Y-93509588D01*
X173350077Y-93517166D01*
X173364662Y-93523207D01*
X173393238Y-93535044D01*
X173529361Y-93552964D01*
X173549999Y-93555682D01*
X173550000Y-93555682D01*
X173550001Y-93555682D01*
X173602254Y-93548802D01*
X173706762Y-93535044D01*
X173852841Y-93474536D01*
X173978282Y-93378282D01*
X174074536Y-93252841D01*
X174135044Y-93106762D01*
X174155682Y-92950000D01*
X174135044Y-92793238D01*
X174074536Y-92647159D01*
X173978282Y-92521718D01*
X173852841Y-92425464D01*
X173706762Y-92364956D01*
X173706760Y-92364955D01*
X173550001Y-92344318D01*
X173549999Y-92344318D01*
X173393239Y-92364955D01*
X173393234Y-92364957D01*
X173349735Y-92382975D01*
X173322661Y-92390727D01*
X173313680Y-92392224D01*
X173313674Y-92392226D01*
X173313671Y-92392227D01*
X172720420Y-92616489D01*
X172676574Y-92624500D01*
X170536189Y-92624500D01*
X170469150Y-92604815D01*
X170448508Y-92588181D01*
X168581819Y-90721492D01*
X168548334Y-90660169D01*
X168545500Y-90633811D01*
X168545500Y-90276012D01*
X168555386Y-90227495D01*
X168690485Y-89909737D01*
X168706215Y-89882780D01*
X168744536Y-89832841D01*
X168805044Y-89686762D01*
X168825682Y-89530000D01*
X168824800Y-89523303D01*
X168805044Y-89373239D01*
X168805044Y-89373238D01*
X168744536Y-89227159D01*
X168648282Y-89101718D01*
X168522841Y-89005464D01*
X168376762Y-88944956D01*
X168376760Y-88944955D01*
X168220001Y-88924318D01*
X168219999Y-88924318D01*
X168063239Y-88944955D01*
X168063237Y-88944956D01*
X167917160Y-89005463D01*
X167791718Y-89101718D01*
X167695463Y-89227160D01*
X167634956Y-89373237D01*
X167634955Y-89373239D01*
X167614318Y-89529998D01*
X160938083Y-89529998D01*
X160905941Y-89452402D01*
X160790977Y-89280345D01*
X160790975Y-89280342D01*
X160644657Y-89134024D01*
X160558626Y-89076541D01*
X160472598Y-89019059D01*
X160281420Y-88939870D01*
X160281412Y-88939868D01*
X160078469Y-88899500D01*
X160078465Y-88899500D01*
X159571535Y-88899500D01*
X159571530Y-88899500D01*
X159368587Y-88939868D01*
X159368579Y-88939870D01*
X159177403Y-89019058D01*
X159005342Y-89134024D01*
X158859024Y-89280342D01*
X158744058Y-89452403D01*
X158664870Y-89643579D01*
X158664868Y-89643587D01*
X158624500Y-89846530D01*
X158624500Y-90053469D01*
X158664868Y-90256412D01*
X158664870Y-90256420D01*
X158744058Y-90447597D01*
X158744059Y-90447598D01*
X158794401Y-90522941D01*
X158808653Y-90551783D01*
X159193356Y-91679275D01*
X159193357Y-91679276D01*
X159200000Y-91719318D01*
X159200000Y-92478265D01*
X159183473Y-92540116D01*
X158738576Y-93313179D01*
X158688076Y-93361465D01*
X158642680Y-93374786D01*
X158615300Y-93377353D01*
X158615298Y-93377353D01*
X158487119Y-93422206D01*
X158487117Y-93422207D01*
X158377850Y-93502850D01*
X158297207Y-93612117D01*
X158297206Y-93612119D01*
X158252353Y-93740298D01*
X158252353Y-93740300D01*
X158249500Y-93770730D01*
X157025485Y-93770730D01*
X157025485Y-88624998D01*
X181759318Y-88624998D01*
X181759318Y-88625001D01*
X181779955Y-88781760D01*
X181779956Y-88781762D01*
X181790310Y-88806760D01*
X181840464Y-88927841D01*
X181936718Y-89053282D01*
X182062159Y-89149536D01*
X182208238Y-89210044D01*
X182286619Y-89220363D01*
X182364999Y-89230682D01*
X182365000Y-89230682D01*
X182365001Y-89230682D01*
X182391752Y-89227160D01*
X182521762Y-89210044D01*
X182565268Y-89192022D01*
X182592344Y-89184270D01*
X182593887Y-89184013D01*
X182601320Y-89182775D01*
X182601324Y-89182773D01*
X182607201Y-89181190D01*
X182607962Y-89184013D01*
X182665082Y-89179510D01*
X182726648Y-89212548D01*
X182757194Y-89261505D01*
X182773057Y-89308895D01*
X182773058Y-89308899D01*
X182776244Y-89318416D01*
X182828087Y-89473293D01*
X182834500Y-89512652D01*
X182834500Y-90046646D01*
X182825841Y-90092170D01*
X182593512Y-90680801D01*
X182593511Y-90680804D01*
X182591311Y-90692604D01*
X182583975Y-90717317D01*
X182564956Y-90763234D01*
X182544318Y-90919998D01*
X182544318Y-90920001D01*
X182564956Y-91076761D01*
X182584076Y-91122924D01*
X182591518Y-91148216D01*
X182593511Y-91159192D01*
X182593512Y-91159194D01*
X182666198Y-91343356D01*
X182672500Y-91412941D01*
X182666847Y-91432725D01*
X182602223Y-91603681D01*
X182602223Y-91603684D01*
X182600408Y-91614038D01*
X182592833Y-91640077D01*
X182574956Y-91683236D01*
X182554318Y-91839998D01*
X182554318Y-91840001D01*
X182574955Y-91996760D01*
X182574956Y-91996762D01*
X182635464Y-92142841D01*
X182731718Y-92268282D01*
X182857159Y-92364536D01*
X183003238Y-92425044D01*
X183081619Y-92435363D01*
X183159999Y-92445682D01*
X183160000Y-92445682D01*
X183160001Y-92445682D01*
X183212254Y-92438802D01*
X183316762Y-92425044D01*
X183462841Y-92364536D01*
X183588282Y-92268282D01*
X183684536Y-92142841D01*
X183745044Y-91996762D01*
X183765682Y-91840000D01*
X183745044Y-91683238D01*
X183727021Y-91639727D01*
X183719271Y-91612659D01*
X183717775Y-91603679D01*
X183646102Y-91414080D01*
X183640810Y-91344415D01*
X183645554Y-91327870D01*
X183708858Y-91153808D01*
X183710344Y-91144827D01*
X183718118Y-91117621D01*
X183735044Y-91076762D01*
X183755682Y-90920000D01*
X183735044Y-90763238D01*
X183717963Y-90722001D01*
X183709962Y-90693377D01*
X183709843Y-90692604D01*
X183708858Y-90686191D01*
X183552556Y-90256412D01*
X183492967Y-90092560D01*
X183485500Y-90050180D01*
X183485500Y-89523303D01*
X183495517Y-89474479D01*
X183594763Y-89242781D01*
X183639253Y-89188909D01*
X183705808Y-89167641D01*
X183756753Y-89177276D01*
X183821574Y-89204494D01*
X183825940Y-89206267D01*
X183825970Y-89206279D01*
X183825998Y-89206290D01*
X183837255Y-89208435D01*
X183861493Y-89215681D01*
X183908238Y-89235044D01*
X183969135Y-89243060D01*
X183977776Y-89244511D01*
X184016726Y-89252483D01*
X184021347Y-89252205D01*
X184044954Y-89253042D01*
X184065000Y-89255682D01*
X184221762Y-89235044D01*
X184367841Y-89174536D01*
X184493282Y-89078282D01*
X184589536Y-88952841D01*
X184650044Y-88806762D01*
X184670682Y-88650000D01*
X184667390Y-88624998D01*
X184650044Y-88493239D01*
X184650044Y-88493238D01*
X184589536Y-88347159D01*
X184493282Y-88221718D01*
X184367841Y-88125464D01*
X184307483Y-88100463D01*
X184221762Y-88064956D01*
X184221760Y-88064955D01*
X184065001Y-88044318D01*
X184064999Y-88044318D01*
X183908238Y-88064956D01*
X183870405Y-88080626D01*
X183839435Y-88088964D01*
X183835065Y-88089549D01*
X183835050Y-88089553D01*
X183667626Y-88146812D01*
X183597824Y-88149880D01*
X183587375Y-88146813D01*
X183572889Y-88141859D01*
X183536053Y-88129261D01*
X183536052Y-88129261D01*
X183526367Y-88125948D01*
X183526363Y-88125947D01*
X183419946Y-88089552D01*
X183419932Y-88089549D01*
X183413217Y-88088537D01*
X183384253Y-88080485D01*
X183365689Y-88072796D01*
X183346762Y-88064956D01*
X183346760Y-88064955D01*
X183190001Y-88044318D01*
X183189999Y-88044318D01*
X183033238Y-88064956D01*
X182995405Y-88080626D01*
X182964435Y-88088964D01*
X182960065Y-88089549D01*
X182960050Y-88089553D01*
X182844951Y-88128917D01*
X182775148Y-88131985D01*
X182760979Y-88127578D01*
X182616076Y-88072801D01*
X182616060Y-88072796D01*
X182601318Y-88067223D01*
X182597331Y-88066524D01*
X182590958Y-88065407D01*
X182564918Y-88057831D01*
X182521762Y-88039956D01*
X182443381Y-88029637D01*
X182365001Y-88019318D01*
X182364999Y-88019318D01*
X182208239Y-88039955D01*
X182208237Y-88039956D01*
X182062160Y-88100463D01*
X181936718Y-88196718D01*
X181840463Y-88322160D01*
X181779956Y-88468237D01*
X181779955Y-88468239D01*
X181759318Y-88624998D01*
X157025485Y-88624998D01*
X157025485Y-82849999D01*
X165485317Y-82849999D01*
X165485317Y-82850000D01*
X165504806Y-83060334D01*
X165562614Y-83263504D01*
X165562619Y-83263517D01*
X165656771Y-83452598D01*
X165664118Y-83462327D01*
X166140504Y-82985941D01*
X166156619Y-83046081D01*
X166223498Y-83161920D01*
X166318080Y-83256502D01*
X166433919Y-83323381D01*
X166494057Y-83339494D01*
X166020401Y-83813150D01*
X166119770Y-83874677D01*
X166119771Y-83874678D01*
X166316740Y-83950983D01*
X166524384Y-83989800D01*
X166735616Y-83989800D01*
X166943259Y-83950983D01*
X167140228Y-83874678D01*
X167140232Y-83874676D01*
X167239596Y-83813151D01*
X167239596Y-83813150D01*
X166765942Y-83339494D01*
X166826081Y-83323381D01*
X166941920Y-83256502D01*
X167036502Y-83161920D01*
X167103381Y-83046081D01*
X167119495Y-82985941D01*
X167595880Y-83462326D01*
X167595881Y-83462326D01*
X167603228Y-83452598D01*
X167697380Y-83263517D01*
X167697385Y-83263504D01*
X167755193Y-83060334D01*
X167774683Y-82850000D01*
X167774683Y-82849999D01*
X168024815Y-82849999D01*
X168024815Y-82850000D01*
X168044313Y-83060426D01*
X168044314Y-83060429D01*
X168102144Y-83263684D01*
X168102147Y-83263690D01*
X168196344Y-83452862D01*
X168323699Y-83621508D01*
X168458050Y-83743983D01*
X168479872Y-83763877D01*
X168659547Y-83875128D01*
X168856605Y-83951468D01*
X169064336Y-83990300D01*
X169064338Y-83990300D01*
X169275662Y-83990300D01*
X169275664Y-83990300D01*
X169483395Y-83951468D01*
X169680453Y-83875128D01*
X169860128Y-83763877D01*
X170016302Y-83621506D01*
X170143656Y-83452862D01*
X170237853Y-83263689D01*
X170237853Y-83263686D01*
X170237855Y-83263684D01*
X170295685Y-83060429D01*
X170295686Y-83060426D01*
X170315185Y-82850000D01*
X170315185Y-82849999D01*
X182984815Y-82849999D01*
X182984815Y-82850000D01*
X183004313Y-83060426D01*
X183004314Y-83060429D01*
X183062144Y-83263684D01*
X183062147Y-83263690D01*
X183156344Y-83452862D01*
X183283699Y-83621508D01*
X183418050Y-83743983D01*
X183439872Y-83763877D01*
X183619547Y-83875128D01*
X183816605Y-83951468D01*
X184024336Y-83990300D01*
X184024338Y-83990300D01*
X184235662Y-83990300D01*
X184235664Y-83990300D01*
X184443395Y-83951468D01*
X184640453Y-83875128D01*
X184820128Y-83763877D01*
X184976302Y-83621506D01*
X185103656Y-83452862D01*
X185197853Y-83263689D01*
X185197853Y-83263686D01*
X185197855Y-83263684D01*
X185255685Y-83060429D01*
X185255686Y-83060426D01*
X185275185Y-82850000D01*
X185275185Y-82849999D01*
X185525317Y-82849999D01*
X185525317Y-82850000D01*
X185544806Y-83060334D01*
X185602614Y-83263504D01*
X185602619Y-83263517D01*
X185696771Y-83452598D01*
X185704118Y-83462327D01*
X186180504Y-82985941D01*
X186196619Y-83046081D01*
X186263498Y-83161920D01*
X186358080Y-83256502D01*
X186473919Y-83323381D01*
X186534057Y-83339494D01*
X186060401Y-83813150D01*
X186159770Y-83874677D01*
X186159771Y-83874678D01*
X186356740Y-83950983D01*
X186564384Y-83989800D01*
X186775616Y-83989800D01*
X186983259Y-83950983D01*
X187180228Y-83874678D01*
X187180232Y-83874676D01*
X187279596Y-83813151D01*
X187279596Y-83813150D01*
X186805942Y-83339494D01*
X186866081Y-83323381D01*
X186981920Y-83256502D01*
X187076502Y-83161920D01*
X187143381Y-83046081D01*
X187159495Y-82985941D01*
X187635880Y-83462326D01*
X187635881Y-83462326D01*
X187643228Y-83452598D01*
X187737380Y-83263517D01*
X187737385Y-83263504D01*
X187795193Y-83060334D01*
X187814683Y-82850000D01*
X187814683Y-82849999D01*
X187795193Y-82639665D01*
X187737385Y-82436495D01*
X187737380Y-82436482D01*
X187643232Y-82247407D01*
X187643227Y-82247399D01*
X187635880Y-82237671D01*
X187159494Y-82714057D01*
X187143381Y-82653919D01*
X187076502Y-82538080D01*
X186981920Y-82443498D01*
X186866081Y-82376619D01*
X186805941Y-82360504D01*
X187279597Y-81886848D01*
X187180227Y-81825321D01*
X187180226Y-81825320D01*
X186983259Y-81749016D01*
X186775616Y-81710200D01*
X186564384Y-81710200D01*
X186356740Y-81749016D01*
X186159772Y-81825321D01*
X186159765Y-81825325D01*
X186060402Y-81886847D01*
X186060401Y-81886848D01*
X186534058Y-82360504D01*
X186473919Y-82376619D01*
X186358080Y-82443498D01*
X186263498Y-82538080D01*
X186196619Y-82653919D01*
X186180504Y-82714058D01*
X185704118Y-82237672D01*
X185704117Y-82237672D01*
X185696770Y-82247402D01*
X185602619Y-82436482D01*
X185602614Y-82436495D01*
X185544806Y-82639665D01*
X185525317Y-82849999D01*
X185275185Y-82849999D01*
X185255686Y-82639573D01*
X185255685Y-82639570D01*
X185197855Y-82436315D01*
X185197852Y-82436309D01*
X185168130Y-82376619D01*
X185103656Y-82247138D01*
X184976302Y-82078494D01*
X184976300Y-82078491D01*
X184820129Y-81936124D01*
X184820128Y-81936123D01*
X184640453Y-81824872D01*
X184640452Y-81824871D01*
X184444644Y-81749016D01*
X184443395Y-81748532D01*
X184235664Y-81709700D01*
X184024336Y-81709700D01*
X183816605Y-81748532D01*
X183816602Y-81748532D01*
X183816602Y-81748533D01*
X183619547Y-81824871D01*
X183619546Y-81824872D01*
X183439870Y-81936124D01*
X183283699Y-82078491D01*
X183156344Y-82247137D01*
X183062147Y-82436309D01*
X183062144Y-82436315D01*
X183004314Y-82639570D01*
X183004313Y-82639573D01*
X182984815Y-82849999D01*
X170315185Y-82849999D01*
X170295686Y-82639573D01*
X170295685Y-82639570D01*
X170237855Y-82436315D01*
X170237852Y-82436309D01*
X170208130Y-82376619D01*
X170143656Y-82247138D01*
X170016302Y-82078494D01*
X170016300Y-82078491D01*
X169860129Y-81936124D01*
X169860128Y-81936123D01*
X169680453Y-81824872D01*
X169680452Y-81824871D01*
X169484644Y-81749016D01*
X169483395Y-81748532D01*
X169275664Y-81709700D01*
X169064336Y-81709700D01*
X168856605Y-81748532D01*
X168856602Y-81748532D01*
X168856602Y-81748533D01*
X168659547Y-81824871D01*
X168659546Y-81824872D01*
X168479870Y-81936124D01*
X168323699Y-82078491D01*
X168196344Y-82247137D01*
X168102147Y-82436309D01*
X168102144Y-82436315D01*
X168044314Y-82639570D01*
X168044313Y-82639573D01*
X168024815Y-82849999D01*
X167774683Y-82849999D01*
X167755193Y-82639665D01*
X167697385Y-82436495D01*
X167697380Y-82436482D01*
X167603232Y-82247407D01*
X167603227Y-82247399D01*
X167595880Y-82237671D01*
X167119494Y-82714057D01*
X167103381Y-82653919D01*
X167036502Y-82538080D01*
X166941920Y-82443498D01*
X166826081Y-82376619D01*
X166765941Y-82360504D01*
X167239597Y-81886848D01*
X167140227Y-81825321D01*
X167140226Y-81825320D01*
X166943259Y-81749016D01*
X166735616Y-81710200D01*
X166524384Y-81710200D01*
X166316740Y-81749016D01*
X166119772Y-81825321D01*
X166119765Y-81825325D01*
X166020402Y-81886847D01*
X166020401Y-81886848D01*
X166494058Y-82360504D01*
X166433919Y-82376619D01*
X166318080Y-82443498D01*
X166223498Y-82538080D01*
X166156619Y-82653919D01*
X166140504Y-82714058D01*
X165664118Y-82237672D01*
X165664117Y-82237672D01*
X165656770Y-82247402D01*
X165562619Y-82436482D01*
X165562614Y-82436495D01*
X165504806Y-82639665D01*
X165485317Y-82849999D01*
X157025485Y-82849999D01*
X157025485Y-81270730D01*
X192449500Y-81270730D01*
X192449500Y-83629269D01*
X192452353Y-83659699D01*
X192452353Y-83659701D01*
X192488807Y-83763877D01*
X192497207Y-83787882D01*
X192577850Y-83897150D01*
X192687118Y-83977793D01*
X192721432Y-83989800D01*
X192815299Y-84022646D01*
X192842680Y-84025214D01*
X192907589Y-84051071D01*
X192938576Y-84086821D01*
X193383473Y-84859881D01*
X193400000Y-84921732D01*
X193400000Y-85678747D01*
X193392716Y-85720619D01*
X192992776Y-86835429D01*
X192979163Y-86862446D01*
X192919059Y-86952400D01*
X192839870Y-87143579D01*
X192839868Y-87143587D01*
X192799500Y-87346530D01*
X192799500Y-87553469D01*
X192839868Y-87756412D01*
X192839870Y-87756420D01*
X192919058Y-87947596D01*
X193034024Y-88119657D01*
X193180342Y-88265975D01*
X193180345Y-88265977D01*
X193352402Y-88380941D01*
X193543580Y-88460130D01*
X193746530Y-88500499D01*
X193746534Y-88500500D01*
X193746535Y-88500500D01*
X194253466Y-88500500D01*
X194253467Y-88500499D01*
X194456420Y-88460130D01*
X194647598Y-88380941D01*
X194819655Y-88265977D01*
X194965977Y-88119655D01*
X195080941Y-87947598D01*
X195160130Y-87756420D01*
X195200500Y-87553465D01*
X195200500Y-87346535D01*
X195160130Y-87143580D01*
X195080941Y-86952402D01*
X195040067Y-86891229D01*
X195025203Y-86860547D01*
X194656033Y-85720738D01*
X194650000Y-85682530D01*
X194650000Y-84921732D01*
X194666527Y-84859881D01*
X195111423Y-84086819D01*
X195161922Y-84038535D01*
X195207318Y-84025214D01*
X195234699Y-84022646D01*
X195234701Y-84022646D01*
X195298790Y-84000219D01*
X195362882Y-83977793D01*
X195472150Y-83897150D01*
X195552793Y-83787882D01*
X195575219Y-83723790D01*
X195597646Y-83659701D01*
X195597646Y-83659699D01*
X195600500Y-83629269D01*
X195600500Y-81270730D01*
X195597646Y-81240300D01*
X195597646Y-81240298D01*
X195552793Y-81112119D01*
X195552792Y-81112117D01*
X195472150Y-81002850D01*
X195362882Y-80922207D01*
X195362880Y-80922206D01*
X195234700Y-80877353D01*
X195204270Y-80874500D01*
X195204266Y-80874500D01*
X192845734Y-80874500D01*
X192845730Y-80874500D01*
X192815300Y-80877353D01*
X192815298Y-80877353D01*
X192687119Y-80922206D01*
X192687117Y-80922207D01*
X192577850Y-81002850D01*
X192497207Y-81112117D01*
X192497206Y-81112119D01*
X192452353Y-81240298D01*
X192452353Y-81240300D01*
X192449500Y-81270730D01*
X157025485Y-81270730D01*
X157025485Y-79991010D01*
X157045170Y-79923971D01*
X157097974Y-79878216D01*
X157122026Y-79871001D01*
X157121839Y-79870211D01*
X157126576Y-79869084D01*
X157126583Y-79869083D01*
X157322208Y-79805964D01*
X157505487Y-79712896D01*
X157671870Y-79592192D01*
X157817225Y-79446848D01*
X157937943Y-79280475D01*
X158031025Y-79097203D01*
X158094160Y-78901583D01*
X158094161Y-78901570D01*
X158095288Y-78896838D01*
X158097359Y-78897330D01*
X158123327Y-78842175D01*
X158182540Y-78805086D01*
X158216090Y-78800461D01*
X175433917Y-78800461D01*
X175500956Y-78820146D01*
G37*
G04 #@! TD.AperFunction*
G04 #@! TA.AperFunction,Conductor*
G36*
X160251007Y-92578427D02*
G01*
X160252875Y-92580864D01*
X160821215Y-93568423D01*
X160822371Y-93577303D01*
X160820539Y-93581137D01*
X159834465Y-94937976D01*
X159826829Y-94942654D01*
X159818122Y-94940563D01*
X159815535Y-94937976D01*
X158829460Y-93581137D01*
X158827369Y-93572430D01*
X158828782Y-93568427D01*
X159397125Y-92580863D01*
X159404222Y-92575403D01*
X159407266Y-92575000D01*
X160242734Y-92575000D01*
X160251007Y-92578427D01*
G37*
G04 #@! TD.AperFunction*
G04 #@! TA.AperFunction,Conductor*
G36*
X183910495Y-88284559D02*
G01*
X183916143Y-88290562D01*
X184064123Y-88645498D01*
X184064144Y-88654452D01*
X184064123Y-88654502D01*
X183916441Y-89008724D01*
X183910094Y-89015042D01*
X183901140Y-89015021D01*
X183901112Y-89015010D01*
X183277143Y-88753010D01*
X183270842Y-88746647D01*
X183269973Y-88742222D01*
X183269973Y-88508363D01*
X183273400Y-88500090D01*
X183277885Y-88497293D01*
X183901558Y-88283994D01*
X183910495Y-88284559D01*
G37*
G04 #@! TD.AperFunction*
G04 #@! TA.AperFunction,Conductor*
G36*
X183285079Y-90125416D02*
G01*
X183287801Y-90129690D01*
X183515733Y-90756427D01*
X183515341Y-90765373D01*
X183509240Y-90771225D01*
X183154502Y-90919123D01*
X183145548Y-90919144D01*
X183145498Y-90919123D01*
X182791043Y-90771344D01*
X182784725Y-90764997D01*
X182784662Y-90756250D01*
X183032077Y-90129394D01*
X183038302Y-90122956D01*
X183042960Y-90121989D01*
X183276806Y-90121989D01*
X183285079Y-90125416D01*
G37*
G04 #@! TD.AperFunction*
G04 #@! TA.AperFunction,Conductor*
G36*
X183433630Y-91037250D02*
G01*
X183509240Y-91068774D01*
X183515558Y-91075121D01*
X183515733Y-91083572D01*
X183287801Y-91710310D01*
X183281753Y-91716914D01*
X183276806Y-91718011D01*
X183042960Y-91718011D01*
X183034687Y-91714584D01*
X183032077Y-91710606D01*
X182784662Y-91083749D01*
X182784812Y-91074796D01*
X182791041Y-91068656D01*
X183145500Y-90920875D01*
X183154449Y-90920855D01*
X183433630Y-91037250D01*
G37*
G04 #@! TD.AperFunction*
G04 #@! TA.AperFunction,Conductor*
G36*
X194031878Y-82459436D02*
G01*
X194034462Y-82462020D01*
X194738803Y-83431193D01*
X195020539Y-83818862D01*
X195022630Y-83827569D01*
X195021215Y-83831576D01*
X194452875Y-84819136D01*
X194445778Y-84824597D01*
X194442734Y-84825000D01*
X193607266Y-84825000D01*
X193598993Y-84821573D01*
X193597125Y-84819136D01*
X193028784Y-83831576D01*
X193027628Y-83822696D01*
X193029458Y-83818865D01*
X194015536Y-82462022D01*
X194023171Y-82457345D01*
X194031878Y-82459436D01*
G37*
G04 #@! TD.AperFunction*
G04 #@! TA.AperFunction,Conductor*
G36*
X194449264Y-85753427D02*
G01*
X194452122Y-85758095D01*
X194853562Y-86997535D01*
X194852851Y-87006461D01*
X194847815Y-87011527D01*
X194005549Y-87448123D01*
X193996627Y-87448888D01*
X193994525Y-87447987D01*
X193165470Y-86991802D01*
X193159873Y-86984811D01*
X193160097Y-86977600D01*
X193597720Y-85757749D01*
X193603739Y-85751119D01*
X193608733Y-85750000D01*
X194440991Y-85750000D01*
X194449264Y-85753427D01*
G37*
G04 #@! TD.AperFunction*
G04 #@! TA.AperFunction,Conductor*
G36*
X183285188Y-91043427D02*
G01*
X183287859Y-91047563D01*
X183525551Y-91676344D01*
X183525271Y-91685294D01*
X183519109Y-91691280D01*
X183164502Y-91839123D01*
X183155548Y-91839144D01*
X183155498Y-91839123D01*
X182800890Y-91691280D01*
X182794572Y-91684933D01*
X182794448Y-91676345D01*
X183032141Y-91047562D01*
X183038272Y-91041036D01*
X183043085Y-91040000D01*
X183276915Y-91040000D01*
X183285188Y-91043427D01*
G37*
G04 #@! TD.AperFunction*
G04 #@! TA.AperFunction,Conductor*
G36*
X159830506Y-89951940D02*
G01*
X160666228Y-90398253D01*
X160671910Y-90405172D01*
X160671788Y-90412350D01*
X160252203Y-91642078D01*
X160246288Y-91648802D01*
X160241130Y-91650000D01*
X159408870Y-91650000D01*
X159400597Y-91646573D01*
X159397797Y-91642078D01*
X158978211Y-90412350D01*
X158978782Y-90403414D01*
X158983769Y-90398254D01*
X159819489Y-89951942D01*
X159828400Y-89951068D01*
X159830506Y-89951940D01*
G37*
G04 #@! TD.AperFunction*
G04 #@! TA.AperFunction,Conductor*
G36*
X168569363Y-89639254D02*
G01*
X168575689Y-89645592D01*
X168575680Y-89654547D01*
X168575642Y-89654637D01*
X168353016Y-90178262D01*
X168350522Y-90181957D01*
X168187144Y-90345335D01*
X168178871Y-90348762D01*
X168170598Y-90345335D01*
X168168278Y-90342029D01*
X167846336Y-89654840D01*
X167845930Y-89645896D01*
X167851968Y-89639283D01*
X167852430Y-89639079D01*
X168205507Y-89491872D01*
X168214459Y-89491852D01*
X168569363Y-89639254D01*
G37*
G04 #@! TD.AperFunction*
G04 #@! TA.AperFunction,Conductor*
G36*
X183035495Y-88284559D02*
G01*
X183041143Y-88290562D01*
X183189123Y-88645498D01*
X183189144Y-88654452D01*
X183189123Y-88654502D01*
X183041441Y-89008724D01*
X183035094Y-89015042D01*
X183026140Y-89015021D01*
X183026112Y-89015010D01*
X182402143Y-88753010D01*
X182395842Y-88746647D01*
X182394973Y-88742222D01*
X182394973Y-88508363D01*
X182398400Y-88500090D01*
X182402885Y-88497293D01*
X183026558Y-88283994D01*
X183035495Y-88284559D01*
G37*
G04 #@! TD.AperFunction*
G04 #@! TA.AperFunction,Conductor*
G36*
X182545696Y-88265890D02*
G01*
X183157437Y-88497141D01*
X183163964Y-88503272D01*
X183165000Y-88508085D01*
X183165000Y-88741914D01*
X183161573Y-88750187D01*
X183157437Y-88752858D01*
X182528655Y-88990551D01*
X182519705Y-88990271D01*
X182513719Y-88984109D01*
X182417306Y-88752858D01*
X182365875Y-88629499D01*
X182365855Y-88620550D01*
X182513719Y-88265889D01*
X182520066Y-88259572D01*
X182528654Y-88259448D01*
X182545696Y-88265890D01*
G37*
G04 #@! TD.AperFunction*
M02*
