M48
; DRILL file {KiCad 8.0.3} date 2024-07-19T18:12:50+0300
; FORMAT={-:-/ absolute / metric / decimal}
; #@! TF.CreationDate,2024-07-19T18:12:50+03:00
; #@! TF.GenerationSoftware,Kicad,Pcbnew,8.0.3
; #@! TF.FileFunction,Plated,1,2,PTH
FMAT,2
METRIC
; #@! TA.AperFunction,Plated,PTH,ViaDrill
T1C0.400
; #@! TA.AperFunction,Plated,PTH,ComponentDrill
T2C1.000
; #@! TA.AperFunction,Plated,PTH,ComponentDrill
T3C1.016
; #@! TA.AperFunction,Plated,PTH,ComponentDrill
T4C1.750
%
G90
G05
T1
X167.5Y-93.95
X168.22Y-89.53
X171.35Y-86.65
X171.77Y-90.79
X172.675Y-86.65
X173.475Y-83.4
X173.475Y-84.45
X173.5Y-82.35
X173.55Y-92.95
X176.05Y-85.375
X176.2Y-89.85
X176.7Y-82.525
X176.7Y-83.975
X176.8Y-86.45
X177.425Y-89.875
X177.45Y-85.375
X178.175Y-94.975
X179.85Y-83.4
X179.85Y-84.45
X179.875Y-82.35
X181.1Y-86.6
X182.2Y-90.15
X182.365Y-88.625
X182.375Y-86.6
X183.15Y-90.92
X183.16Y-91.84
X183.19Y-88.65
X184.065Y-88.65
T2
X159.825Y-87.45
X159.825Y-89.95
X194.0Y-87.45
X194.0Y-89.95
T3
X166.135Y-95.925
X166.63Y-82.85
X168.675Y-95.925
X169.17Y-82.85
X171.215Y-95.925
X182.525Y-95.9
X184.13Y-82.85
X185.065Y-95.9
X186.67Y-82.85
X187.605Y-95.9
T4
X159.825Y-82.45
X159.825Y-94.95
X194.0Y-94.95
X194.025Y-82.45
M30
