G04 #@! TF.GenerationSoftware,KiCad,Pcbnew,8.0.3*
G04 #@! TF.CreationDate,2024-07-19T18:12:48+03:00*
G04 #@! TF.ProjectId,B-TPS63030-Brk-01Mbr-R01,422d5450-5336-4333-9033-302d42726b2d,rev?*
G04 #@! TF.SameCoordinates,Original*
G04 #@! TF.FileFunction,Copper,L1,Top*
G04 #@! TF.FilePolarity,Positive*
%FSLAX46Y46*%
G04 Gerber Fmt 4.6, Leading zero omitted, Abs format (unit mm)*
G04 Created by KiCad (PCBNEW 8.0.3) date 2024-07-19 18:12:48*
%MOMM*%
%LPD*%
G01*
G04 APERTURE LIST*
G04 Aperture macros list*
%AMRoundRect*
0 Rectangle with rounded corners*
0 $1 Rounding radius*
0 $2 $3 $4 $5 $6 $7 $8 $9 X,Y pos of 4 corners*
0 Add a 4 corners polygon primitive as box body*
4,1,4,$2,$3,$4,$5,$6,$7,$8,$9,$2,$3,0*
0 Add four circle primitives for the rounded corners*
1,1,$1+$1,$2,$3*
1,1,$1+$1,$4,$5*
1,1,$1+$1,$6,$7*
1,1,$1+$1,$8,$9*
0 Add four rect primitives between the rounded corners*
20,1,$1+$1,$2,$3,$4,$5,0*
20,1,$1+$1,$4,$5,$6,$7,0*
20,1,$1+$1,$6,$7,$8,$9,0*
20,1,$1+$1,$8,$9,$2,$3,0*%
G04 Aperture macros list end*
G04 #@! TA.AperFunction,ComponentPad*
%ADD10C,1.879600*%
G04 #@! TD*
G04 #@! TA.AperFunction,SMDPad,CuDef*
%ADD11RoundRect,0.218750X-0.256250X0.218750X-0.256250X-0.218750X0.256250X-0.218750X0.256250X0.218750X0*%
G04 #@! TD*
G04 #@! TA.AperFunction,ComponentPad*
%ADD12O,2.000000X1.700000*%
G04 #@! TD*
G04 #@! TA.AperFunction,ComponentPad*
%ADD13RoundRect,0.250000X-0.750000X0.600000X-0.750000X-0.600000X0.750000X-0.600000X0.750000X0.600000X0*%
G04 #@! TD*
G04 #@! TA.AperFunction,ComponentPad*
%ADD14RoundRect,0.250000X-1.125000X-1.125000X1.125000X-1.125000X1.125000X1.125000X-1.125000X1.125000X0*%
G04 #@! TD*
G04 #@! TA.AperFunction,SMDPad,CuDef*
%ADD15RoundRect,0.200000X-0.200000X-0.275000X0.200000X-0.275000X0.200000X0.275000X-0.200000X0.275000X0*%
G04 #@! TD*
G04 #@! TA.AperFunction,SMDPad,CuDef*
%ADD16C,0.500000*%
G04 #@! TD*
G04 #@! TA.AperFunction,SMDPad,CuDef*
%ADD17RoundRect,0.200000X0.200000X0.275000X-0.200000X0.275000X-0.200000X-0.275000X0.200000X-0.275000X0*%
G04 #@! TD*
G04 #@! TA.AperFunction,SMDPad,CuDef*
%ADD18RoundRect,0.200000X-0.275000X0.200000X-0.275000X-0.200000X0.275000X-0.200000X0.275000X0.200000X0*%
G04 #@! TD*
G04 #@! TA.AperFunction,SMDPad,CuDef*
%ADD19RoundRect,0.225000X-0.250000X0.225000X-0.250000X-0.225000X0.250000X-0.225000X0.250000X0.225000X0*%
G04 #@! TD*
G04 #@! TA.AperFunction,SMDPad,CuDef*
%ADD20R,1.200000X2.000000*%
G04 #@! TD*
G04 #@! TA.AperFunction,ComponentPad*
%ADD21RoundRect,0.250000X0.750000X-0.600000X0.750000X0.600000X-0.750000X0.600000X-0.750000X-0.600000X0*%
G04 #@! TD*
G04 #@! TA.AperFunction,SMDPad,CuDef*
%ADD22RoundRect,0.225000X-0.225000X-0.250000X0.225000X-0.250000X0.225000X0.250000X-0.225000X0.250000X0*%
G04 #@! TD*
G04 #@! TA.AperFunction,SMDPad,CuDef*
%ADD23RoundRect,0.062500X-0.062500X0.350000X-0.062500X-0.350000X0.062500X-0.350000X0.062500X0.350000X0*%
G04 #@! TD*
G04 #@! TA.AperFunction,SMDPad,CuDef*
%ADD24R,2.000000X1.200000*%
G04 #@! TD*
G04 #@! TA.AperFunction,ViaPad*
%ADD25C,0.800000*%
G04 #@! TD*
G04 #@! TA.AperFunction,Conductor*
%ADD26C,0.849000*%
G04 #@! TD*
G04 #@! TA.AperFunction,Conductor*
%ADD27C,0.250000*%
G04 #@! TD*
G04 #@! TA.AperFunction,Conductor*
%ADD28C,0.350000*%
G04 #@! TD*
G04 APERTURE END LIST*
D10*
X171215000Y-95925000D03*
X168675000Y-95925000D03*
X166135000Y-95925000D03*
D11*
X190210000Y-80312500D03*
X190210000Y-81887500D03*
D12*
X194000000Y-87450000D03*
D13*
X194000000Y-89950000D03*
D14*
X194025000Y-82450000D03*
X159825000Y-82450000D03*
D15*
X179250000Y-91875000D03*
X180900000Y-91875000D03*
D16*
X190770000Y-97310000D03*
D10*
X169170000Y-82850000D03*
X166630000Y-82850000D03*
D16*
X163180000Y-79880000D03*
D10*
X184130000Y-82850000D03*
X186670000Y-82850000D03*
D17*
X180900000Y-93425000D03*
X179250000Y-93425000D03*
D18*
X173575000Y-94375000D03*
X173575000Y-96025000D03*
D19*
X174225000Y-88625000D03*
X174225000Y-90175000D03*
D20*
X178600000Y-83975000D03*
X174800000Y-83975000D03*
D12*
X159825000Y-89950000D03*
D21*
X159825000Y-87450000D03*
D14*
X159825000Y-94950000D03*
D10*
X187605000Y-95900000D03*
X185065000Y-95900000D03*
X182525000Y-95900000D03*
D22*
X176150000Y-93425000D03*
X177700000Y-93425000D03*
D19*
X180925000Y-88625000D03*
X180925000Y-90175000D03*
D23*
X177800000Y-88625000D03*
X177300000Y-88625000D03*
X176800000Y-88625000D03*
X176300000Y-88625000D03*
X175800000Y-88625000D03*
X175800000Y-91050000D03*
X176300000Y-91050000D03*
X176800000Y-91050000D03*
X177300000Y-91050000D03*
X177800000Y-91050000D03*
D24*
X176800000Y-89837500D03*
D18*
X163800000Y-94350000D03*
X163800000Y-96000000D03*
D15*
X186755000Y-80320000D03*
X188405000Y-80320000D03*
D14*
X194000000Y-94950000D03*
D19*
X179325000Y-88625000D03*
X179325000Y-90175000D03*
D25*
X168220000Y-89530000D03*
X173550000Y-92950000D03*
X173500000Y-82350000D03*
X177425000Y-89875000D03*
X176700000Y-83975000D03*
X179875000Y-82350000D03*
X182200000Y-90150000D03*
X171770000Y-90790000D03*
X178175000Y-94975000D03*
X176050000Y-85375000D03*
X176200000Y-89850000D03*
X176700000Y-82525000D03*
X179850000Y-84450000D03*
X173475000Y-84450000D03*
X181100000Y-86600000D03*
X179850000Y-83400000D03*
X167500000Y-93950000D03*
X176800000Y-86450000D03*
X172675000Y-86650000D03*
X173475000Y-83400000D03*
X182375000Y-86600000D03*
X177450000Y-85375000D03*
X171350000Y-86650000D03*
X183150000Y-90920000D03*
X184065000Y-88650000D03*
X183160000Y-91840000D03*
X183190000Y-88650000D03*
X182365000Y-88625000D03*
D26*
X159825000Y-95350000D02*
X159825000Y-89950000D01*
D27*
X170150000Y-82850000D02*
X169170000Y-82850000D01*
X173575000Y-92975000D02*
X173550000Y-92950000D01*
X173575000Y-94375000D02*
X173575000Y-92975000D01*
X163800000Y-92375000D02*
X163800000Y-90525000D01*
X174225000Y-86925000D02*
X170150000Y-82850000D01*
X174225000Y-88625000D02*
X174225000Y-86925000D01*
X163800000Y-94350000D02*
X163800000Y-92375000D01*
X176800000Y-88625000D02*
X176800000Y-86450000D01*
X177425000Y-89875000D02*
X176800000Y-89250000D01*
X177300000Y-91050000D02*
X177300000Y-90337500D01*
X176800000Y-89250000D02*
X176800000Y-88625000D01*
X177300000Y-90337500D02*
X177550000Y-89900000D01*
X177550000Y-89900000D02*
X176800000Y-89837500D01*
X176800000Y-91050000D02*
X176800000Y-91775000D01*
X176150000Y-92425000D02*
X176150000Y-93425000D01*
X176800000Y-91775000D02*
X176150000Y-92425000D01*
D28*
X177300000Y-88625000D02*
X177300000Y-87600000D01*
X177300000Y-87600000D02*
X178600000Y-86300000D01*
X178600000Y-86300000D02*
X178600000Y-83975000D01*
X176300000Y-87600000D02*
X174800000Y-86100000D01*
X174800000Y-86100000D02*
X174800000Y-83975000D01*
X176300000Y-88625000D02*
X176300000Y-87600000D01*
D27*
X177800000Y-91650000D02*
X178025000Y-91875000D01*
X179250000Y-91875000D02*
X179250000Y-93425000D01*
X177800000Y-91050000D02*
X177800000Y-91650000D01*
X178025000Y-91875000D02*
X179250000Y-91875000D01*
X175250000Y-91050000D02*
X175800000Y-91050000D01*
X170275000Y-91975000D02*
X171750000Y-91975000D01*
X166135000Y-95925000D02*
X168675000Y-95925000D01*
X166060000Y-96000000D02*
X166135000Y-95925000D01*
X168675000Y-95925000D02*
X168675000Y-93575000D01*
X168675000Y-93575000D02*
X170275000Y-91975000D01*
X163800000Y-96000000D02*
X166060000Y-96000000D01*
X174325000Y-91975000D02*
X175250000Y-91050000D01*
X171750000Y-91975000D02*
X174325000Y-91975000D01*
X173700000Y-95900000D02*
X174875000Y-95900000D01*
X175525000Y-95875000D02*
X175525000Y-95900000D01*
X175225000Y-95575000D02*
X175225000Y-95875000D01*
X175525000Y-95900000D02*
X182525000Y-95900000D01*
X175225000Y-95875000D02*
X175250000Y-95900000D01*
X175225000Y-95575000D02*
X174900000Y-95900000D01*
X173575000Y-96025000D02*
X173575000Y-95875000D01*
X175225000Y-92713604D02*
X175225000Y-95575000D01*
X174900000Y-95900000D02*
X174875000Y-95900000D01*
X182525000Y-95900000D02*
X185065000Y-95900000D01*
X175250000Y-95900000D02*
X175525000Y-95900000D01*
X176300000Y-91050000D02*
X176300000Y-91638604D01*
X174875000Y-95900000D02*
X175250000Y-95900000D01*
X173575000Y-96025000D02*
X173700000Y-95900000D01*
X176300000Y-91638604D02*
X175225000Y-92713604D01*
X175225000Y-95575000D02*
X175525000Y-95875000D01*
X190210000Y-81887500D02*
X189117500Y-81887500D01*
X188405000Y-81175000D02*
X188405000Y-80320000D01*
X189117500Y-81887500D02*
X188405000Y-81175000D01*
X179325000Y-88625000D02*
X179325000Y-87050000D01*
X184130000Y-81580000D02*
X184130000Y-82850000D01*
X183200000Y-91875000D02*
X183425000Y-91875000D01*
X185390000Y-80320000D02*
X184130000Y-81580000D01*
X179325000Y-87050000D02*
X183525000Y-82850000D01*
X183200000Y-91875000D02*
X183350000Y-91875000D01*
X177800000Y-88625000D02*
X177800000Y-88375000D01*
X180900000Y-91875000D02*
X182195000Y-91875000D01*
X183525000Y-82850000D02*
X184130000Y-82850000D01*
X177800000Y-88775000D02*
X177800000Y-88625000D01*
D26*
X194000000Y-87450000D02*
X194000000Y-82300000D01*
D27*
X180925000Y-88625000D02*
X180950000Y-88625000D01*
X180900000Y-91875000D02*
X183200000Y-91875000D01*
D26*
X194000000Y-82300000D02*
X194025000Y-82275000D01*
D27*
X186755000Y-80320000D02*
X185390000Y-80320000D01*
X182195000Y-91875000D02*
X183150000Y-90920000D01*
G04 #@! TA.AperFunction,Conductor*
G36*
X174483935Y-87340780D02*
G01*
X174494169Y-87346504D01*
X174549563Y-87377490D01*
X174616602Y-87397175D01*
X174674500Y-87405500D01*
X174674504Y-87405500D01*
X175069605Y-87405500D01*
X175070055Y-87405491D01*
X175076937Y-87405369D01*
X175085783Y-87405053D01*
X175150262Y-87392227D01*
X175215726Y-87367810D01*
X175238695Y-87357603D01*
X175238695Y-87357602D01*
X175241870Y-87356192D01*
X175311126Y-87346956D01*
X175374382Y-87376629D01*
X175381379Y-87383324D01*
X175889654Y-87909125D01*
X175922095Y-87971007D01*
X175924500Y-87995308D01*
X175924500Y-88674435D01*
X175950090Y-88769938D01*
X175950091Y-88769939D01*
X175950091Y-88769940D01*
X175957887Y-88783443D01*
X175974500Y-88845441D01*
X175974500Y-88903805D01*
X175974501Y-88912998D01*
X175954817Y-88980038D01*
X175902014Y-89025794D01*
X175850501Y-89037000D01*
X175780247Y-89037000D01*
X175721770Y-89048631D01*
X175721769Y-89048632D01*
X175655447Y-89092947D01*
X175611132Y-89159269D01*
X175611131Y-89159270D01*
X175599500Y-89217747D01*
X175599500Y-89220500D01*
X175599092Y-89221887D01*
X175598903Y-89223812D01*
X175598538Y-89223776D01*
X175579815Y-89287539D01*
X175527011Y-89333294D01*
X175475500Y-89344500D01*
X170492754Y-89344500D01*
X170485035Y-89344678D01*
X170483215Y-89344721D01*
X170471724Y-89345254D01*
X170405332Y-89359574D01*
X170405329Y-89359575D01*
X170340404Y-89385390D01*
X170340400Y-89385391D01*
X170340396Y-89385394D01*
X170289683Y-89414514D01*
X169176397Y-90285780D01*
X169174086Y-90287545D01*
X167889812Y-91244916D01*
X167824298Y-91269202D01*
X167815701Y-91269500D01*
X164249492Y-91269500D01*
X164205813Y-91274197D01*
X164154325Y-91285397D01*
X164144127Y-91287890D01*
X164144120Y-91287892D01*
X164063420Y-91330896D01*
X164063410Y-91330903D01*
X164057633Y-91335909D01*
X163994075Y-91364930D01*
X163976152Y-91366191D01*
X163627333Y-91365393D01*
X163563064Y-91346362D01*
X163562995Y-91346487D01*
X163562442Y-91346177D01*
X163560339Y-91345555D01*
X163556501Y-91342854D01*
X163475440Y-91297511D01*
X163475435Y-91297509D01*
X163408403Y-91277826D01*
X163408399Y-91277825D01*
X163408398Y-91277825D01*
X163350500Y-91269500D01*
X160574000Y-91269500D01*
X160573992Y-91269500D01*
X160530313Y-91274197D01*
X160478825Y-91285397D01*
X160468627Y-91287890D01*
X160387913Y-91330900D01*
X160382178Y-91334840D01*
X160380658Y-91332627D01*
X160328188Y-91356552D01*
X160310332Y-91357803D01*
X159336783Y-91355575D01*
X159276534Y-91339796D01*
X159200937Y-91297510D01*
X159200935Y-91297509D01*
X159133903Y-91277826D01*
X159133899Y-91277825D01*
X159133898Y-91277825D01*
X159076000Y-91269500D01*
X157149485Y-91269500D01*
X157082446Y-91249815D01*
X157036691Y-91197011D01*
X157025485Y-91145500D01*
X157025485Y-88829500D01*
X157045170Y-88762461D01*
X157097974Y-88716706D01*
X157149485Y-88705500D01*
X167637059Y-88705500D01*
X167637161Y-88705499D01*
X167639379Y-88705487D01*
X167642203Y-88705455D01*
X167702246Y-88695774D01*
X167768820Y-88674568D01*
X167821459Y-88649065D01*
X169631442Y-87426737D01*
X169698016Y-87405532D01*
X169700840Y-87405500D01*
X173740315Y-87405500D01*
X173740765Y-87405491D01*
X173747647Y-87405369D01*
X173756493Y-87405053D01*
X173820972Y-87392227D01*
X173886436Y-87367810D01*
X173909405Y-87357603D01*
X173913104Y-87354462D01*
X173976953Y-87326088D01*
X173993346Y-87325000D01*
X174423401Y-87325000D01*
X174483935Y-87340780D01*
G37*
G04 #@! TD.AperFunction*
G04 #@! TA.AperFunction,Conductor*
G36*
X194558435Y-85340780D02*
G01*
X194568669Y-85346504D01*
X194624063Y-85377490D01*
X194691102Y-85397175D01*
X194749000Y-85405500D01*
X194749004Y-85405500D01*
X196500485Y-85405500D01*
X196567524Y-85425185D01*
X196613279Y-85477989D01*
X196624485Y-85529500D01*
X196624485Y-88545500D01*
X196604800Y-88612539D01*
X196551996Y-88658294D01*
X196500485Y-88669500D01*
X191647187Y-88669500D01*
X191610986Y-88672715D01*
X191567972Y-88680414D01*
X191532905Y-88689956D01*
X191532880Y-88689964D01*
X189784033Y-89336800D01*
X189741018Y-89344500D01*
X178512102Y-89344500D01*
X178478914Y-89339976D01*
X178067975Y-89225826D01*
X178008650Y-89188917D01*
X177996187Y-89169066D01*
X177995652Y-89169424D01*
X177944552Y-89092947D01*
X177878230Y-89048632D01*
X177878229Y-89048631D01*
X177819752Y-89037000D01*
X177819748Y-89037000D01*
X177749500Y-89037000D01*
X177682461Y-89017315D01*
X177636706Y-88964511D01*
X177625500Y-88913002D01*
X177625499Y-88845445D01*
X177642113Y-88783441D01*
X177649910Y-88769938D01*
X177675500Y-88674435D01*
X177675500Y-87806898D01*
X177695185Y-87739859D01*
X177711815Y-87719221D01*
X178094494Y-87336541D01*
X178155813Y-87303059D01*
X178182500Y-87300226D01*
X178242084Y-87300389D01*
X178309066Y-87320256D01*
X178318324Y-87327817D01*
X178318601Y-87327456D01*
X178325648Y-87332845D01*
X178405458Y-87377488D01*
X178405462Y-87377490D01*
X178472501Y-87397175D01*
X178530399Y-87405500D01*
X178530403Y-87405500D01*
X178875491Y-87405500D01*
X178875500Y-87405500D01*
X178919184Y-87400803D01*
X178958606Y-87392227D01*
X178970674Y-87389602D01*
X178970690Y-87389598D01*
X178970695Y-87389597D01*
X178980873Y-87387110D01*
X179061585Y-87344100D01*
X179074187Y-87333179D01*
X179137740Y-87304155D01*
X179155724Y-87302892D01*
X179650907Y-87304249D01*
X179717889Y-87324117D01*
X179725887Y-87329747D01*
X179729932Y-87332840D01*
X179729935Y-87332843D01*
X179750058Y-87344099D01*
X179792446Y-87367810D01*
X179809752Y-87377490D01*
X179876791Y-87397175D01*
X179934689Y-87405500D01*
X179934693Y-87405500D01*
X187102508Y-87405500D01*
X187102514Y-87405500D01*
X187139180Y-87402203D01*
X187182719Y-87394308D01*
X187190265Y-87392227D01*
X187218199Y-87384524D01*
X187218201Y-87384523D01*
X187218209Y-87384521D01*
X188595206Y-86868146D01*
X188598425Y-86866907D01*
X188602298Y-86865380D01*
X188605496Y-86864089D01*
X190429464Y-86109345D01*
X190429464Y-86109344D01*
X190778491Y-85964918D01*
X192117920Y-85414797D01*
X192165030Y-85405500D01*
X193250991Y-85405500D01*
X193251000Y-85405500D01*
X193294684Y-85400803D01*
X193323875Y-85394452D01*
X193346174Y-85389602D01*
X193346190Y-85389598D01*
X193346195Y-85389597D01*
X193356373Y-85387110D01*
X193437085Y-85344100D01*
X193437085Y-85344099D01*
X193443231Y-85340825D01*
X193444441Y-85343097D01*
X193499592Y-85325058D01*
X193503377Y-85325000D01*
X194497901Y-85325000D01*
X194558435Y-85340780D01*
G37*
G04 #@! TD.AperFunction*
G04 #@! TA.AperFunction,Conductor*
G36*
X196567524Y-88894685D02*
G01*
X196613279Y-88947489D01*
X196624485Y-88999000D01*
X196624485Y-97208878D01*
X196604800Y-97275917D01*
X196551996Y-97321672D01*
X196527938Y-97328904D01*
X196528122Y-97329678D01*
X196523365Y-97330809D01*
X196327749Y-97393945D01*
X196327735Y-97393951D01*
X196144486Y-97487019D01*
X196144476Y-97487025D01*
X195978099Y-97607735D01*
X195832760Y-97753071D01*
X195832753Y-97753079D01*
X195712041Y-97919448D01*
X195712036Y-97919456D01*
X195618960Y-98102712D01*
X195618958Y-98102716D01*
X195555818Y-98298329D01*
X195554689Y-98303077D01*
X195552632Y-98302587D01*
X195526611Y-98357790D01*
X195467381Y-98394852D01*
X195433886Y-98399461D01*
X178216056Y-98399461D01*
X178149017Y-98379776D01*
X178103262Y-98326972D01*
X178093545Y-98294619D01*
X178093228Y-98292594D01*
X178093228Y-98292592D01*
X178024683Y-98086501D01*
X177922906Y-97894633D01*
X177863471Y-97817151D01*
X177790721Y-97722310D01*
X177790707Y-97722296D01*
X177631780Y-97574291D01*
X177631776Y-97574288D01*
X177450485Y-97454681D01*
X177450476Y-97454676D01*
X177251867Y-97366800D01*
X177251865Y-97366799D01*
X177041423Y-97313077D01*
X177041422Y-97313076D01*
X177041419Y-97313076D01*
X177004584Y-97310000D01*
X190264353Y-97310000D01*
X190284834Y-97452456D01*
X190340473Y-97574286D01*
X190344623Y-97583373D01*
X190438872Y-97692143D01*
X190559947Y-97769953D01*
X190559950Y-97769954D01*
X190559949Y-97769954D01*
X190698036Y-97810499D01*
X190698038Y-97810500D01*
X190698039Y-97810500D01*
X190841962Y-97810500D01*
X190841962Y-97810499D01*
X190980053Y-97769953D01*
X191101128Y-97692143D01*
X191195377Y-97583373D01*
X191255165Y-97452457D01*
X191275647Y-97310000D01*
X191255165Y-97167543D01*
X191195377Y-97036627D01*
X191101128Y-96927857D01*
X190980053Y-96850047D01*
X190980051Y-96850046D01*
X190980049Y-96850045D01*
X190980050Y-96850045D01*
X190841963Y-96809500D01*
X190841961Y-96809500D01*
X190698039Y-96809500D01*
X190698036Y-96809500D01*
X190559949Y-96850045D01*
X190438873Y-96927856D01*
X190344623Y-97036626D01*
X190344622Y-97036628D01*
X190284834Y-97167543D01*
X190264353Y-97310000D01*
X177004584Y-97310000D01*
X176849100Y-97297016D01*
X176824986Y-97295003D01*
X176824985Y-97295003D01*
X176608551Y-97313076D01*
X176398105Y-97366799D01*
X176240480Y-97436542D01*
X176204516Y-97452456D01*
X176199487Y-97454681D01*
X176199481Y-97454684D01*
X176018195Y-97574288D01*
X176018191Y-97574291D01*
X175859264Y-97722296D01*
X175859257Y-97722303D01*
X175752755Y-97861145D01*
X175727066Y-97894634D01*
X175727063Y-97894640D01*
X175625288Y-98086501D01*
X175556745Y-98292587D01*
X175556744Y-98292591D01*
X175556427Y-98294622D01*
X175556066Y-98295386D01*
X175555532Y-98297589D01*
X175555079Y-98297479D01*
X175526620Y-98357814D01*
X175467380Y-98394860D01*
X175433916Y-98399461D01*
X158216129Y-98399461D01*
X158149090Y-98379776D01*
X158103335Y-98326972D01*
X158096105Y-98302876D01*
X158095324Y-98303062D01*
X158094196Y-98298320D01*
X158031058Y-98102717D01*
X158031053Y-98102701D01*
X158031052Y-98102699D01*
X158031051Y-98102696D01*
X157937968Y-97919435D01*
X157937962Y-97919424D01*
X157817248Y-97753057D01*
X157817246Y-97753054D01*
X157671890Y-97607707D01*
X157505509Y-97486996D01*
X157505502Y-97486992D01*
X157505497Y-97486989D01*
X157322236Y-97393922D01*
X157322232Y-97393920D01*
X157322231Y-97393920D01*
X157126609Y-97330787D01*
X157126602Y-97330785D01*
X157121859Y-97329658D01*
X157122348Y-97327597D01*
X157067153Y-97301579D01*
X157030094Y-97242347D01*
X157025485Y-97208856D01*
X157025485Y-91599000D01*
X157045170Y-91531961D01*
X157097974Y-91486206D01*
X157149485Y-91475000D01*
X159076000Y-91475000D01*
X159143039Y-91494685D01*
X159188794Y-91547489D01*
X159200000Y-91599000D01*
X159200000Y-92478265D01*
X159183473Y-92540116D01*
X158738576Y-93313179D01*
X158688076Y-93361465D01*
X158642680Y-93374786D01*
X158615300Y-93377353D01*
X158615298Y-93377353D01*
X158487119Y-93422206D01*
X158487117Y-93422207D01*
X158377850Y-93502850D01*
X158297207Y-93612117D01*
X158297206Y-93612119D01*
X158252353Y-93740298D01*
X158252353Y-93740300D01*
X158249500Y-93770730D01*
X158249500Y-96129269D01*
X158252353Y-96159699D01*
X158252353Y-96159701D01*
X158294963Y-96281469D01*
X158297207Y-96287882D01*
X158377850Y-96397150D01*
X158487118Y-96477793D01*
X158529845Y-96492744D01*
X158615299Y-96522646D01*
X158645730Y-96525500D01*
X158645734Y-96525500D01*
X161004270Y-96525500D01*
X161034699Y-96522646D01*
X161034701Y-96522646D01*
X161098790Y-96500219D01*
X161162882Y-96477793D01*
X161272150Y-96397150D01*
X161352793Y-96287882D01*
X161379373Y-96211920D01*
X161397646Y-96159701D01*
X161397646Y-96159699D01*
X161400500Y-96129269D01*
X161400500Y-95768475D01*
X163124500Y-95768475D01*
X163124500Y-96231517D01*
X163131950Y-96278553D01*
X163139354Y-96325304D01*
X163196950Y-96438342D01*
X163196952Y-96438344D01*
X163196954Y-96438347D01*
X163286652Y-96528045D01*
X163286654Y-96528046D01*
X163286658Y-96528050D01*
X163399694Y-96585645D01*
X163399698Y-96585647D01*
X163493475Y-96600499D01*
X163493481Y-96600500D01*
X164106518Y-96600499D01*
X164200304Y-96585646D01*
X164313342Y-96528050D01*
X164403050Y-96438342D01*
X164426049Y-96393203D01*
X164474023Y-96342409D01*
X164536533Y-96325500D01*
X164983802Y-96325500D01*
X165050841Y-96345185D01*
X165094802Y-96394228D01*
X165161344Y-96527862D01*
X165288699Y-96696508D01*
X165412647Y-96809500D01*
X165444872Y-96838877D01*
X165624547Y-96950128D01*
X165821605Y-97026468D01*
X166029336Y-97065300D01*
X166029338Y-97065300D01*
X166240662Y-97065300D01*
X166240664Y-97065300D01*
X166448395Y-97026468D01*
X166645453Y-96950128D01*
X166825128Y-96838877D01*
X166981302Y-96696506D01*
X167108656Y-96527862D01*
X167202853Y-96338689D01*
X167202856Y-96338678D01*
X167204919Y-96333353D01*
X167206484Y-96333959D01*
X167239602Y-96281469D01*
X167302913Y-96251914D01*
X167321585Y-96250500D01*
X167488415Y-96250500D01*
X167555454Y-96270185D01*
X167601209Y-96322989D01*
X167605032Y-96333371D01*
X167605081Y-96333353D01*
X167607146Y-96338687D01*
X167607147Y-96338689D01*
X167607147Y-96338690D01*
X167607151Y-96338699D01*
X167701344Y-96527862D01*
X167828699Y-96696508D01*
X167952647Y-96809500D01*
X167984872Y-96838877D01*
X168164547Y-96950128D01*
X168361605Y-97026468D01*
X168569336Y-97065300D01*
X168569338Y-97065300D01*
X168780662Y-97065300D01*
X168780664Y-97065300D01*
X168988395Y-97026468D01*
X169185453Y-96950128D01*
X169365128Y-96838877D01*
X169521302Y-96696506D01*
X169648656Y-96527862D01*
X169742853Y-96338689D01*
X169742853Y-96338686D01*
X169742855Y-96338684D01*
X169800685Y-96135429D01*
X169800686Y-96135426D01*
X169820185Y-95925000D01*
X169820185Y-95924999D01*
X170070317Y-95924999D01*
X170070317Y-95925000D01*
X170089806Y-96135334D01*
X170147614Y-96338504D01*
X170147619Y-96338517D01*
X170241771Y-96527598D01*
X170249118Y-96537327D01*
X170725504Y-96060941D01*
X170741619Y-96121081D01*
X170808498Y-96236920D01*
X170903080Y-96331502D01*
X171018919Y-96398381D01*
X171079057Y-96414494D01*
X170605401Y-96888150D01*
X170704770Y-96949677D01*
X170704771Y-96949678D01*
X170901740Y-97025983D01*
X171109384Y-97064800D01*
X171320616Y-97064800D01*
X171528259Y-97025983D01*
X171725228Y-96949678D01*
X171725232Y-96949676D01*
X171824596Y-96888151D01*
X171824596Y-96888150D01*
X171350942Y-96414494D01*
X171411081Y-96398381D01*
X171526920Y-96331502D01*
X171621502Y-96236920D01*
X171688381Y-96121081D01*
X171704495Y-96060941D01*
X172180880Y-96537326D01*
X172180881Y-96537326D01*
X172188228Y-96527598D01*
X172282380Y-96338517D01*
X172282385Y-96338504D01*
X172340193Y-96135334D01*
X172359683Y-95925000D01*
X172359683Y-95924999D01*
X172340193Y-95714665D01*
X172282385Y-95511495D01*
X172282380Y-95511482D01*
X172188232Y-95322407D01*
X172188227Y-95322399D01*
X172180880Y-95312671D01*
X171704494Y-95789057D01*
X171688381Y-95728919D01*
X171621502Y-95613080D01*
X171526920Y-95518498D01*
X171411081Y-95451619D01*
X171350941Y-95435504D01*
X171824597Y-94961848D01*
X171725227Y-94900321D01*
X171725226Y-94900320D01*
X171528259Y-94824016D01*
X171320616Y-94785200D01*
X171109384Y-94785200D01*
X170901740Y-94824016D01*
X170704772Y-94900321D01*
X170704765Y-94900325D01*
X170605402Y-94961847D01*
X170605401Y-94961848D01*
X171079058Y-95435504D01*
X171018919Y-95451619D01*
X170903080Y-95518498D01*
X170808498Y-95613080D01*
X170741619Y-95728919D01*
X170725504Y-95789058D01*
X170249118Y-95312672D01*
X170249117Y-95312672D01*
X170241770Y-95322402D01*
X170147619Y-95511482D01*
X170147614Y-95511495D01*
X170089806Y-95714665D01*
X170070317Y-95924999D01*
X169820185Y-95924999D01*
X169800686Y-95714573D01*
X169800685Y-95714570D01*
X169742855Y-95511315D01*
X169742852Y-95511309D01*
X169725515Y-95476492D01*
X169648656Y-95322138D01*
X169521302Y-95153494D01*
X169521300Y-95153491D01*
X169365129Y-95011124D01*
X169365128Y-95011123D01*
X169185453Y-94899872D01*
X169185443Y-94899867D01*
X169079706Y-94858904D01*
X169024304Y-94816332D01*
X169000714Y-94750565D01*
X169000500Y-94743278D01*
X169000500Y-93761188D01*
X169020185Y-93694149D01*
X169036819Y-93673507D01*
X170373507Y-92336819D01*
X170434830Y-92303334D01*
X170461188Y-92300500D01*
X173044723Y-92300500D01*
X173111762Y-92320185D01*
X173157517Y-92372989D01*
X173167461Y-92442147D01*
X173138436Y-92505703D01*
X173126269Y-92517166D01*
X173121722Y-92521713D01*
X173121718Y-92521717D01*
X173121718Y-92521718D01*
X173100766Y-92549023D01*
X173025463Y-92647160D01*
X172964956Y-92793237D01*
X172964955Y-92793239D01*
X172944318Y-92949998D01*
X172944318Y-92950001D01*
X172964956Y-93106765D01*
X172985769Y-93157012D01*
X172992706Y-93179680D01*
X172992759Y-93179941D01*
X172995514Y-93193446D01*
X173102971Y-93449362D01*
X173188619Y-93653339D01*
X173196424Y-93722771D01*
X173165451Y-93785401D01*
X173130585Y-93811829D01*
X173061659Y-93846949D01*
X173061652Y-93846954D01*
X172971954Y-93936652D01*
X172971951Y-93936657D01*
X172971950Y-93936658D01*
X172952751Y-93974337D01*
X172914352Y-94049698D01*
X172899500Y-94143475D01*
X172899500Y-94606517D01*
X172910292Y-94674657D01*
X172914354Y-94700304D01*
X172971950Y-94813342D01*
X172971952Y-94813344D01*
X172971954Y-94813347D01*
X173061652Y-94903045D01*
X173061654Y-94903046D01*
X173061658Y-94903050D01*
X173174694Y-94960645D01*
X173174698Y-94960647D01*
X173268475Y-94975499D01*
X173268481Y-94975500D01*
X173881518Y-94975499D01*
X173975304Y-94960646D01*
X174088342Y-94903050D01*
X174178050Y-94813342D01*
X174235646Y-94700304D01*
X174235646Y-94700302D01*
X174235647Y-94700301D01*
X174250499Y-94606524D01*
X174250500Y-94606519D01*
X174250499Y-94143482D01*
X174235646Y-94049696D01*
X174178050Y-93936658D01*
X174178046Y-93936654D01*
X174178045Y-93936652D01*
X174088347Y-93846954D01*
X174088343Y-93846951D01*
X174088342Y-93846950D01*
X174045854Y-93825301D01*
X174008740Y-93806390D01*
X173957945Y-93758416D01*
X173941150Y-93690594D01*
X173947706Y-93655784D01*
X174110448Y-93179941D01*
X174111458Y-93173237D01*
X174119511Y-93144260D01*
X174135044Y-93106762D01*
X174155682Y-92950000D01*
X174150633Y-92911652D01*
X174135044Y-92793239D01*
X174135044Y-92793238D01*
X174074536Y-92647159D01*
X173978282Y-92521718D01*
X173978279Y-92521715D01*
X173978277Y-92521713D01*
X173972535Y-92515971D01*
X173973814Y-92514691D01*
X173938587Y-92466445D01*
X173934434Y-92396699D01*
X173968647Y-92335780D01*
X174030365Y-92303028D01*
X174055277Y-92300500D01*
X174367851Y-92300500D01*
X174367853Y-92300500D01*
X174450639Y-92278318D01*
X174524862Y-92235465D01*
X175290571Y-91469754D01*
X175351892Y-91436271D01*
X175421583Y-91441255D01*
X175477517Y-91483126D01*
X175482872Y-91492530D01*
X175482974Y-91492462D01*
X175533769Y-91568482D01*
X175547888Y-91589612D01*
X175626540Y-91642165D01*
X175671344Y-91695775D01*
X175680051Y-91765100D01*
X175649897Y-91828128D01*
X175645329Y-91832947D01*
X174964537Y-92513739D01*
X174964533Y-92513745D01*
X174921681Y-92587965D01*
X174921682Y-92587966D01*
X174899500Y-92670751D01*
X174899500Y-95388811D01*
X174879815Y-95455850D01*
X174863181Y-95476492D01*
X174801492Y-95538181D01*
X174740169Y-95571666D01*
X174713811Y-95574500D01*
X174217254Y-95574500D01*
X174150215Y-95554815D01*
X174129572Y-95538180D01*
X174088346Y-95496953D01*
X174088344Y-95496952D01*
X174088342Y-95496950D01*
X174007679Y-95455850D01*
X173975301Y-95439352D01*
X173881524Y-95424500D01*
X173268482Y-95424500D01*
X173187519Y-95437323D01*
X173174696Y-95439354D01*
X173061658Y-95496950D01*
X173061657Y-95496951D01*
X173061652Y-95496954D01*
X172971954Y-95586652D01*
X172971951Y-95586657D01*
X172971950Y-95586658D01*
X172966127Y-95598086D01*
X172914352Y-95699698D01*
X172899500Y-95793475D01*
X172899500Y-96256517D01*
X172907417Y-96306502D01*
X172914354Y-96350304D01*
X172971950Y-96463342D01*
X172971952Y-96463344D01*
X172971954Y-96463347D01*
X173061652Y-96553045D01*
X173061654Y-96553046D01*
X173061658Y-96553050D01*
X173174694Y-96610645D01*
X173174698Y-96610647D01*
X173268475Y-96625499D01*
X173268481Y-96625500D01*
X173881518Y-96625499D01*
X173975304Y-96610646D01*
X174088342Y-96553050D01*
X174178050Y-96463342D01*
X174235646Y-96350304D01*
X174238845Y-96330102D01*
X174268774Y-96266968D01*
X174328085Y-96230037D01*
X174361319Y-96225500D01*
X174832147Y-96225500D01*
X174857147Y-96225500D01*
X174942853Y-96225500D01*
X175207147Y-96225500D01*
X175482147Y-96225500D01*
X181338415Y-96225500D01*
X181405454Y-96245185D01*
X181451209Y-96297989D01*
X181455032Y-96308371D01*
X181455081Y-96308353D01*
X181457146Y-96313687D01*
X181457147Y-96313689D01*
X181457147Y-96313690D01*
X181457151Y-96313699D01*
X181551344Y-96502862D01*
X181678699Y-96671508D01*
X181813050Y-96793983D01*
X181834872Y-96813877D01*
X182014547Y-96925128D01*
X182211605Y-97001468D01*
X182419336Y-97040300D01*
X182419338Y-97040300D01*
X182630662Y-97040300D01*
X182630664Y-97040300D01*
X182838395Y-97001468D01*
X183035453Y-96925128D01*
X183215128Y-96813877D01*
X183371302Y-96671506D01*
X183498656Y-96502862D01*
X183592853Y-96313689D01*
X183592856Y-96313678D01*
X183594919Y-96308353D01*
X183596484Y-96308959D01*
X183629602Y-96256469D01*
X183692913Y-96226914D01*
X183711585Y-96225500D01*
X183878415Y-96225500D01*
X183945454Y-96245185D01*
X183991209Y-96297989D01*
X183995032Y-96308371D01*
X183995081Y-96308353D01*
X183997146Y-96313687D01*
X183997147Y-96313689D01*
X183997147Y-96313690D01*
X183997151Y-96313699D01*
X184091344Y-96502862D01*
X184218699Y-96671508D01*
X184353050Y-96793983D01*
X184374872Y-96813877D01*
X184554547Y-96925128D01*
X184751605Y-97001468D01*
X184959336Y-97040300D01*
X184959338Y-97040300D01*
X185170662Y-97040300D01*
X185170664Y-97040300D01*
X185378395Y-97001468D01*
X185575453Y-96925128D01*
X185755128Y-96813877D01*
X185911302Y-96671506D01*
X186038656Y-96502862D01*
X186132853Y-96313689D01*
X186132853Y-96313686D01*
X186132855Y-96313684D01*
X186185326Y-96129266D01*
X186190686Y-96110427D01*
X186210185Y-95900000D01*
X186210185Y-95899999D01*
X186460317Y-95899999D01*
X186460317Y-95900000D01*
X186479806Y-96110334D01*
X186537614Y-96313504D01*
X186537619Y-96313517D01*
X186631771Y-96502598D01*
X186639118Y-96512327D01*
X187115504Y-96035941D01*
X187131619Y-96096081D01*
X187198498Y-96211920D01*
X187293080Y-96306502D01*
X187408919Y-96373381D01*
X187469057Y-96389494D01*
X186995401Y-96863150D01*
X187094770Y-96924677D01*
X187094771Y-96924678D01*
X187291740Y-97000983D01*
X187499384Y-97039800D01*
X187710616Y-97039800D01*
X187918259Y-97000983D01*
X188115228Y-96924678D01*
X188115232Y-96924676D01*
X188214596Y-96863151D01*
X188214596Y-96863150D01*
X187740942Y-96389494D01*
X187801081Y-96373381D01*
X187916920Y-96306502D01*
X188011502Y-96211920D01*
X188078381Y-96096081D01*
X188094495Y-96035941D01*
X188570880Y-96512326D01*
X188570881Y-96512326D01*
X188578228Y-96502598D01*
X188672380Y-96313517D01*
X188672385Y-96313504D01*
X188730193Y-96110334D01*
X188749683Y-95900000D01*
X188749683Y-95899999D01*
X188730193Y-95689665D01*
X188672385Y-95486495D01*
X188672380Y-95486482D01*
X188578232Y-95297407D01*
X188578227Y-95297399D01*
X188570880Y-95287671D01*
X188094494Y-95764057D01*
X188078381Y-95703919D01*
X188011502Y-95588080D01*
X187916920Y-95493498D01*
X187801081Y-95426619D01*
X187740941Y-95410504D01*
X188214597Y-94936848D01*
X188115227Y-94875321D01*
X188115226Y-94875320D01*
X187918259Y-94799016D01*
X187710616Y-94760200D01*
X187499384Y-94760200D01*
X187291740Y-94799016D01*
X187094772Y-94875321D01*
X187094765Y-94875325D01*
X186995402Y-94936847D01*
X186995401Y-94936848D01*
X187469058Y-95410504D01*
X187408919Y-95426619D01*
X187293080Y-95493498D01*
X187198498Y-95588080D01*
X187131619Y-95703919D01*
X187115504Y-95764058D01*
X186639118Y-95287672D01*
X186639117Y-95287672D01*
X186631770Y-95297402D01*
X186537619Y-95486482D01*
X186537614Y-95486495D01*
X186479806Y-95689665D01*
X186460317Y-95899999D01*
X186210185Y-95899999D01*
X186190686Y-95689573D01*
X186161809Y-95588080D01*
X186132855Y-95486315D01*
X186132852Y-95486309D01*
X186097428Y-95415169D01*
X186038656Y-95297138D01*
X185911302Y-95128494D01*
X185911300Y-95128491D01*
X185755129Y-94986124D01*
X185755128Y-94986123D01*
X185575453Y-94874872D01*
X185575452Y-94874871D01*
X185431365Y-94819052D01*
X185378395Y-94798532D01*
X185170664Y-94759700D01*
X184959336Y-94759700D01*
X184751605Y-94798532D01*
X184751602Y-94798532D01*
X184751602Y-94798533D01*
X184554547Y-94874871D01*
X184554546Y-94874872D01*
X184374870Y-94986124D01*
X184218699Y-95128491D01*
X184091344Y-95297137D01*
X183997151Y-95486300D01*
X183995081Y-95491647D01*
X183993515Y-95491040D01*
X183960398Y-95543531D01*
X183897087Y-95573086D01*
X183878415Y-95574500D01*
X183711585Y-95574500D01*
X183644546Y-95554815D01*
X183598791Y-95502011D01*
X183594967Y-95491628D01*
X183594919Y-95491647D01*
X183592854Y-95486315D01*
X183592853Y-95486311D01*
X183577685Y-95455850D01*
X183511234Y-95322399D01*
X183498656Y-95297138D01*
X183371302Y-95128494D01*
X183371300Y-95128491D01*
X183215129Y-94986124D01*
X183215128Y-94986123D01*
X183035453Y-94874872D01*
X183035452Y-94874871D01*
X182891365Y-94819052D01*
X182838395Y-94798532D01*
X182630664Y-94759700D01*
X182419336Y-94759700D01*
X182211605Y-94798532D01*
X182211602Y-94798532D01*
X182211602Y-94798533D01*
X182014547Y-94874871D01*
X182014546Y-94874872D01*
X181834870Y-94986124D01*
X181678699Y-95128491D01*
X181551344Y-95297137D01*
X181457151Y-95486300D01*
X181455081Y-95491647D01*
X181453515Y-95491040D01*
X181420398Y-95543531D01*
X181357087Y-95573086D01*
X181338415Y-95574500D01*
X175736189Y-95574500D01*
X175669150Y-95554815D01*
X175648508Y-95538181D01*
X175586819Y-95476492D01*
X175553334Y-95415169D01*
X175550500Y-95388811D01*
X175550500Y-94164081D01*
X175570185Y-94097042D01*
X175622989Y-94051287D01*
X175692147Y-94041343D01*
X175730789Y-94053595D01*
X175791874Y-94084719D01*
X175791875Y-94084719D01*
X175791877Y-94084720D01*
X175891507Y-94100500D01*
X175891512Y-94100500D01*
X176408493Y-94100500D01*
X176508121Y-94084720D01*
X176508121Y-94084719D01*
X176508126Y-94084719D01*
X176628220Y-94023528D01*
X176723528Y-93928220D01*
X176784719Y-93808126D01*
X176787692Y-93789354D01*
X176800500Y-93708493D01*
X176800500Y-93141506D01*
X176784720Y-93041878D01*
X176784719Y-93041876D01*
X176784719Y-93041874D01*
X176723528Y-92921780D01*
X176723526Y-92921778D01*
X176723523Y-92921774D01*
X176628225Y-92826476D01*
X176628222Y-92826474D01*
X176628220Y-92826472D01*
X176543204Y-92783154D01*
X176492409Y-92735180D01*
X176475500Y-92672670D01*
X176475500Y-92611187D01*
X176495185Y-92544148D01*
X176511815Y-92523510D01*
X176989652Y-92045672D01*
X176989657Y-92045669D01*
X176999860Y-92035465D01*
X176999862Y-92035465D01*
X177060465Y-91974862D01*
X177085126Y-91932147D01*
X177103318Y-91900639D01*
X177125500Y-91817853D01*
X177125500Y-91732147D01*
X177125500Y-91007147D01*
X177125500Y-90997158D01*
X177125499Y-90997144D01*
X177125499Y-90674102D01*
X177125499Y-90674100D01*
X177125498Y-90674094D01*
X177474500Y-90674094D01*
X177474500Y-91692852D01*
X177496682Y-91775640D01*
X177518108Y-91812750D01*
X177539535Y-91849862D01*
X177825138Y-92135465D01*
X177899361Y-92178318D01*
X177982147Y-92200500D01*
X178550253Y-92200500D01*
X178617292Y-92220185D01*
X178660738Y-92268205D01*
X178664353Y-92275300D01*
X178664354Y-92275304D01*
X178721950Y-92388342D01*
X178721951Y-92388343D01*
X178721954Y-92388347D01*
X178811652Y-92478045D01*
X178811654Y-92478046D01*
X178811658Y-92478050D01*
X178856796Y-92501049D01*
X178907591Y-92549023D01*
X178924500Y-92611533D01*
X178924500Y-92688466D01*
X178904815Y-92755505D01*
X178856796Y-92798950D01*
X178811656Y-92821950D01*
X178721954Y-92911652D01*
X178721951Y-92911657D01*
X178721950Y-92911658D01*
X178716796Y-92921774D01*
X178664352Y-93024698D01*
X178649500Y-93118475D01*
X178649500Y-93731517D01*
X178660292Y-93799657D01*
X178664354Y-93825304D01*
X178721950Y-93938342D01*
X178721952Y-93938344D01*
X178721954Y-93938347D01*
X178811652Y-94028045D01*
X178811654Y-94028046D01*
X178811658Y-94028050D01*
X178922877Y-94084719D01*
X178924698Y-94085647D01*
X179018475Y-94100499D01*
X179018481Y-94100500D01*
X179481518Y-94100499D01*
X179575304Y-94085646D01*
X179688342Y-94028050D01*
X179778050Y-93938342D01*
X179835646Y-93825304D01*
X179835646Y-93825302D01*
X179835647Y-93825301D01*
X179849109Y-93740300D01*
X179850500Y-93731519D01*
X179850500Y-93731479D01*
X180300001Y-93731479D01*
X180314835Y-93825149D01*
X180314837Y-93825155D01*
X180372356Y-93938041D01*
X180372363Y-93938050D01*
X180461949Y-94027636D01*
X180461958Y-94027643D01*
X180574844Y-94085162D01*
X180574850Y-94085164D01*
X180650000Y-94097065D01*
X180650000Y-94097064D01*
X181150000Y-94097064D01*
X181225149Y-94085164D01*
X181225155Y-94085162D01*
X181338041Y-94027643D01*
X181338050Y-94027636D01*
X181427636Y-93938050D01*
X181427639Y-93938046D01*
X181485166Y-93825144D01*
X181500000Y-93731486D01*
X181500000Y-93675000D01*
X181150000Y-93675000D01*
X181150000Y-94097064D01*
X180650000Y-94097064D01*
X180650000Y-93675000D01*
X180300001Y-93675000D01*
X180300001Y-93731479D01*
X179850500Y-93731479D01*
X179850499Y-93118482D01*
X179835646Y-93024696D01*
X179778050Y-92911658D01*
X179778046Y-92911654D01*
X179778045Y-92911652D01*
X179688343Y-92821950D01*
X179643204Y-92798950D01*
X179592409Y-92750975D01*
X179575500Y-92688466D01*
X179575500Y-92611533D01*
X179595185Y-92544494D01*
X179643203Y-92501049D01*
X179688342Y-92478050D01*
X179778050Y-92388342D01*
X179835646Y-92275304D01*
X179835646Y-92275302D01*
X179835647Y-92275301D01*
X179850499Y-92181524D01*
X179850500Y-92181519D01*
X179850499Y-91568482D01*
X179850498Y-91568475D01*
X180299500Y-91568475D01*
X180299500Y-92181517D01*
X180310292Y-92249657D01*
X180314354Y-92275304D01*
X180371950Y-92388342D01*
X180371952Y-92388344D01*
X180371954Y-92388347D01*
X180461652Y-92478045D01*
X180461656Y-92478048D01*
X180461658Y-92478050D01*
X180574696Y-92535646D01*
X180574699Y-92535646D01*
X180582839Y-92539794D01*
X180633635Y-92587768D01*
X180650430Y-92655589D01*
X180627893Y-92721724D01*
X180582840Y-92760763D01*
X180461956Y-92822358D01*
X180461949Y-92822363D01*
X180372363Y-92911949D01*
X180372360Y-92911953D01*
X180314833Y-93024855D01*
X180300000Y-93118513D01*
X180300000Y-93175000D01*
X181499999Y-93175000D01*
X181499999Y-93118520D01*
X181485164Y-93024850D01*
X181485162Y-93024844D01*
X181427643Y-92911958D01*
X181427636Y-92911949D01*
X181338050Y-92822363D01*
X181338045Y-92822360D01*
X181217159Y-92760765D01*
X181166363Y-92712790D01*
X181149568Y-92644969D01*
X181172105Y-92578834D01*
X181217159Y-92539795D01*
X181225300Y-92535646D01*
X181225304Y-92535646D01*
X181338342Y-92478050D01*
X181428050Y-92388342D01*
X181485646Y-92275304D01*
X181485646Y-92275303D01*
X181489263Y-92268205D01*
X181537238Y-92217409D01*
X181599748Y-92200500D01*
X182152147Y-92200500D01*
X182237853Y-92200500D01*
X182299121Y-92200500D01*
X182337708Y-92206657D01*
X182547344Y-92275301D01*
X182932699Y-92401483D01*
X182937765Y-92402195D01*
X182967946Y-92410426D01*
X182989274Y-92419260D01*
X183003238Y-92425044D01*
X183081619Y-92435363D01*
X183159999Y-92445682D01*
X183160000Y-92445682D01*
X183160001Y-92445682D01*
X183212254Y-92438802D01*
X183316762Y-92425044D01*
X183462841Y-92364536D01*
X183588282Y-92268282D01*
X183684536Y-92142841D01*
X183745044Y-91996762D01*
X183765682Y-91840000D01*
X183764753Y-91832947D01*
X183749164Y-91714534D01*
X183745044Y-91683238D01*
X183684536Y-91537159D01*
X183684535Y-91537158D01*
X183684535Y-91537157D01*
X183616866Y-91448969D01*
X183591672Y-91383800D01*
X183605710Y-91315355D01*
X183616863Y-91298001D01*
X183674536Y-91222841D01*
X183735044Y-91076762D01*
X183755682Y-90920000D01*
X183735044Y-90763238D01*
X183674536Y-90617159D01*
X183578282Y-90491718D01*
X183452841Y-90395464D01*
X183306762Y-90334956D01*
X183306760Y-90334955D01*
X183150001Y-90314318D01*
X183149999Y-90314318D01*
X182993239Y-90334955D01*
X182993237Y-90334956D01*
X182847160Y-90395463D01*
X182721716Y-90491719D01*
X182625463Y-90617159D01*
X182607442Y-90660665D01*
X182593784Y-90685284D01*
X182588494Y-90692688D01*
X182588487Y-90692701D01*
X182357933Y-91203503D01*
X182327570Y-91270773D01*
X182302230Y-91307441D01*
X182096490Y-91513182D01*
X182035170Y-91546666D01*
X182008811Y-91549500D01*
X181599747Y-91549500D01*
X181532708Y-91529815D01*
X181489262Y-91481795D01*
X181485646Y-91474698D01*
X181485646Y-91474696D01*
X181428050Y-91361658D01*
X181428048Y-91361656D01*
X181428045Y-91361652D01*
X181338347Y-91271954D01*
X181338344Y-91271952D01*
X181338342Y-91271950D01*
X181241961Y-91222841D01*
X181225301Y-91214352D01*
X181131524Y-91199500D01*
X180668482Y-91199500D01*
X180587519Y-91212323D01*
X180574696Y-91214354D01*
X180461658Y-91271950D01*
X180461657Y-91271951D01*
X180461652Y-91271954D01*
X180371954Y-91361652D01*
X180371952Y-91361656D01*
X180371950Y-91361658D01*
X180360668Y-91383800D01*
X180314352Y-91474698D01*
X180299500Y-91568475D01*
X179850498Y-91568475D01*
X179835646Y-91474696D01*
X179778050Y-91361658D01*
X179778046Y-91361654D01*
X179778045Y-91361652D01*
X179688347Y-91271954D01*
X179688344Y-91271952D01*
X179688342Y-91271950D01*
X179591961Y-91222841D01*
X179575301Y-91214352D01*
X179481524Y-91199500D01*
X179018482Y-91199500D01*
X178937519Y-91212323D01*
X178924696Y-91214354D01*
X178811658Y-91271950D01*
X178811657Y-91271951D01*
X178811652Y-91271954D01*
X178721954Y-91361652D01*
X178721952Y-91361656D01*
X178721950Y-91361658D01*
X178710668Y-91383800D01*
X178660737Y-91481795D01*
X178612762Y-91532591D01*
X178550252Y-91549500D01*
X178249500Y-91549500D01*
X178182461Y-91529815D01*
X178136706Y-91477011D01*
X178125500Y-91425500D01*
X178125500Y-90997158D01*
X178125499Y-90997144D01*
X178125499Y-90674102D01*
X178125499Y-90674100D01*
X178110240Y-90597383D01*
X178110239Y-90597381D01*
X178110238Y-90597379D01*
X178086861Y-90562394D01*
X178052112Y-90510388D01*
X177965117Y-90452260D01*
X177965115Y-90452259D01*
X177965112Y-90452258D01*
X177888404Y-90437000D01*
X177711601Y-90437000D01*
X177634881Y-90452260D01*
X177634879Y-90452261D01*
X177547888Y-90510388D01*
X177489760Y-90597383D01*
X177489758Y-90597387D01*
X177474500Y-90674094D01*
X177125498Y-90674094D01*
X177110240Y-90597383D01*
X177110239Y-90597381D01*
X177110238Y-90597379D01*
X177086861Y-90562394D01*
X177052112Y-90510388D01*
X176965117Y-90452260D01*
X176965115Y-90452259D01*
X176965112Y-90452258D01*
X176888404Y-90437000D01*
X176711601Y-90437000D01*
X176634880Y-90452260D01*
X176618889Y-90462946D01*
X176552212Y-90483823D01*
X176484832Y-90465337D01*
X176481111Y-90462946D01*
X176465117Y-90452259D01*
X176388403Y-90437000D01*
X176211601Y-90437000D01*
X176134880Y-90452260D01*
X176118889Y-90462946D01*
X176052212Y-90483823D01*
X175984832Y-90465337D01*
X175981111Y-90462946D01*
X175965117Y-90452259D01*
X175888403Y-90437000D01*
X175711601Y-90437000D01*
X175634881Y-90452260D01*
X175634879Y-90452261D01*
X175547888Y-90510388D01*
X175489760Y-90597383D01*
X175489758Y-90597387D01*
X175484327Y-90624692D01*
X175451942Y-90686603D01*
X175391226Y-90721177D01*
X175362710Y-90724500D01*
X175300465Y-90724500D01*
X175300449Y-90724499D01*
X175292853Y-90724499D01*
X175207148Y-90724499D01*
X175165755Y-90735590D01*
X175124360Y-90746682D01*
X175124355Y-90746685D01*
X175050144Y-90789530D01*
X175050136Y-90789536D01*
X174226492Y-91613181D01*
X174165169Y-91646666D01*
X174138811Y-91649500D01*
X170325465Y-91649500D01*
X170325449Y-91649499D01*
X170317853Y-91649499D01*
X170232147Y-91649499D01*
X170181766Y-91662999D01*
X170149360Y-91671682D01*
X170136010Y-91679390D01*
X170132431Y-91681457D01*
X170107631Y-91695775D01*
X170075139Y-91714534D01*
X170075136Y-91714536D01*
X168414537Y-93375135D01*
X168414533Y-93375141D01*
X168371681Y-93449361D01*
X168371682Y-93449362D01*
X168349500Y-93532147D01*
X168349500Y-94743278D01*
X168329815Y-94810317D01*
X168277011Y-94856072D01*
X168270294Y-94858904D01*
X168164556Y-94899867D01*
X168164546Y-94899872D01*
X167984870Y-95011124D01*
X167828699Y-95153491D01*
X167701344Y-95322137D01*
X167607151Y-95511300D01*
X167605081Y-95516647D01*
X167603515Y-95516040D01*
X167570398Y-95568531D01*
X167507087Y-95598086D01*
X167488415Y-95599500D01*
X167321585Y-95599500D01*
X167254546Y-95579815D01*
X167208791Y-95527011D01*
X167204967Y-95516628D01*
X167204919Y-95516647D01*
X167202854Y-95511315D01*
X167202853Y-95511311D01*
X167198222Y-95502011D01*
X167141855Y-95388811D01*
X167108656Y-95322138D01*
X166981302Y-95153494D01*
X166981300Y-95153491D01*
X166825129Y-95011124D01*
X166825128Y-95011123D01*
X166645453Y-94899872D01*
X166645452Y-94899871D01*
X166501365Y-94844052D01*
X166448395Y-94823532D01*
X166240664Y-94784700D01*
X166029336Y-94784700D01*
X165821605Y-94823532D01*
X165821602Y-94823532D01*
X165821602Y-94823533D01*
X165624547Y-94899871D01*
X165624546Y-94899872D01*
X165444870Y-95011124D01*
X165288699Y-95153491D01*
X165161344Y-95322137D01*
X165067147Y-95511309D01*
X165067144Y-95511315D01*
X165046341Y-95584434D01*
X165009062Y-95643527D01*
X164945753Y-95673085D01*
X164927075Y-95674500D01*
X164536533Y-95674500D01*
X164469494Y-95654815D01*
X164426049Y-95606796D01*
X164403050Y-95561658D01*
X164403046Y-95561654D01*
X164403045Y-95561652D01*
X164313347Y-95471954D01*
X164313344Y-95471952D01*
X164313342Y-95471950D01*
X164236517Y-95432805D01*
X164200301Y-95414352D01*
X164106524Y-95399500D01*
X163493482Y-95399500D01*
X163412519Y-95412323D01*
X163399696Y-95414354D01*
X163286658Y-95471950D01*
X163286657Y-95471951D01*
X163286652Y-95471954D01*
X163196954Y-95561652D01*
X163196951Y-95561657D01*
X163139352Y-95674698D01*
X163124500Y-95768475D01*
X161400500Y-95768475D01*
X161400500Y-93770730D01*
X161397646Y-93740300D01*
X161397646Y-93740298D01*
X161352793Y-93612119D01*
X161352792Y-93612117D01*
X161272150Y-93502850D01*
X161162882Y-93422207D01*
X161162880Y-93422206D01*
X161034700Y-93377353D01*
X161007316Y-93374785D01*
X160942407Y-93348926D01*
X160911423Y-93313178D01*
X160842518Y-93193448D01*
X160680516Y-92911949D01*
X160466527Y-92540117D01*
X160450000Y-92478266D01*
X160450000Y-91599000D01*
X160469685Y-91531961D01*
X160522489Y-91486206D01*
X160574000Y-91475000D01*
X163350500Y-91475000D01*
X163417539Y-91494685D01*
X163463294Y-91547489D01*
X163474500Y-91599000D01*
X163474500Y-93650252D01*
X163454815Y-93717291D01*
X163406795Y-93760737D01*
X163399696Y-93764353D01*
X163399696Y-93764354D01*
X163286658Y-93821950D01*
X163286657Y-93821951D01*
X163286652Y-93821954D01*
X163196954Y-93911652D01*
X163196951Y-93911657D01*
X163139352Y-94024698D01*
X163124500Y-94118475D01*
X163124500Y-94581517D01*
X163128460Y-94606517D01*
X163139354Y-94675304D01*
X163196950Y-94788342D01*
X163196952Y-94788344D01*
X163196954Y-94788347D01*
X163286652Y-94878045D01*
X163286654Y-94878046D01*
X163286658Y-94878050D01*
X163399694Y-94935645D01*
X163399698Y-94935647D01*
X163493475Y-94950499D01*
X163493481Y-94950500D01*
X164106518Y-94950499D01*
X164200304Y-94935646D01*
X164313342Y-94878050D01*
X164403050Y-94788342D01*
X164460646Y-94675304D01*
X164460646Y-94675302D01*
X164460647Y-94675301D01*
X164475499Y-94581524D01*
X164475500Y-94581519D01*
X164475499Y-94118482D01*
X164460646Y-94024696D01*
X164403050Y-93911658D01*
X164403046Y-93911654D01*
X164403045Y-93911652D01*
X164313347Y-93821954D01*
X164313344Y-93821952D01*
X164313342Y-93821950D01*
X164200304Y-93764354D01*
X164200303Y-93764353D01*
X164193205Y-93760737D01*
X164142409Y-93712762D01*
X164125500Y-93650252D01*
X164125500Y-91599000D01*
X164145185Y-91531961D01*
X164197989Y-91486206D01*
X164249500Y-91475000D01*
X167925001Y-91475000D01*
X169299972Y-90450021D01*
X169299975Y-90450018D01*
X169300000Y-90450000D01*
X170416332Y-89576349D01*
X170481257Y-89550534D01*
X170492754Y-89550000D01*
X189800000Y-89550000D01*
X191604181Y-88882699D01*
X191647196Y-88875000D01*
X196500485Y-88875000D01*
X196567524Y-88894685D01*
G37*
G04 #@! TD.AperFunction*
G04 #@! TA.AperFunction,Conductor*
G36*
X182790909Y-90771232D02*
G01*
X182933763Y-90830018D01*
X183146195Y-90917436D01*
X183152542Y-90923754D01*
X183152563Y-90923804D01*
X183298767Y-91279090D01*
X183298746Y-91288044D01*
X183292760Y-91294206D01*
X182680071Y-91570747D01*
X182671121Y-91571027D01*
X182666985Y-91568356D01*
X182501643Y-91403014D01*
X182498216Y-91394741D01*
X182499252Y-91389928D01*
X182545238Y-91288044D01*
X182775794Y-90777238D01*
X182782320Y-90771108D01*
X182790909Y-90771232D01*
G37*
G04 #@! TD.AperFunction*
G04 #@! TA.AperFunction,Conductor*
G36*
X194031805Y-82459484D02*
G01*
X194034374Y-82462088D01*
X195006154Y-83818824D01*
X195008185Y-83827545D01*
X195006736Y-83831553D01*
X194427890Y-84819216D01*
X194420750Y-84824621D01*
X194417796Y-84825000D01*
X193582327Y-84825000D01*
X193574054Y-84821573D01*
X193572141Y-84819056D01*
X193014194Y-83831598D01*
X193013107Y-83822709D01*
X193014960Y-83818904D01*
X194015446Y-82461956D01*
X194023113Y-82457333D01*
X194031805Y-82459484D01*
G37*
G04 #@! TD.AperFunction*
G04 #@! TA.AperFunction,Conductor*
G36*
X160251007Y-92578427D02*
G01*
X160252875Y-92580864D01*
X160821215Y-93568423D01*
X160822371Y-93577303D01*
X160820539Y-93581137D01*
X159834465Y-94937976D01*
X159826829Y-94942654D01*
X159818122Y-94940563D01*
X159815535Y-94937976D01*
X158829460Y-93581137D01*
X158827369Y-93572430D01*
X158828782Y-93568427D01*
X159397125Y-92580863D01*
X159404222Y-92575403D01*
X159407266Y-92575000D01*
X160242734Y-92575000D01*
X160251007Y-92578427D01*
G37*
G04 #@! TD.AperFunction*
G04 #@! TA.AperFunction,Conductor*
G36*
X173867681Y-93081447D02*
G01*
X173909437Y-93098856D01*
X173915755Y-93105203D01*
X173916005Y-93113441D01*
X173702707Y-93737113D01*
X173696788Y-93743832D01*
X173691637Y-93745027D01*
X173457777Y-93745027D01*
X173449504Y-93741600D01*
X173446989Y-93737857D01*
X173184989Y-93113887D01*
X173184946Y-93104932D01*
X173191244Y-93098571D01*
X173545500Y-92950875D01*
X173554449Y-92950855D01*
X173867681Y-93081447D01*
G37*
G04 #@! TD.AperFunction*
G04 #@! TA.AperFunction,Conductor*
G36*
X175500956Y-78820146D02*
G01*
X175546711Y-78872950D01*
X175556428Y-78905303D01*
X175556744Y-78907327D01*
X175556746Y-78907334D01*
X175625288Y-79113417D01*
X175727064Y-79305281D01*
X175727068Y-79305288D01*
X175835656Y-79446848D01*
X175859258Y-79477617D01*
X175859265Y-79477624D01*
X176018192Y-79625629D01*
X176018194Y-79625630D01*
X176018196Y-79625631D01*
X176018200Y-79625635D01*
X176199490Y-79745240D01*
X176199494Y-79745241D01*
X176199496Y-79745243D01*
X176211947Y-79750752D01*
X176398107Y-79833121D01*
X176608549Y-79886843D01*
X176824986Y-79904917D01*
X177041423Y-79886843D01*
X177212606Y-79843142D01*
X177251862Y-79833122D01*
X177251863Y-79833121D01*
X177251865Y-79833121D01*
X177450482Y-79745241D01*
X177631772Y-79625635D01*
X177631776Y-79625631D01*
X177631779Y-79625629D01*
X177769389Y-79497476D01*
X177790714Y-79477617D01*
X177922904Y-79305288D01*
X178024682Y-79113420D01*
X178093227Y-78907330D01*
X178093544Y-78905298D01*
X178093904Y-78904535D01*
X178094439Y-78902333D01*
X178094891Y-78902442D01*
X178123351Y-78842108D01*
X178182591Y-78805062D01*
X178216055Y-78800461D01*
X195433924Y-78800461D01*
X195500963Y-78820146D01*
X195546718Y-78872950D01*
X195553932Y-78897007D01*
X195554723Y-78896820D01*
X195555855Y-78901581D01*
X195618976Y-79097178D01*
X195618984Y-79097198D01*
X195712051Y-79280459D01*
X195818229Y-79426810D01*
X195832761Y-79446841D01*
X195978104Y-79592192D01*
X196144458Y-79712896D01*
X196144478Y-79712910D01*
X196327688Y-79805963D01*
X196327743Y-79805991D01*
X196523357Y-79869130D01*
X196523360Y-79869130D01*
X196528100Y-79870258D01*
X196527609Y-79872320D01*
X196582796Y-79898320D01*
X196619869Y-79957542D01*
X196624485Y-79991061D01*
X196624485Y-85076000D01*
X196604800Y-85143039D01*
X196551996Y-85188794D01*
X196500485Y-85200000D01*
X194749000Y-85200000D01*
X194681961Y-85180315D01*
X194636206Y-85127511D01*
X194625000Y-85076000D01*
X194625000Y-84922974D01*
X194642019Y-84860275D01*
X195095334Y-84086801D01*
X195146215Y-84038916D01*
X195201374Y-84025724D01*
X195201370Y-84025636D01*
X195201837Y-84025614D01*
X195202315Y-84025500D01*
X195204270Y-84025500D01*
X195234699Y-84022646D01*
X195234701Y-84022646D01*
X195298790Y-84000219D01*
X195362882Y-83977793D01*
X195472150Y-83897150D01*
X195552793Y-83787882D01*
X195593376Y-83671903D01*
X195597646Y-83659701D01*
X195597646Y-83659699D01*
X195600500Y-83629269D01*
X195600500Y-81270730D01*
X195597646Y-81240300D01*
X195597646Y-81240298D01*
X195552793Y-81112119D01*
X195552792Y-81112117D01*
X195514351Y-81060031D01*
X195472150Y-81002850D01*
X195362882Y-80922207D01*
X195362880Y-80922206D01*
X195234700Y-80877353D01*
X195204270Y-80874500D01*
X195204266Y-80874500D01*
X192845734Y-80874500D01*
X192845730Y-80874500D01*
X192815300Y-80877353D01*
X192815298Y-80877353D01*
X192687119Y-80922206D01*
X192687117Y-80922207D01*
X192577850Y-81002850D01*
X192497207Y-81112117D01*
X192497206Y-81112119D01*
X192452353Y-81240298D01*
X192452353Y-81240300D01*
X192449500Y-81270730D01*
X192449500Y-83629269D01*
X192452353Y-83659699D01*
X192452353Y-83659701D01*
X192488807Y-83763877D01*
X192497207Y-83787882D01*
X192577850Y-83897150D01*
X192687118Y-83977793D01*
X192721432Y-83989800D01*
X192815296Y-84022645D01*
X192815298Y-84022645D01*
X192815301Y-84022646D01*
X192825558Y-84023607D01*
X192890466Y-84049463D01*
X192921941Y-84086066D01*
X193358958Y-84859500D01*
X193375000Y-84920500D01*
X193375000Y-85076000D01*
X193355315Y-85143039D01*
X193302511Y-85188794D01*
X193251000Y-85200000D01*
X192100000Y-85200000D01*
X192099998Y-85200000D01*
X192099996Y-85200001D01*
X190700150Y-85774937D01*
X190700000Y-85775000D01*
X190350891Y-85919459D01*
X188526923Y-86674203D01*
X188523050Y-86675730D01*
X187146053Y-87192105D01*
X187102514Y-87200000D01*
X179934689Y-87200000D01*
X179867650Y-87180315D01*
X179821895Y-87127511D01*
X179811951Y-87058353D01*
X179840976Y-86994797D01*
X179847008Y-86988319D01*
X180675188Y-86160139D01*
X183163424Y-83671901D01*
X183224745Y-83638418D01*
X183294437Y-83643402D01*
X183334642Y-83667947D01*
X183439872Y-83763877D01*
X183619547Y-83875128D01*
X183816605Y-83951468D01*
X184024336Y-83990300D01*
X184024338Y-83990300D01*
X184235662Y-83990300D01*
X184235664Y-83990300D01*
X184443395Y-83951468D01*
X184640453Y-83875128D01*
X184820128Y-83763877D01*
X184976302Y-83621506D01*
X185103656Y-83452862D01*
X185197853Y-83263689D01*
X185197853Y-83263686D01*
X185197855Y-83263684D01*
X185255685Y-83060429D01*
X185255686Y-83060426D01*
X185275185Y-82850000D01*
X185275185Y-82849999D01*
X185525317Y-82849999D01*
X185525317Y-82850000D01*
X185544806Y-83060334D01*
X185602614Y-83263504D01*
X185602619Y-83263517D01*
X185696771Y-83452598D01*
X185704118Y-83462327D01*
X186180504Y-82985941D01*
X186196619Y-83046081D01*
X186263498Y-83161920D01*
X186358080Y-83256502D01*
X186473919Y-83323381D01*
X186534057Y-83339494D01*
X186060401Y-83813150D01*
X186159770Y-83874677D01*
X186159771Y-83874678D01*
X186356740Y-83950983D01*
X186564384Y-83989800D01*
X186775616Y-83989800D01*
X186983259Y-83950983D01*
X187180228Y-83874678D01*
X187180232Y-83874676D01*
X187279596Y-83813151D01*
X187279596Y-83813150D01*
X186805942Y-83339494D01*
X186866081Y-83323381D01*
X186981920Y-83256502D01*
X187076502Y-83161920D01*
X187143381Y-83046081D01*
X187159494Y-82985942D01*
X187635880Y-83462326D01*
X187635881Y-83462326D01*
X187643228Y-83452598D01*
X187737380Y-83263517D01*
X187737385Y-83263504D01*
X187795193Y-83060334D01*
X187814683Y-82850000D01*
X187814683Y-82849999D01*
X187795193Y-82639665D01*
X187737385Y-82436495D01*
X187737380Y-82436482D01*
X187643232Y-82247407D01*
X187643227Y-82247399D01*
X187635880Y-82237671D01*
X187159494Y-82714056D01*
X187143381Y-82653919D01*
X187076502Y-82538080D01*
X186981920Y-82443498D01*
X186866081Y-82376619D01*
X186805941Y-82360504D01*
X187279597Y-81886848D01*
X187180227Y-81825321D01*
X187180226Y-81825320D01*
X186983259Y-81749016D01*
X186775616Y-81710200D01*
X186564384Y-81710200D01*
X186356740Y-81749016D01*
X186159772Y-81825321D01*
X186159765Y-81825325D01*
X186060402Y-81886847D01*
X186060401Y-81886848D01*
X186534058Y-82360504D01*
X186473919Y-82376619D01*
X186358080Y-82443498D01*
X186263498Y-82538080D01*
X186196619Y-82653919D01*
X186180504Y-82714058D01*
X185704118Y-82237672D01*
X185704117Y-82237672D01*
X185696770Y-82247402D01*
X185602619Y-82436482D01*
X185602614Y-82436495D01*
X185544806Y-82639665D01*
X185525317Y-82849999D01*
X185275185Y-82849999D01*
X185255686Y-82639573D01*
X185255685Y-82639570D01*
X185197855Y-82436315D01*
X185197852Y-82436309D01*
X185157738Y-82355749D01*
X185103656Y-82247138D01*
X184976302Y-82078494D01*
X184976300Y-82078491D01*
X184820129Y-81936124D01*
X184820128Y-81936123D01*
X184640453Y-81824872D01*
X184640449Y-81824870D01*
X184605275Y-81811243D01*
X184549874Y-81768669D01*
X184526285Y-81702902D01*
X184541997Y-81634822D01*
X184562386Y-81607940D01*
X185488508Y-80681819D01*
X185549831Y-80648334D01*
X185576189Y-80645500D01*
X186055253Y-80645500D01*
X186122292Y-80665185D01*
X186165738Y-80713205D01*
X186169353Y-80720300D01*
X186169354Y-80720304D01*
X186226950Y-80833342D01*
X186226951Y-80833343D01*
X186226954Y-80833347D01*
X186316652Y-80923045D01*
X186316654Y-80923046D01*
X186316658Y-80923050D01*
X186429500Y-80980546D01*
X186429698Y-80980647D01*
X186523475Y-80995499D01*
X186523481Y-80995500D01*
X186986518Y-80995499D01*
X187080304Y-80980646D01*
X187193342Y-80923050D01*
X187283050Y-80833342D01*
X187340646Y-80720304D01*
X187340646Y-80720302D01*
X187340647Y-80720301D01*
X187355499Y-80626524D01*
X187355500Y-80626519D01*
X187355499Y-80013482D01*
X187355498Y-80013475D01*
X187804500Y-80013475D01*
X187804500Y-80626517D01*
X187813259Y-80681819D01*
X187819354Y-80720304D01*
X187876950Y-80833342D01*
X187876952Y-80833344D01*
X187876954Y-80833347D01*
X187966652Y-80923045D01*
X187966654Y-80923046D01*
X187966658Y-80923050D01*
X188011796Y-80946049D01*
X188062591Y-80994023D01*
X188079500Y-81056533D01*
X188079500Y-81217852D01*
X188101682Y-81300640D01*
X188115944Y-81325342D01*
X188144535Y-81374862D01*
X188917638Y-82147965D01*
X188991861Y-82190818D01*
X189074647Y-82213000D01*
X189160353Y-82213000D01*
X189461619Y-82213000D01*
X189528658Y-82232685D01*
X189572103Y-82280704D01*
X189610341Y-82355749D01*
X189610346Y-82355756D01*
X189704243Y-82449653D01*
X189704245Y-82449654D01*
X189704249Y-82449658D01*
X189822580Y-82509951D01*
X189822581Y-82509951D01*
X189822583Y-82509952D01*
X189822582Y-82509952D01*
X189920749Y-82525500D01*
X189920754Y-82525500D01*
X190499251Y-82525500D01*
X190597417Y-82509952D01*
X190597418Y-82509951D01*
X190597420Y-82509951D01*
X190715751Y-82449658D01*
X190809658Y-82355751D01*
X190869951Y-82237420D01*
X190869951Y-82237418D01*
X190869952Y-82237417D01*
X190885500Y-82139251D01*
X190885500Y-81635748D01*
X190869952Y-81537582D01*
X190863888Y-81525681D01*
X190809658Y-81419249D01*
X190809654Y-81419245D01*
X190809653Y-81419243D01*
X190715756Y-81325346D01*
X190715753Y-81325344D01*
X190715751Y-81325342D01*
X190597420Y-81265049D01*
X190597419Y-81265048D01*
X190597416Y-81265047D01*
X190597417Y-81265047D01*
X190499251Y-81249500D01*
X190499246Y-81249500D01*
X189920754Y-81249500D01*
X189920749Y-81249500D01*
X189822582Y-81265047D01*
X189752731Y-81300639D01*
X189704249Y-81325342D01*
X189704248Y-81325343D01*
X189704243Y-81325346D01*
X189610346Y-81419243D01*
X189610341Y-81419250D01*
X189572103Y-81494296D01*
X189524129Y-81545091D01*
X189461619Y-81562000D01*
X189303689Y-81562000D01*
X189236650Y-81542315D01*
X189216008Y-81525681D01*
X188811681Y-81121354D01*
X188778196Y-81060031D01*
X188783180Y-80990339D01*
X188825052Y-80934406D01*
X188843063Y-80923191D01*
X188843342Y-80923050D01*
X188933050Y-80833342D01*
X188990646Y-80720304D01*
X188990646Y-80720302D01*
X188990647Y-80720301D01*
X189005499Y-80626524D01*
X189005500Y-80626519D01*
X189005500Y-80564211D01*
X189535001Y-80564211D01*
X189550529Y-80662259D01*
X189550529Y-80662260D01*
X189610752Y-80780454D01*
X189610755Y-80780458D01*
X189704541Y-80874244D01*
X189704545Y-80874247D01*
X189822740Y-80934470D01*
X189920788Y-80949999D01*
X189960000Y-80949999D01*
X190460000Y-80949999D01*
X190499211Y-80949999D01*
X190499211Y-80949998D01*
X190597259Y-80934470D01*
X190597260Y-80934470D01*
X190715454Y-80874247D01*
X190715458Y-80874244D01*
X190809244Y-80780458D01*
X190809247Y-80780454D01*
X190869470Y-80662259D01*
X190885000Y-80564207D01*
X190885000Y-80562500D01*
X190460000Y-80562500D01*
X190460000Y-80949999D01*
X189960000Y-80949999D01*
X189960000Y-80562500D01*
X189535001Y-80562500D01*
X189535001Y-80564211D01*
X189005500Y-80564211D01*
X189005499Y-80060792D01*
X189535000Y-80060792D01*
X189535000Y-80062500D01*
X189960000Y-80062500D01*
X190460000Y-80062500D01*
X190884999Y-80062500D01*
X190884999Y-80060788D01*
X190869470Y-79962740D01*
X190869470Y-79962739D01*
X190809247Y-79844545D01*
X190809244Y-79844541D01*
X190715458Y-79750755D01*
X190715454Y-79750752D01*
X190597259Y-79690529D01*
X190499207Y-79675000D01*
X190460000Y-79675000D01*
X190460000Y-80062500D01*
X189960000Y-80062500D01*
X189960000Y-79675000D01*
X189920799Y-79675000D01*
X189822737Y-79690531D01*
X189704545Y-79750752D01*
X189704541Y-79750755D01*
X189610755Y-79844541D01*
X189610752Y-79844545D01*
X189550529Y-79962740D01*
X189535000Y-80060792D01*
X189005499Y-80060792D01*
X189005499Y-80013482D01*
X188990646Y-79919696D01*
X188933050Y-79806658D01*
X188933046Y-79806654D01*
X188933045Y-79806652D01*
X188843347Y-79716954D01*
X188843344Y-79716952D01*
X188843342Y-79716950D01*
X188761011Y-79675000D01*
X188730301Y-79659352D01*
X188636524Y-79644500D01*
X188173482Y-79644500D01*
X188092519Y-79657323D01*
X188079696Y-79659354D01*
X187966658Y-79716950D01*
X187966657Y-79716951D01*
X187966652Y-79716954D01*
X187876954Y-79806652D01*
X187876951Y-79806657D01*
X187876950Y-79806658D01*
X187863466Y-79833122D01*
X187819352Y-79919698D01*
X187804500Y-80013475D01*
X187355498Y-80013475D01*
X187340646Y-79919696D01*
X187283050Y-79806658D01*
X187283046Y-79806654D01*
X187283045Y-79806652D01*
X187193347Y-79716954D01*
X187193344Y-79716952D01*
X187193342Y-79716950D01*
X187111011Y-79675000D01*
X187080301Y-79659352D01*
X186986524Y-79644500D01*
X186523482Y-79644500D01*
X186442519Y-79657323D01*
X186429696Y-79659354D01*
X186316658Y-79716950D01*
X186316657Y-79716951D01*
X186316652Y-79716954D01*
X186226954Y-79806652D01*
X186226951Y-79806657D01*
X186226950Y-79806658D01*
X186169354Y-79919696D01*
X186165737Y-79926795D01*
X186117762Y-79977591D01*
X186055252Y-79994500D01*
X185347147Y-79994500D01*
X185264359Y-80016682D01*
X185190138Y-80059535D01*
X185190135Y-80059537D01*
X183869537Y-81380135D01*
X183869533Y-81380141D01*
X183826681Y-81454361D01*
X183826682Y-81454362D01*
X183804500Y-81537147D01*
X183804500Y-81668278D01*
X183784815Y-81735317D01*
X183732011Y-81781072D01*
X183725294Y-81783904D01*
X183619556Y-81824867D01*
X183619546Y-81824872D01*
X183439870Y-81936124D01*
X183283699Y-82078491D01*
X183156344Y-82247137D01*
X183062147Y-82436309D01*
X183062144Y-82436315D01*
X183004314Y-82639570D01*
X183004313Y-82639573D01*
X182984815Y-82849999D01*
X182984815Y-82850002D01*
X182986216Y-82865125D01*
X182972800Y-82933694D01*
X182950426Y-82964245D01*
X179064537Y-86850135D01*
X179064533Y-86850141D01*
X179021681Y-86924361D01*
X179021682Y-86924362D01*
X178999500Y-87007147D01*
X178999500Y-87076000D01*
X178979815Y-87143039D01*
X178927011Y-87188794D01*
X178875500Y-87200000D01*
X178530399Y-87200000D01*
X178463360Y-87180315D01*
X178417605Y-87127511D01*
X178407661Y-87058353D01*
X178436686Y-86994797D01*
X178442709Y-86988328D01*
X178900475Y-86530563D01*
X178949911Y-86444937D01*
X178975500Y-86349436D01*
X178975500Y-86250564D01*
X178975500Y-85299500D01*
X178995185Y-85232461D01*
X179047989Y-85186706D01*
X179099500Y-85175500D01*
X179219750Y-85175500D01*
X179219751Y-85175499D01*
X179234568Y-85172552D01*
X179278229Y-85163868D01*
X179278229Y-85163867D01*
X179278231Y-85163867D01*
X179344552Y-85119552D01*
X179388867Y-85053231D01*
X179388867Y-85053229D01*
X179388868Y-85053229D01*
X179400499Y-84994752D01*
X179400500Y-84994750D01*
X179400500Y-82955249D01*
X179400499Y-82955247D01*
X179388868Y-82896770D01*
X179388867Y-82896769D01*
X179344552Y-82830447D01*
X179278230Y-82786132D01*
X179278229Y-82786131D01*
X179219752Y-82774500D01*
X179219748Y-82774500D01*
X177980252Y-82774500D01*
X177980247Y-82774500D01*
X177921770Y-82786131D01*
X177921769Y-82786132D01*
X177855447Y-82830447D01*
X177811132Y-82896769D01*
X177811131Y-82896770D01*
X177799500Y-82955247D01*
X177799500Y-84994752D01*
X177811131Y-85053229D01*
X177811132Y-85053230D01*
X177855447Y-85119552D01*
X177921769Y-85163867D01*
X177921770Y-85163868D01*
X177980247Y-85175499D01*
X177980250Y-85175500D01*
X177980252Y-85175500D01*
X178100500Y-85175500D01*
X178167539Y-85195185D01*
X178213294Y-85247989D01*
X178224500Y-85299500D01*
X178224500Y-86093100D01*
X178204815Y-86160139D01*
X178188180Y-86180781D01*
X177693233Y-86675730D01*
X177205282Y-87163681D01*
X177143959Y-87197166D01*
X177117601Y-87200000D01*
X176482399Y-87200000D01*
X176415360Y-87180315D01*
X176394718Y-87163681D01*
X175211819Y-85980782D01*
X175178334Y-85919459D01*
X175175500Y-85893101D01*
X175175500Y-85299500D01*
X175195185Y-85232461D01*
X175247989Y-85186706D01*
X175299500Y-85175500D01*
X175419750Y-85175500D01*
X175419751Y-85175499D01*
X175434568Y-85172552D01*
X175478229Y-85163868D01*
X175478229Y-85163867D01*
X175478231Y-85163867D01*
X175544552Y-85119552D01*
X175588867Y-85053231D01*
X175588867Y-85053229D01*
X175588868Y-85053229D01*
X175600499Y-84994752D01*
X175600500Y-84994750D01*
X175600500Y-82955249D01*
X175600499Y-82955247D01*
X175588868Y-82896770D01*
X175588867Y-82896769D01*
X175544552Y-82830447D01*
X175478230Y-82786132D01*
X175478229Y-82786131D01*
X175419752Y-82774500D01*
X175419748Y-82774500D01*
X174180252Y-82774500D01*
X174180247Y-82774500D01*
X174121770Y-82786131D01*
X174121769Y-82786132D01*
X174055447Y-82830447D01*
X174011132Y-82896769D01*
X174011131Y-82896770D01*
X173999500Y-82955247D01*
X173999500Y-84994752D01*
X174011131Y-85053229D01*
X174011132Y-85053230D01*
X174055447Y-85119552D01*
X174121769Y-85163867D01*
X174121770Y-85163868D01*
X174180247Y-85175499D01*
X174180250Y-85175500D01*
X174180252Y-85175500D01*
X174300500Y-85175500D01*
X174367539Y-85195185D01*
X174413294Y-85247989D01*
X174424500Y-85299500D01*
X174424500Y-86149435D01*
X174450090Y-86244938D01*
X174450091Y-86244939D01*
X174450091Y-86244940D01*
X174499526Y-86330563D01*
X175157282Y-86988319D01*
X175190767Y-87049642D01*
X175185783Y-87119334D01*
X175143911Y-87175267D01*
X175078447Y-87199684D01*
X175069601Y-87200000D01*
X174674500Y-87200000D01*
X174607461Y-87180315D01*
X174561706Y-87127511D01*
X174550500Y-87076000D01*
X174550500Y-86882149D01*
X174550500Y-86882147D01*
X174528318Y-86799362D01*
X174528318Y-86799361D01*
X174485465Y-86725138D01*
X170349862Y-82589535D01*
X170311515Y-82567395D01*
X170263301Y-82516828D01*
X170254250Y-82493942D01*
X170241650Y-82449658D01*
X170237853Y-82436311D01*
X170143656Y-82247138D01*
X170016302Y-82078494D01*
X170016300Y-82078491D01*
X169860129Y-81936124D01*
X169860128Y-81936123D01*
X169680453Y-81824872D01*
X169680452Y-81824871D01*
X169535375Y-81768669D01*
X169483395Y-81748532D01*
X169275664Y-81709700D01*
X169064336Y-81709700D01*
X168856605Y-81748532D01*
X168856602Y-81748532D01*
X168856602Y-81748533D01*
X168659547Y-81824871D01*
X168659546Y-81824872D01*
X168479870Y-81936124D01*
X168323699Y-82078491D01*
X168196344Y-82247137D01*
X168102147Y-82436309D01*
X168102144Y-82436315D01*
X168044314Y-82639570D01*
X168044313Y-82639573D01*
X168024815Y-82849999D01*
X168024815Y-82850000D01*
X168044313Y-83060426D01*
X168044314Y-83060429D01*
X168102144Y-83263684D01*
X168102147Y-83263690D01*
X168196344Y-83452862D01*
X168323699Y-83621508D01*
X168458050Y-83743983D01*
X168479872Y-83763877D01*
X168659547Y-83875128D01*
X168856605Y-83951468D01*
X169064336Y-83990300D01*
X169064338Y-83990300D01*
X169275662Y-83990300D01*
X169275664Y-83990300D01*
X169483395Y-83951468D01*
X169680453Y-83875128D01*
X169860128Y-83763877D01*
X170016302Y-83621506D01*
X170121840Y-83481750D01*
X170177945Y-83440118D01*
X170247657Y-83435425D01*
X170308472Y-83468799D01*
X173827992Y-86988319D01*
X173861477Y-87049642D01*
X173856493Y-87119334D01*
X173814621Y-87175267D01*
X173749157Y-87199684D01*
X173740311Y-87200000D01*
X169600000Y-87200000D01*
X167706449Y-88478762D01*
X167639875Y-88499968D01*
X167637051Y-88500000D01*
X157149485Y-88500000D01*
X157082446Y-88480315D01*
X157036691Y-88427511D01*
X157025485Y-88376000D01*
X157025485Y-82849999D01*
X165485317Y-82849999D01*
X165485317Y-82850000D01*
X165504806Y-83060334D01*
X165562614Y-83263504D01*
X165562619Y-83263517D01*
X165656771Y-83452598D01*
X165664118Y-83462327D01*
X166140504Y-82985941D01*
X166156619Y-83046081D01*
X166223498Y-83161920D01*
X166318080Y-83256502D01*
X166433919Y-83323381D01*
X166494057Y-83339494D01*
X166020401Y-83813150D01*
X166119770Y-83874677D01*
X166119771Y-83874678D01*
X166316740Y-83950983D01*
X166524384Y-83989800D01*
X166735616Y-83989800D01*
X166943259Y-83950983D01*
X167140228Y-83874678D01*
X167140232Y-83874676D01*
X167239596Y-83813151D01*
X167239596Y-83813150D01*
X166765942Y-83339494D01*
X166826081Y-83323381D01*
X166941920Y-83256502D01*
X167036502Y-83161920D01*
X167103381Y-83046081D01*
X167119495Y-82985941D01*
X167595880Y-83462326D01*
X167595881Y-83462326D01*
X167603228Y-83452598D01*
X167697380Y-83263517D01*
X167697385Y-83263504D01*
X167755193Y-83060334D01*
X167774683Y-82850000D01*
X167774683Y-82849999D01*
X167755193Y-82639665D01*
X167697385Y-82436495D01*
X167697380Y-82436482D01*
X167603232Y-82247407D01*
X167603227Y-82247399D01*
X167595880Y-82237671D01*
X167119494Y-82714057D01*
X167103381Y-82653919D01*
X167036502Y-82538080D01*
X166941920Y-82443498D01*
X166826081Y-82376619D01*
X166765941Y-82360504D01*
X167239597Y-81886848D01*
X167140227Y-81825321D01*
X167140226Y-81825320D01*
X166943259Y-81749016D01*
X166735616Y-81710200D01*
X166524384Y-81710200D01*
X166316740Y-81749016D01*
X166119772Y-81825321D01*
X166119765Y-81825325D01*
X166020402Y-81886847D01*
X166020401Y-81886848D01*
X166494058Y-82360504D01*
X166433919Y-82376619D01*
X166318080Y-82443498D01*
X166223498Y-82538080D01*
X166156619Y-82653919D01*
X166140504Y-82714058D01*
X165664118Y-82237672D01*
X165664117Y-82237672D01*
X165656770Y-82247402D01*
X165562619Y-82436482D01*
X165562614Y-82436495D01*
X165504806Y-82639665D01*
X165485317Y-82849999D01*
X157025485Y-82849999D01*
X157025485Y-79991010D01*
X157045170Y-79923971D01*
X157095915Y-79880000D01*
X162674353Y-79880000D01*
X162694834Y-80022456D01*
X162711768Y-80059535D01*
X162754623Y-80153373D01*
X162848872Y-80262143D01*
X162969947Y-80339953D01*
X162969950Y-80339954D01*
X162969949Y-80339954D01*
X163108036Y-80380499D01*
X163108038Y-80380500D01*
X163108039Y-80380500D01*
X163251962Y-80380500D01*
X163251962Y-80380499D01*
X163390053Y-80339953D01*
X163511128Y-80262143D01*
X163605377Y-80153373D01*
X163665165Y-80022457D01*
X163685647Y-79880000D01*
X163665165Y-79737543D01*
X163605377Y-79606627D01*
X163511128Y-79497857D01*
X163390053Y-79420047D01*
X163390051Y-79420046D01*
X163390049Y-79420045D01*
X163390050Y-79420045D01*
X163251963Y-79379500D01*
X163251961Y-79379500D01*
X163108039Y-79379500D01*
X163108036Y-79379500D01*
X162969949Y-79420045D01*
X162848873Y-79497856D01*
X162754623Y-79606626D01*
X162754622Y-79606628D01*
X162694834Y-79737543D01*
X162674353Y-79880000D01*
X157095915Y-79880000D01*
X157097974Y-79878216D01*
X157122026Y-79871001D01*
X157121839Y-79870211D01*
X157126576Y-79869084D01*
X157126583Y-79869083D01*
X157322208Y-79805964D01*
X157505487Y-79712896D01*
X157671870Y-79592192D01*
X157817225Y-79446848D01*
X157937943Y-79280475D01*
X158031025Y-79097203D01*
X158094160Y-78901583D01*
X158094161Y-78901570D01*
X158095288Y-78896838D01*
X158097359Y-78897330D01*
X158123327Y-78842175D01*
X158182540Y-78805086D01*
X158216090Y-78800461D01*
X175433917Y-78800461D01*
X175500956Y-78820146D01*
G37*
G04 #@! TD.AperFunction*
G04 #@! TA.AperFunction,Conductor*
G36*
X183011428Y-91481249D02*
G01*
X183011505Y-91481430D01*
X183159123Y-91835498D01*
X183159144Y-91844452D01*
X183159123Y-91844502D01*
X183011088Y-92199569D01*
X183004741Y-92205887D01*
X182996648Y-92206186D01*
X182375021Y-92002638D01*
X182368225Y-91996807D01*
X182366962Y-91991519D01*
X182366962Y-91757656D01*
X182370389Y-91749383D01*
X182373975Y-91746936D01*
X182996025Y-91475209D01*
X183004976Y-91475039D01*
X183011428Y-91481249D01*
G37*
G04 #@! TD.AperFunction*
M02*
