G04 #@! TF.GenerationSoftware,KiCad,Pcbnew,8.0.3*
G04 #@! TF.CreationDate,2024-07-19T18:12:48+03:00*
G04 #@! TF.ProjectId,B-TPS63030-Brk-01Mbr-R01,422d5450-5336-4333-9033-302d42726b2d,rev?*
G04 #@! TF.SameCoordinates,Original*
G04 #@! TF.FileFunction,Legend,Top*
G04 #@! TF.FilePolarity,Positive*
%FSLAX46Y46*%
G04 Gerber Fmt 4.6, Leading zero omitted, Abs format (unit mm)*
G04 Created by KiCad (PCBNEW 8.0.3) date 2024-07-19 18:12:48*
%MOMM*%
%LPD*%
G01*
G04 APERTURE LIST*
G04 Aperture macros list*
%AMRoundRect*
0 Rectangle with rounded corners*
0 $1 Rounding radius*
0 $2 $3 $4 $5 $6 $7 $8 $9 X,Y pos of 4 corners*
0 Add a 4 corners polygon primitive as box body*
4,1,4,$2,$3,$4,$5,$6,$7,$8,$9,$2,$3,0*
0 Add four circle primitives for the rounded corners*
1,1,$1+$1,$2,$3*
1,1,$1+$1,$4,$5*
1,1,$1+$1,$6,$7*
1,1,$1+$1,$8,$9*
0 Add four rect primitives between the rounded corners*
20,1,$1+$1,$2,$3,$4,$5,0*
20,1,$1+$1,$4,$5,$6,$7,0*
20,1,$1+$1,$6,$7,$8,$9,0*
20,1,$1+$1,$8,$9,$2,$3,0*%
G04 Aperture macros list end*
%ADD10C,0.000000*%
%ADD11C,0.150000*%
%ADD12C,0.120000*%
%ADD13C,0.130000*%
%ADD14C,0.100000*%
%ADD15C,0.127000*%
%ADD16C,0.203200*%
%ADD17C,2.082800*%
%ADD18RoundRect,0.218750X-0.256250X0.218750X-0.256250X-0.218750X0.256250X-0.218750X0.256250X0.218750X0*%
%ADD19O,2.000000X1.700000*%
%ADD20RoundRect,0.250000X-0.750000X0.600000X-0.750000X-0.600000X0.750000X-0.600000X0.750000X0.600000X0*%
%ADD21RoundRect,0.250000X-1.125000X-1.125000X1.125000X-1.125000X1.125000X1.125000X-1.125000X1.125000X0*%
%ADD22RoundRect,0.200000X-0.200000X-0.275000X0.200000X-0.275000X0.200000X0.275000X-0.200000X0.275000X0*%
%ADD23C,1.000000*%
%ADD24RoundRect,0.200000X0.200000X0.275000X-0.200000X0.275000X-0.200000X-0.275000X0.200000X-0.275000X0*%
%ADD25RoundRect,0.200000X-0.275000X0.200000X-0.275000X-0.200000X0.275000X-0.200000X0.275000X0.200000X0*%
%ADD26RoundRect,0.225000X-0.250000X0.225000X-0.250000X-0.225000X0.250000X-0.225000X0.250000X0.225000X0*%
%ADD27R,1.200000X2.000000*%
%ADD28RoundRect,0.250000X0.750000X-0.600000X0.750000X0.600000X-0.750000X0.600000X-0.750000X-0.600000X0*%
%ADD29RoundRect,0.225000X-0.225000X-0.250000X0.225000X-0.250000X0.225000X0.250000X-0.225000X0.250000X0*%
%ADD30RoundRect,0.062500X-0.062500X0.350000X-0.062500X-0.350000X0.062500X-0.350000X0.062500X0.350000X0*%
%ADD31R,2.000000X1.200000*%
G04 APERTURE END LIST*
D10*
G36*
X189229873Y-94527058D02*
G01*
X189242343Y-94528006D01*
X189254630Y-94529568D01*
X189266722Y-94531727D01*
X189278601Y-94534469D01*
X189290252Y-94537777D01*
X189301661Y-94541637D01*
X189312811Y-94546034D01*
X189323687Y-94550951D01*
X189334274Y-94556373D01*
X189344556Y-94562285D01*
X189354518Y-94568672D01*
X189364145Y-94575517D01*
X189373420Y-94582806D01*
X189382329Y-94590524D01*
X189390856Y-94598653D01*
X189398986Y-94607181D01*
X189406704Y-94616090D01*
X189413993Y-94625365D01*
X189420838Y-94634992D01*
X189427225Y-94644954D01*
X189433137Y-94655236D01*
X189438559Y-94665823D01*
X189443476Y-94676699D01*
X189447873Y-94687849D01*
X189451733Y-94699258D01*
X189455041Y-94710909D01*
X189457783Y-94722788D01*
X189459942Y-94734880D01*
X189461504Y-94747167D01*
X189462452Y-94759637D01*
X189462771Y-94772272D01*
X189462452Y-94784907D01*
X189461504Y-94797376D01*
X189459942Y-94809664D01*
X189457783Y-94821755D01*
X189455041Y-94833634D01*
X189451733Y-94845286D01*
X189447873Y-94856694D01*
X189443476Y-94867844D01*
X189438559Y-94878721D01*
X189433137Y-94889308D01*
X189427225Y-94899590D01*
X189420838Y-94909552D01*
X189413993Y-94919178D01*
X189406704Y-94928454D01*
X189398986Y-94937363D01*
X189390856Y-94945890D01*
X189382329Y-94954020D01*
X189373420Y-94961737D01*
X189364145Y-94969026D01*
X189354518Y-94975872D01*
X189344556Y-94982258D01*
X189334274Y-94988171D01*
X189323687Y-94993593D01*
X189312811Y-94998510D01*
X189301661Y-95002906D01*
X189290252Y-95006766D01*
X189278601Y-95010075D01*
X189266722Y-95012817D01*
X189254630Y-95014976D01*
X189242343Y-95016537D01*
X189229873Y-95017486D01*
X189217238Y-95017805D01*
X189204603Y-95017486D01*
X189192134Y-95016537D01*
X189179846Y-95014976D01*
X189167755Y-95012817D01*
X189155876Y-95010075D01*
X189144224Y-95006766D01*
X189132816Y-95002906D01*
X189121666Y-94998510D01*
X189110789Y-94993593D01*
X189100202Y-94988171D01*
X189089920Y-94982258D01*
X189079958Y-94975872D01*
X189070332Y-94969026D01*
X189061056Y-94961737D01*
X189052147Y-94954020D01*
X189043620Y-94945890D01*
X189035490Y-94937363D01*
X189027773Y-94928454D01*
X189020484Y-94919178D01*
X189013638Y-94909552D01*
X189007252Y-94899590D01*
X189001339Y-94889308D01*
X188995917Y-94878721D01*
X188991000Y-94867844D01*
X188986604Y-94856694D01*
X188982744Y-94845286D01*
X188979435Y-94833634D01*
X188976693Y-94821755D01*
X188974534Y-94809664D01*
X188972973Y-94797376D01*
X188972024Y-94784907D01*
X188971705Y-94772272D01*
X188972024Y-94759637D01*
X188972973Y-94747167D01*
X188974534Y-94734880D01*
X188976693Y-94722788D01*
X188979435Y-94710909D01*
X188982744Y-94699258D01*
X188986604Y-94687849D01*
X188991000Y-94676699D01*
X188995917Y-94665823D01*
X189001339Y-94655236D01*
X189007252Y-94644954D01*
X189013638Y-94634992D01*
X189020484Y-94625365D01*
X189027773Y-94616090D01*
X189035490Y-94607181D01*
X189043620Y-94598653D01*
X189052147Y-94590524D01*
X189061056Y-94582806D01*
X189070332Y-94575517D01*
X189079958Y-94568672D01*
X189089920Y-94562285D01*
X189100202Y-94556373D01*
X189110789Y-94550951D01*
X189121666Y-94546034D01*
X189132816Y-94541637D01*
X189144224Y-94537777D01*
X189155876Y-94534469D01*
X189167755Y-94531727D01*
X189179846Y-94529568D01*
X189192134Y-94528006D01*
X189204603Y-94527058D01*
X189217238Y-94526738D01*
X189229873Y-94527058D01*
G37*
G36*
X191405282Y-94141007D02*
G01*
X191476856Y-94145983D01*
X191544279Y-94154499D01*
X191607434Y-94166740D01*
X191666205Y-94182887D01*
X191693910Y-94192483D01*
X191720475Y-94203124D01*
X191745886Y-94214834D01*
X191770129Y-94227634D01*
X191793188Y-94241548D01*
X191815049Y-94256599D01*
X191835698Y-94272810D01*
X191855121Y-94290203D01*
X191873301Y-94308801D01*
X191890226Y-94328628D01*
X191905881Y-94349705D01*
X191920250Y-94372057D01*
X191933320Y-94395706D01*
X191945075Y-94420674D01*
X191955503Y-94446985D01*
X191964587Y-94474661D01*
X191972313Y-94503725D01*
X191978667Y-94534201D01*
X191983635Y-94566110D01*
X191987201Y-94599477D01*
X191989351Y-94634323D01*
X191990071Y-94670672D01*
X191989656Y-94694436D01*
X191988424Y-94717512D01*
X191986396Y-94739908D01*
X191983591Y-94761629D01*
X191980031Y-94782682D01*
X191975735Y-94803075D01*
X191970724Y-94822815D01*
X191965018Y-94841907D01*
X191958639Y-94860359D01*
X191951605Y-94878177D01*
X191943937Y-94895369D01*
X191935656Y-94911941D01*
X191926782Y-94927900D01*
X191917335Y-94943252D01*
X191896806Y-94972165D01*
X191874229Y-94998733D01*
X191849770Y-95023012D01*
X191823589Y-95045056D01*
X191795851Y-95064918D01*
X191766717Y-95082653D01*
X191736350Y-95098315D01*
X191704914Y-95111959D01*
X191672571Y-95123639D01*
X191690000Y-95127636D01*
X191707150Y-95132285D01*
X191724003Y-95137588D01*
X191740542Y-95143547D01*
X191756749Y-95150161D01*
X191772605Y-95157434D01*
X191788092Y-95165366D01*
X191803193Y-95173959D01*
X191817889Y-95183214D01*
X191832162Y-95193132D01*
X191845995Y-95203715D01*
X191859369Y-95214963D01*
X191872266Y-95226880D01*
X191884669Y-95239464D01*
X191896559Y-95252720D01*
X191907918Y-95266646D01*
X191918728Y-95281245D01*
X191928972Y-95296519D01*
X191938630Y-95312468D01*
X191947686Y-95329094D01*
X191956121Y-95346398D01*
X191963917Y-95364382D01*
X191971056Y-95383047D01*
X191977520Y-95402394D01*
X191983291Y-95422425D01*
X191988351Y-95443140D01*
X191992682Y-95464543D01*
X191996266Y-95486633D01*
X191999085Y-95509412D01*
X192001121Y-95532881D01*
X192002355Y-95557043D01*
X192002771Y-95581897D01*
X192002077Y-95616582D01*
X192000000Y-95650000D01*
X191996545Y-95682163D01*
X191991716Y-95713081D01*
X191985521Y-95742765D01*
X191977963Y-95771225D01*
X191969049Y-95798473D01*
X191958784Y-95824520D01*
X191947173Y-95849376D01*
X191934222Y-95873053D01*
X191919936Y-95895560D01*
X191904321Y-95916909D01*
X191887382Y-95937111D01*
X191869124Y-95956177D01*
X191849554Y-95974118D01*
X191828675Y-95990943D01*
X191806495Y-96006665D01*
X191783017Y-96021294D01*
X191758248Y-96034840D01*
X191732193Y-96047316D01*
X191704858Y-96058731D01*
X191676247Y-96069096D01*
X191646367Y-96078423D01*
X191615223Y-96086722D01*
X191582819Y-96094004D01*
X191549163Y-96100280D01*
X191514258Y-96105561D01*
X191478111Y-96109857D01*
X191402110Y-96115539D01*
X191321204Y-96117414D01*
X189559080Y-96117414D01*
X189560138Y-96117413D01*
X189560138Y-95006164D01*
X189904096Y-95006164D01*
X189904096Y-95846480D01*
X191307447Y-95846480D01*
X191349647Y-95845430D01*
X191389317Y-95842249D01*
X191426428Y-95836887D01*
X191460954Y-95829299D01*
X191477241Y-95824654D01*
X191492871Y-95819434D01*
X191507841Y-95813633D01*
X191522150Y-95807245D01*
X191535792Y-95800264D01*
X191548765Y-95792685D01*
X191561066Y-95784500D01*
X191572691Y-95775704D01*
X191583637Y-95766291D01*
X191593901Y-95756255D01*
X191603479Y-95745590D01*
X191612368Y-95734291D01*
X191620565Y-95722350D01*
X191628067Y-95709762D01*
X191634870Y-95696520D01*
X191640970Y-95682620D01*
X191646366Y-95668055D01*
X191651052Y-95652819D01*
X191655027Y-95636905D01*
X191658286Y-95620309D01*
X191660827Y-95603023D01*
X191662646Y-95585043D01*
X191663740Y-95566361D01*
X191664105Y-95546972D01*
X191663792Y-95527644D01*
X191662853Y-95509139D01*
X191661287Y-95491444D01*
X191659096Y-95474544D01*
X191656280Y-95458427D01*
X191652838Y-95443078D01*
X191648771Y-95428484D01*
X191644079Y-95414631D01*
X191638763Y-95401504D01*
X191632821Y-95389092D01*
X191626256Y-95377378D01*
X191619066Y-95366351D01*
X191611252Y-95355995D01*
X191602814Y-95346298D01*
X191593753Y-95337245D01*
X191584068Y-95328823D01*
X191573761Y-95321018D01*
X191562830Y-95313816D01*
X191551276Y-95307204D01*
X191539100Y-95301168D01*
X191526301Y-95295693D01*
X191512880Y-95290767D01*
X191498837Y-95286375D01*
X191484172Y-95282504D01*
X191468885Y-95279140D01*
X191452977Y-95276269D01*
X191419297Y-95271952D01*
X191383134Y-95269442D01*
X191344488Y-95268630D01*
X190248055Y-95268630D01*
X190248055Y-95006164D01*
X191278871Y-95006164D01*
X191319819Y-95005087D01*
X191358856Y-95001817D01*
X191395880Y-94996292D01*
X191430792Y-94988453D01*
X191447423Y-94983647D01*
X191463489Y-94978239D01*
X191478976Y-94972222D01*
X191493872Y-94965589D01*
X191508164Y-94958332D01*
X191521840Y-94950444D01*
X191534886Y-94941916D01*
X191547291Y-94932742D01*
X191559042Y-94922913D01*
X191570126Y-94912423D01*
X191580530Y-94901263D01*
X191590242Y-94889426D01*
X191599250Y-94876905D01*
X191607541Y-94863692D01*
X191615102Y-94849780D01*
X191621920Y-94835160D01*
X191627984Y-94819826D01*
X191633279Y-94803769D01*
X191637795Y-94786982D01*
X191641518Y-94769459D01*
X191644435Y-94751190D01*
X191646535Y-94732169D01*
X191647804Y-94712387D01*
X191648230Y-94691839D01*
X191647886Y-94674099D01*
X191646858Y-94656994D01*
X191645150Y-94640519D01*
X191642766Y-94624668D01*
X191639710Y-94609437D01*
X191635986Y-94594821D01*
X191631598Y-94580817D01*
X191626550Y-94567418D01*
X191620847Y-94554621D01*
X191614491Y-94542421D01*
X191607488Y-94530814D01*
X191599842Y-94519793D01*
X191591556Y-94509356D01*
X191582634Y-94499497D01*
X191573082Y-94490211D01*
X191562902Y-94481495D01*
X191552098Y-94473343D01*
X191540676Y-94465750D01*
X191528638Y-94458713D01*
X191515990Y-94452225D01*
X191502734Y-94446284D01*
X191488876Y-94440883D01*
X191474419Y-94436019D01*
X191459367Y-94431687D01*
X191443724Y-94427882D01*
X191427495Y-94424599D01*
X191410683Y-94421834D01*
X191393293Y-94419582D01*
X191356794Y-94416600D01*
X191318030Y-94415614D01*
X188873280Y-94415614D01*
X188873280Y-94139389D01*
X191329672Y-94139389D01*
X191405282Y-94141007D01*
G37*
D11*
G36*
X187391460Y-87109333D02*
G01*
X187455663Y-87172188D01*
X187491560Y-87311317D01*
X187492849Y-87592712D01*
X187457465Y-87738920D01*
X187396462Y-87801231D01*
X187336534Y-87832178D01*
X187200432Y-87833232D01*
X187141623Y-87804780D01*
X187077419Y-87741924D01*
X187041521Y-87602796D01*
X187040232Y-87321401D01*
X187075617Y-87175192D01*
X187136619Y-87112882D01*
X187196547Y-87081935D01*
X187332649Y-87080881D01*
X187391460Y-87109333D01*
G37*
G36*
X189454386Y-88082057D02*
G01*
X185934987Y-88082057D01*
X185934987Y-87016437D01*
X186034987Y-87016437D01*
X186038247Y-87030774D01*
X186336692Y-87921665D01*
X186337062Y-87926867D01*
X186341222Y-87935188D01*
X186344241Y-87944199D01*
X186347751Y-87948246D01*
X186350148Y-87953040D01*
X186357256Y-87959205D01*
X186363415Y-87966306D01*
X186368204Y-87968700D01*
X186372255Y-87972214D01*
X186381180Y-87975188D01*
X186389588Y-87979393D01*
X186394932Y-87979772D01*
X186400018Y-87981468D01*
X186409398Y-87980801D01*
X186418778Y-87981468D01*
X186423863Y-87979772D01*
X186429208Y-87979393D01*
X186437618Y-87975187D01*
X186446540Y-87972214D01*
X186450587Y-87968703D01*
X186455381Y-87966307D01*
X186461544Y-87959201D01*
X186468648Y-87953040D01*
X186471043Y-87948248D01*
X186474555Y-87944200D01*
X186480549Y-87930774D01*
X186687419Y-87307057D01*
X186891541Y-87307057D01*
X186892892Y-87602216D01*
X186891630Y-87610703D01*
X186892973Y-87619789D01*
X186892982Y-87621689D01*
X186893404Y-87622710D01*
X186893780Y-87625247D01*
X186935839Y-87788255D01*
X186935839Y-87793116D01*
X186939165Y-87801145D01*
X186941584Y-87810521D01*
X186944904Y-87815002D01*
X186947038Y-87820153D01*
X186956365Y-87831518D01*
X187042721Y-87916061D01*
X187049129Y-87923450D01*
X187052319Y-87925458D01*
X187053445Y-87926560D01*
X187055272Y-87927317D01*
X187061572Y-87931282D01*
X187137999Y-87968257D01*
X187139159Y-87969417D01*
X187147759Y-87972979D01*
X187161018Y-87979394D01*
X187163705Y-87979584D01*
X187166195Y-87980616D01*
X187180827Y-87982057D01*
X187340921Y-87980817D01*
X187342874Y-87981468D01*
X187353394Y-87980720D01*
X187366887Y-87980616D01*
X187369376Y-87979584D01*
X187372064Y-87979394D01*
X187385796Y-87974139D01*
X187471013Y-87930132D01*
X187479638Y-87926560D01*
X187482534Y-87924183D01*
X187483954Y-87923450D01*
X187485253Y-87921951D01*
X187491003Y-87917233D01*
X187570148Y-87836389D01*
X187574076Y-87834033D01*
X187579120Y-87827224D01*
X187586045Y-87820152D01*
X187588178Y-87815000D01*
X187591498Y-87810521D01*
X187596445Y-87796675D01*
X187636958Y-87629272D01*
X187640100Y-87621689D01*
X187640996Y-87612589D01*
X187641453Y-87610702D01*
X187641289Y-87609606D01*
X187641541Y-87607057D01*
X187640189Y-87311903D01*
X187641453Y-87303412D01*
X187640108Y-87294321D01*
X187640100Y-87292425D01*
X187639677Y-87291404D01*
X187639302Y-87288867D01*
X187597243Y-87125858D01*
X187597243Y-87120997D01*
X187593916Y-87112965D01*
X187591498Y-87103592D01*
X187588179Y-87099113D01*
X187586045Y-87093960D01*
X187576717Y-87082595D01*
X187499559Y-87007057D01*
X187877255Y-87007057D01*
X187878644Y-87723844D01*
X187877844Y-87726247D01*
X187878672Y-87737901D01*
X187878696Y-87750260D01*
X187879727Y-87752749D01*
X187879918Y-87755437D01*
X187885173Y-87769169D01*
X187929180Y-87854387D01*
X187932752Y-87863010D01*
X187935128Y-87865906D01*
X187935862Y-87867326D01*
X187937360Y-87868625D01*
X187942079Y-87874375D01*
X187986511Y-87917137D01*
X187991986Y-87923450D01*
X187995120Y-87925423D01*
X187996302Y-87926560D01*
X187998129Y-87927317D01*
X188004429Y-87931282D01*
X188080856Y-87968257D01*
X188082016Y-87969417D01*
X188090616Y-87972979D01*
X188103875Y-87979394D01*
X188106562Y-87979584D01*
X188109052Y-87980616D01*
X188123684Y-87982057D01*
X188283778Y-87980817D01*
X188285731Y-87981468D01*
X188296251Y-87980720D01*
X188309744Y-87980616D01*
X188312233Y-87979584D01*
X188314921Y-87979394D01*
X188328653Y-87974139D01*
X188413870Y-87930132D01*
X188422495Y-87926560D01*
X188425390Y-87924183D01*
X188426811Y-87923450D01*
X188428111Y-87921950D01*
X188433861Y-87917232D01*
X188476622Y-87872799D01*
X188482934Y-87867326D01*
X188484906Y-87864191D01*
X188486045Y-87863009D01*
X188486802Y-87861179D01*
X188490766Y-87854883D01*
X188527741Y-87778455D01*
X188528901Y-87777296D01*
X188532463Y-87768695D01*
X188538878Y-87755437D01*
X188539068Y-87752749D01*
X188540100Y-87750260D01*
X188541541Y-87735628D01*
X188540100Y-86992425D01*
X188692982Y-86992425D01*
X188692982Y-87021689D01*
X188704181Y-87048725D01*
X188724873Y-87069417D01*
X188751909Y-87080616D01*
X188766541Y-87082057D01*
X188948801Y-87081560D01*
X188950125Y-87921689D01*
X188961324Y-87948725D01*
X188982016Y-87969417D01*
X189009052Y-87980616D01*
X189038316Y-87980616D01*
X189065352Y-87969417D01*
X189086044Y-87948725D01*
X189097243Y-87921689D01*
X189098684Y-87907057D01*
X189097382Y-87081155D01*
X189295459Y-87080616D01*
X189322495Y-87069417D01*
X189343187Y-87048725D01*
X189354386Y-87021689D01*
X189354386Y-86992425D01*
X189343187Y-86965389D01*
X189322495Y-86944697D01*
X189295459Y-86933498D01*
X189280827Y-86932057D01*
X188751909Y-86933498D01*
X188724873Y-86944697D01*
X188704181Y-86965389D01*
X188692982Y-86992425D01*
X188540100Y-86992425D01*
X188528901Y-86965389D01*
X188508209Y-86944697D01*
X188481173Y-86933498D01*
X188451909Y-86933498D01*
X188424873Y-86944697D01*
X188404181Y-86965389D01*
X188392982Y-86992425D01*
X188391541Y-87007057D01*
X188392914Y-87715613D01*
X188364155Y-87775058D01*
X188338616Y-87801594D01*
X188279391Y-87832178D01*
X188143289Y-87833232D01*
X188084253Y-87804671D01*
X188057717Y-87779132D01*
X188027224Y-87720084D01*
X188025814Y-86992425D01*
X188014615Y-86965389D01*
X187993923Y-86944697D01*
X187966887Y-86933498D01*
X187937623Y-86933498D01*
X187910587Y-86944697D01*
X187889895Y-86965389D01*
X187878696Y-86992425D01*
X187877255Y-87007057D01*
X187499559Y-87007057D01*
X187490361Y-86998052D01*
X187483954Y-86990664D01*
X187480763Y-86988655D01*
X187479638Y-86987554D01*
X187477810Y-86986796D01*
X187471511Y-86982832D01*
X187395082Y-86945856D01*
X187393923Y-86944697D01*
X187385323Y-86941134D01*
X187372064Y-86934720D01*
X187369376Y-86934529D01*
X187366887Y-86933498D01*
X187352255Y-86932057D01*
X187192160Y-86933296D01*
X187190208Y-86932646D01*
X187179687Y-86933393D01*
X187166195Y-86933498D01*
X187163705Y-86934529D01*
X187161018Y-86934720D01*
X187147286Y-86939975D01*
X187062071Y-86983980D01*
X187053446Y-86987553D01*
X187050548Y-86989931D01*
X187049129Y-86990664D01*
X187047829Y-86992162D01*
X187042081Y-86996880D01*
X186962934Y-87077722D01*
X186959006Y-87080080D01*
X186953960Y-87086888D01*
X186947038Y-87093960D01*
X186944904Y-87099111D01*
X186941584Y-87103592D01*
X186936637Y-87117438D01*
X186896125Y-87284836D01*
X186892982Y-87292425D01*
X186892085Y-87301530D01*
X186891630Y-87303412D01*
X186891792Y-87304503D01*
X186891541Y-87307057D01*
X186687419Y-87307057D01*
X186783809Y-87016438D01*
X186781734Y-86987248D01*
X186768648Y-86961074D01*
X186746540Y-86941900D01*
X186718778Y-86932646D01*
X186689588Y-86934721D01*
X186663415Y-86947808D01*
X186644241Y-86969915D01*
X186638247Y-86983340D01*
X186409794Y-87672130D01*
X186174555Y-86969914D01*
X186155381Y-86947807D01*
X186129208Y-86934721D01*
X186100018Y-86932646D01*
X186072255Y-86941900D01*
X186050148Y-86961074D01*
X186037062Y-86987247D01*
X186034987Y-87016437D01*
X185934987Y-87016437D01*
X185934987Y-86832057D01*
X189454386Y-86832057D01*
X189454386Y-88082057D01*
G37*
D12*
X165538470Y-80358950D02*
X165462280Y-80320855D01*
X165462280Y-80320855D02*
X165347994Y-80320855D01*
X165347994Y-80320855D02*
X165233708Y-80358950D01*
X165233708Y-80358950D02*
X165157518Y-80435140D01*
X165157518Y-80435140D02*
X165119423Y-80511331D01*
X165119423Y-80511331D02*
X165081327Y-80663712D01*
X165081327Y-80663712D02*
X165081327Y-80777998D01*
X165081327Y-80777998D02*
X165119423Y-80930379D01*
X165119423Y-80930379D02*
X165157518Y-81006569D01*
X165157518Y-81006569D02*
X165233708Y-81082760D01*
X165233708Y-81082760D02*
X165347994Y-81120855D01*
X165347994Y-81120855D02*
X165424185Y-81120855D01*
X165424185Y-81120855D02*
X165538470Y-81082760D01*
X165538470Y-81082760D02*
X165576566Y-81044664D01*
X165576566Y-81044664D02*
X165576566Y-80777998D01*
X165576566Y-80777998D02*
X165424185Y-80777998D01*
X165919423Y-81120855D02*
X165919423Y-80320855D01*
X165919423Y-80320855D02*
X166376566Y-81120855D01*
X166376566Y-81120855D02*
X166376566Y-80320855D01*
X166757518Y-81120855D02*
X166757518Y-80320855D01*
X166757518Y-80320855D02*
X166947994Y-80320855D01*
X166947994Y-80320855D02*
X167062280Y-80358950D01*
X167062280Y-80358950D02*
X167138470Y-80435140D01*
X167138470Y-80435140D02*
X167176565Y-80511331D01*
X167176565Y-80511331D02*
X167214661Y-80663712D01*
X167214661Y-80663712D02*
X167214661Y-80777998D01*
X167214661Y-80777998D02*
X167176565Y-80930379D01*
X167176565Y-80930379D02*
X167138470Y-81006569D01*
X167138470Y-81006569D02*
X167062280Y-81082760D01*
X167062280Y-81082760D02*
X166947994Y-81120855D01*
X166947994Y-81120855D02*
X166757518Y-81120855D01*
D11*
G36*
X189056759Y-89688823D02*
G01*
X189121429Y-89752135D01*
X189155334Y-89817790D01*
X189195155Y-89972125D01*
X189196267Y-90082628D01*
X189158984Y-90236686D01*
X189124978Y-90306974D01*
X189060220Y-90373121D01*
X188961420Y-90407111D01*
X188830709Y-90407934D01*
X188829525Y-89656593D01*
X188954447Y-89655806D01*
X189056759Y-89688823D01*
G37*
G36*
X189445112Y-90657057D02*
G01*
X186695112Y-90657057D01*
X186695112Y-89967771D01*
X186795112Y-89967771D01*
X186796363Y-90092172D01*
X186795201Y-90099987D01*
X186796533Y-90108998D01*
X186796553Y-90110974D01*
X186796976Y-90111995D01*
X186797351Y-90114532D01*
X186840112Y-90280261D01*
X186840632Y-90287580D01*
X186844832Y-90298555D01*
X186845155Y-90299807D01*
X186845477Y-90300242D01*
X186845887Y-90301312D01*
X186889894Y-90386530D01*
X186893466Y-90395153D01*
X186895842Y-90398049D01*
X186896576Y-90399469D01*
X186898074Y-90400768D01*
X186902793Y-90406518D01*
X186981472Y-90483545D01*
X186982291Y-90485183D01*
X186989775Y-90491674D01*
X186999873Y-90501560D01*
X187002361Y-90502590D01*
X187004398Y-90504357D01*
X187017824Y-90510351D01*
X187146270Y-90551801D01*
X187155480Y-90555616D01*
X187159238Y-90555986D01*
X187160732Y-90556468D01*
X187162706Y-90556327D01*
X187170112Y-90557057D01*
X187256117Y-90555821D01*
X187265206Y-90556468D01*
X187268851Y-90555639D01*
X187270458Y-90555616D01*
X187272289Y-90554857D01*
X187279543Y-90553208D01*
X187397118Y-90512759D01*
X187399030Y-90512759D01*
X187408398Y-90508878D01*
X187421541Y-90504357D01*
X187423577Y-90502590D01*
X187426066Y-90501560D01*
X187437432Y-90492232D01*
X187489616Y-90438009D01*
X187494664Y-90425822D01*
X187500814Y-90410974D01*
X187502255Y-90396342D01*
X187500814Y-90081710D01*
X187489615Y-90054674D01*
X187468923Y-90033982D01*
X187441887Y-90022783D01*
X187427255Y-90021342D01*
X187241194Y-90022783D01*
X187214158Y-90033982D01*
X187193466Y-90054674D01*
X187182267Y-90081710D01*
X187182267Y-90110974D01*
X187193466Y-90138010D01*
X187214158Y-90158702D01*
X187241194Y-90169901D01*
X187255826Y-90171342D01*
X187352595Y-90170592D01*
X187353484Y-90364856D01*
X187345329Y-90373330D01*
X187246923Y-90407184D01*
X187185051Y-90408073D01*
X187083464Y-90375291D01*
X187018794Y-90311978D01*
X186984889Y-90246322D01*
X186945068Y-90091987D01*
X186943956Y-89981485D01*
X186981241Y-89827422D01*
X187015244Y-89757138D01*
X187080002Y-89690992D01*
X187178901Y-89656968D01*
X187279239Y-89655958D01*
X187364589Y-89697251D01*
X187393779Y-89699325D01*
X187421540Y-89690071D01*
X187443647Y-89670898D01*
X187456735Y-89644723D01*
X187458809Y-89615533D01*
X187449555Y-89587772D01*
X187444599Y-89582057D01*
X187737969Y-89582057D01*
X187739410Y-90496689D01*
X187750609Y-90523725D01*
X187771301Y-90544417D01*
X187798337Y-90555616D01*
X187827601Y-90555616D01*
X187854637Y-90544417D01*
X187875329Y-90523725D01*
X187886528Y-90496689D01*
X187887969Y-90482057D01*
X187886992Y-89861991D01*
X188261158Y-90514705D01*
X188264895Y-90523725D01*
X188268255Y-90527085D01*
X188270647Y-90531257D01*
X188278536Y-90537366D01*
X188285587Y-90544417D01*
X188290003Y-90546246D01*
X188293784Y-90549174D01*
X188303407Y-90551798D01*
X188312623Y-90555616D01*
X188317404Y-90555616D01*
X188322016Y-90556874D01*
X188331910Y-90555616D01*
X188341887Y-90555616D01*
X188346305Y-90553785D01*
X188351046Y-90553183D01*
X188359703Y-90548235D01*
X188368923Y-90544417D01*
X188372304Y-90541035D01*
X188376455Y-90538664D01*
X188382561Y-90530778D01*
X188389615Y-90523725D01*
X188391445Y-90519306D01*
X188394372Y-90515527D01*
X188396996Y-90505905D01*
X188400814Y-90496689D01*
X188401550Y-90489206D01*
X188402072Y-90487296D01*
X188401884Y-90485820D01*
X188402255Y-90482057D01*
X188400837Y-89582057D01*
X188680826Y-89582057D01*
X188682267Y-90496689D01*
X188693466Y-90523725D01*
X188714158Y-90544417D01*
X188741194Y-90555616D01*
X188755826Y-90557057D01*
X188968908Y-90555715D01*
X188979492Y-90556468D01*
X188983196Y-90555625D01*
X188984744Y-90555616D01*
X188986575Y-90554857D01*
X188993829Y-90553208D01*
X189111404Y-90512759D01*
X189113314Y-90512759D01*
X189122678Y-90508880D01*
X189135826Y-90504357D01*
X189137862Y-90502590D01*
X189140351Y-90501560D01*
X189151716Y-90492233D01*
X189236259Y-90405876D01*
X189243648Y-90399469D01*
X189245656Y-90396278D01*
X189246758Y-90395153D01*
X189247515Y-90393325D01*
X189251480Y-90387026D01*
X189291057Y-90305221D01*
X189295069Y-90299807D01*
X189299001Y-90288800D01*
X189299592Y-90287580D01*
X189299630Y-90287040D01*
X189300016Y-90285961D01*
X189340529Y-90118557D01*
X189343671Y-90110974D01*
X189344567Y-90101874D01*
X189345024Y-90099987D01*
X189344860Y-90098891D01*
X189345112Y-90096342D01*
X189343860Y-89971945D01*
X189345024Y-89964126D01*
X189343690Y-89955111D01*
X189343671Y-89953139D01*
X189343248Y-89952118D01*
X189342873Y-89949581D01*
X189300111Y-89783851D01*
X189299592Y-89776533D01*
X189295391Y-89765557D01*
X189295069Y-89764306D01*
X189294746Y-89763870D01*
X189294337Y-89762801D01*
X189250330Y-89677583D01*
X189246758Y-89668960D01*
X189244381Y-89666063D01*
X189243648Y-89664644D01*
X189242149Y-89663344D01*
X189237431Y-89657595D01*
X189158751Y-89580568D01*
X189157933Y-89578931D01*
X189150449Y-89572440D01*
X189140350Y-89562553D01*
X189137861Y-89561522D01*
X189135826Y-89559757D01*
X189122400Y-89553763D01*
X188993953Y-89512312D01*
X188984744Y-89508498D01*
X188980985Y-89508127D01*
X188979492Y-89507646D01*
X188977517Y-89507786D01*
X188970112Y-89507057D01*
X188741194Y-89508498D01*
X188714158Y-89519697D01*
X188693466Y-89540389D01*
X188682267Y-89567425D01*
X188680826Y-89582057D01*
X188400837Y-89582057D01*
X188400814Y-89567425D01*
X188389615Y-89540389D01*
X188368923Y-89519697D01*
X188341887Y-89508498D01*
X188312623Y-89508498D01*
X188285587Y-89519697D01*
X188264895Y-89540389D01*
X188253696Y-89567425D01*
X188252255Y-89582057D01*
X188253231Y-90202121D01*
X187879065Y-89549408D01*
X187875329Y-89540389D01*
X187871968Y-89537028D01*
X187869577Y-89532857D01*
X187861687Y-89526747D01*
X187854637Y-89519697D01*
X187850220Y-89517867D01*
X187846440Y-89514940D01*
X187836816Y-89512315D01*
X187827601Y-89508498D01*
X187822820Y-89508498D01*
X187818208Y-89507240D01*
X187808311Y-89508498D01*
X187798337Y-89508498D01*
X187793921Y-89510327D01*
X187789178Y-89510930D01*
X187780513Y-89515880D01*
X187771301Y-89519697D01*
X187767922Y-89523075D01*
X187763769Y-89525449D01*
X187757659Y-89533338D01*
X187750609Y-89540389D01*
X187748779Y-89544805D01*
X187745852Y-89548586D01*
X187743227Y-89558209D01*
X187739410Y-89567425D01*
X187738673Y-89574907D01*
X187738152Y-89576818D01*
X187738339Y-89578293D01*
X187737969Y-89582057D01*
X187444599Y-89582057D01*
X187430382Y-89565664D01*
X187417939Y-89557832D01*
X187341511Y-89520856D01*
X187340352Y-89519697D01*
X187331751Y-89516134D01*
X187318493Y-89509720D01*
X187315805Y-89509529D01*
X187313316Y-89508498D01*
X187298684Y-89507057D01*
X187170584Y-89508346D01*
X187160732Y-89507646D01*
X187157054Y-89508482D01*
X187155480Y-89508498D01*
X187153648Y-89509256D01*
X187146395Y-89510906D01*
X187028820Y-89551355D01*
X187026910Y-89551355D01*
X187017542Y-89555234D01*
X187004398Y-89559757D01*
X187002362Y-89561522D01*
X186999874Y-89562553D01*
X186988509Y-89571880D01*
X186903965Y-89658235D01*
X186896576Y-89664644D01*
X186894567Y-89667834D01*
X186893466Y-89668960D01*
X186892708Y-89670787D01*
X186888744Y-89677087D01*
X186849166Y-89758891D01*
X186845155Y-89764306D01*
X186841222Y-89775312D01*
X186840632Y-89776533D01*
X186840593Y-89777072D01*
X186840208Y-89778152D01*
X186799696Y-89945550D01*
X186796553Y-89953139D01*
X186795656Y-89962244D01*
X186795201Y-89964126D01*
X186795363Y-89965217D01*
X186795112Y-89967771D01*
X186695112Y-89967771D01*
X186695112Y-89407057D01*
X189445112Y-89407057D01*
X189445112Y-90657057D01*
G37*
G36*
X166402255Y-90631874D02*
G01*
X164209987Y-90631874D01*
X164209987Y-89566437D01*
X164309987Y-89566437D01*
X164313247Y-89580774D01*
X164611692Y-90471665D01*
X164612062Y-90476867D01*
X164616222Y-90485188D01*
X164619241Y-90494199D01*
X164622751Y-90498246D01*
X164625148Y-90503040D01*
X164632256Y-90509205D01*
X164638415Y-90516306D01*
X164643204Y-90518700D01*
X164647255Y-90522214D01*
X164656180Y-90525188D01*
X164664588Y-90529393D01*
X164669932Y-90529772D01*
X164675018Y-90531468D01*
X164684398Y-90530801D01*
X164693778Y-90531468D01*
X164698863Y-90529772D01*
X164704208Y-90529393D01*
X164712618Y-90525187D01*
X164721540Y-90522214D01*
X164725587Y-90518703D01*
X164730381Y-90516307D01*
X164736544Y-90509201D01*
X164743648Y-90503040D01*
X164746043Y-90498248D01*
X164749555Y-90494200D01*
X164755549Y-90480774D01*
X165058809Y-89566438D01*
X165058142Y-89557057D01*
X165209398Y-89557057D01*
X165210839Y-90471689D01*
X165222038Y-90498725D01*
X165242730Y-90519417D01*
X165269766Y-90530616D01*
X165299030Y-90530616D01*
X165326066Y-90519417D01*
X165346758Y-90498725D01*
X165357957Y-90471689D01*
X165359398Y-90457057D01*
X165357980Y-89557057D01*
X165637969Y-89557057D01*
X165639410Y-90471689D01*
X165650609Y-90498725D01*
X165671301Y-90519417D01*
X165698337Y-90530616D01*
X165727601Y-90530616D01*
X165754637Y-90519417D01*
X165775329Y-90498725D01*
X165786528Y-90471689D01*
X165787969Y-90457057D01*
X165786992Y-89836991D01*
X166161158Y-90489705D01*
X166164895Y-90498725D01*
X166168255Y-90502085D01*
X166170647Y-90506257D01*
X166178536Y-90512366D01*
X166185587Y-90519417D01*
X166190003Y-90521246D01*
X166193784Y-90524174D01*
X166203407Y-90526798D01*
X166212623Y-90530616D01*
X166217404Y-90530616D01*
X166222016Y-90531874D01*
X166231910Y-90530616D01*
X166241887Y-90530616D01*
X166246305Y-90528785D01*
X166251046Y-90528183D01*
X166259703Y-90523235D01*
X166268923Y-90519417D01*
X166272304Y-90516035D01*
X166276455Y-90513664D01*
X166282561Y-90505778D01*
X166289615Y-90498725D01*
X166291445Y-90494306D01*
X166294372Y-90490527D01*
X166296996Y-90480905D01*
X166300814Y-90471689D01*
X166301550Y-90464206D01*
X166302072Y-90462296D01*
X166301884Y-90460820D01*
X166302255Y-90457057D01*
X166300814Y-89542425D01*
X166289615Y-89515389D01*
X166268923Y-89494697D01*
X166241887Y-89483498D01*
X166212623Y-89483498D01*
X166185587Y-89494697D01*
X166164895Y-89515389D01*
X166153696Y-89542425D01*
X166152255Y-89557057D01*
X166153231Y-90177121D01*
X165779065Y-89524408D01*
X165775329Y-89515389D01*
X165771968Y-89512028D01*
X165769577Y-89507857D01*
X165761687Y-89501747D01*
X165754637Y-89494697D01*
X165750220Y-89492867D01*
X165746440Y-89489940D01*
X165736816Y-89487315D01*
X165727601Y-89483498D01*
X165722820Y-89483498D01*
X165718208Y-89482240D01*
X165708311Y-89483498D01*
X165698337Y-89483498D01*
X165693921Y-89485327D01*
X165689178Y-89485930D01*
X165680513Y-89490880D01*
X165671301Y-89494697D01*
X165667922Y-89498075D01*
X165663769Y-89500449D01*
X165657659Y-89508338D01*
X165650609Y-89515389D01*
X165648779Y-89519805D01*
X165645852Y-89523586D01*
X165643227Y-89533209D01*
X165639410Y-89542425D01*
X165638673Y-89549907D01*
X165638152Y-89551818D01*
X165638339Y-89553293D01*
X165637969Y-89557057D01*
X165357980Y-89557057D01*
X165357957Y-89542425D01*
X165346758Y-89515389D01*
X165326066Y-89494697D01*
X165299030Y-89483498D01*
X165269766Y-89483498D01*
X165242730Y-89494697D01*
X165222038Y-89515389D01*
X165210839Y-89542425D01*
X165209398Y-89557057D01*
X165058142Y-89557057D01*
X165056734Y-89537248D01*
X165043648Y-89511074D01*
X165021540Y-89491900D01*
X164993778Y-89482646D01*
X164964588Y-89484721D01*
X164938415Y-89497808D01*
X164919241Y-89519915D01*
X164913247Y-89533340D01*
X164684794Y-90222130D01*
X164449555Y-89519914D01*
X164430381Y-89497807D01*
X164404208Y-89484721D01*
X164375018Y-89482646D01*
X164347255Y-89491900D01*
X164325148Y-89511074D01*
X164312062Y-89537247D01*
X164309987Y-89566437D01*
X164209987Y-89566437D01*
X164209987Y-89382240D01*
X166402255Y-89382240D01*
X166402255Y-90631874D01*
G37*
D12*
X166495855Y-94130576D02*
X165695855Y-94130576D01*
X166076807Y-94130576D02*
X166076807Y-93673433D01*
X166495855Y-93673433D02*
X165695855Y-93673433D01*
X166495855Y-93292481D02*
X165695855Y-93292481D01*
X165733950Y-92492482D02*
X165695855Y-92568672D01*
X165695855Y-92568672D02*
X165695855Y-92682958D01*
X165695855Y-92682958D02*
X165733950Y-92797244D01*
X165733950Y-92797244D02*
X165810140Y-92873434D01*
X165810140Y-92873434D02*
X165886331Y-92911529D01*
X165886331Y-92911529D02*
X166038712Y-92949625D01*
X166038712Y-92949625D02*
X166152998Y-92949625D01*
X166152998Y-92949625D02*
X166305379Y-92911529D01*
X166305379Y-92911529D02*
X166381569Y-92873434D01*
X166381569Y-92873434D02*
X166457760Y-92797244D01*
X166457760Y-92797244D02*
X166495855Y-92682958D01*
X166495855Y-92682958D02*
X166495855Y-92606767D01*
X166495855Y-92606767D02*
X166457760Y-92492482D01*
X166457760Y-92492482D02*
X166419664Y-92454386D01*
X166419664Y-92454386D02*
X166152998Y-92454386D01*
X166152998Y-92454386D02*
X166152998Y-92606767D01*
X166495855Y-92111529D02*
X165695855Y-92111529D01*
X166076807Y-92111529D02*
X166076807Y-91654386D01*
X166495855Y-91654386D02*
X165695855Y-91654386D01*
D13*
G36*
X161359018Y-79406999D02*
G01*
X161454080Y-79435130D01*
X161512041Y-79488922D01*
X161544904Y-79547871D01*
X161545085Y-79551576D01*
X161582061Y-79684062D01*
X161581240Y-79688192D01*
X161584633Y-79783637D01*
X161583181Y-79786713D01*
X161553357Y-79921471D01*
X161550006Y-79925790D01*
X161523183Y-79986060D01*
X161465131Y-80048612D01*
X161379695Y-80080359D01*
X161379573Y-80080335D01*
X161253724Y-80083226D01*
X161249679Y-79408943D01*
X161358059Y-79406452D01*
X161359018Y-79406999D01*
G37*
G36*
X161800129Y-80299224D02*
G01*
X159359017Y-80299224D01*
X159359017Y-79688192D01*
X159447906Y-79688192D01*
X159451460Y-79788167D01*
X159448614Y-79792912D01*
X159449847Y-79818243D01*
X159487851Y-79954411D01*
X159486166Y-79959467D01*
X159492864Y-79983928D01*
X159529045Y-80048827D01*
X159529045Y-80055923D01*
X159543135Y-80077011D01*
X159546496Y-80080130D01*
X159546509Y-80080153D01*
X159546526Y-80080158D01*
X159617575Y-80146097D01*
X159622699Y-80156345D01*
X159638036Y-80165087D01*
X159640412Y-80167292D01*
X159641904Y-80167292D01*
X159644732Y-80168904D01*
X159749102Y-80199790D01*
X159754699Y-80205387D01*
X159779573Y-80210335D01*
X159784002Y-80210118D01*
X159784181Y-80210171D01*
X159784317Y-80210102D01*
X159845071Y-80207128D01*
X159851157Y-80210171D01*
X159876319Y-80206999D01*
X159983175Y-80167292D01*
X159994924Y-80167292D01*
X160009644Y-80157455D01*
X160012637Y-80156344D01*
X160013303Y-80155011D01*
X160016011Y-80153202D01*
X160068197Y-80094019D01*
X160068197Y-80094018D01*
X160073145Y-80069144D01*
X160068197Y-79777604D01*
X160033019Y-79742426D01*
X160008145Y-79737478D01*
X159830890Y-79742426D01*
X159795712Y-79777604D01*
X159795712Y-79827352D01*
X159830890Y-79862530D01*
X159855764Y-79867478D01*
X159944206Y-79865009D01*
X159947179Y-80040197D01*
X159938997Y-80049476D01*
X159855887Y-80080359D01*
X159855764Y-80080335D01*
X159798353Y-80083145D01*
X159705064Y-80055538D01*
X159647105Y-80001748D01*
X159614241Y-79942797D01*
X159614061Y-79939094D01*
X159577084Y-79806607D01*
X159577906Y-79802478D01*
X159574512Y-79707032D01*
X159575965Y-79703957D01*
X159605788Y-79569198D01*
X159609140Y-79564880D01*
X159635962Y-79504608D01*
X159694014Y-79442057D01*
X159779450Y-79410310D01*
X159779573Y-79410335D01*
X159872763Y-79407021D01*
X159965441Y-79448266D01*
X160012637Y-79432534D01*
X160034885Y-79388038D01*
X160020651Y-79345335D01*
X160286002Y-79345335D01*
X160290950Y-80170209D01*
X160326128Y-80205387D01*
X160375876Y-80205387D01*
X160411054Y-80170209D01*
X160416002Y-80145335D01*
X160412621Y-79581695D01*
X160748041Y-80161620D01*
X160748093Y-80170209D01*
X160759752Y-80181868D01*
X160768346Y-80196726D01*
X160776959Y-80199075D01*
X160783271Y-80205387D01*
X160800103Y-80205387D01*
X160816342Y-80209816D01*
X160824093Y-80205387D01*
X160833019Y-80205387D01*
X160844920Y-80193485D01*
X160859536Y-80185134D01*
X160861885Y-80176520D01*
X160868197Y-80170209D01*
X160873145Y-80145335D01*
X160868346Y-79345335D01*
X161124097Y-79345335D01*
X161129045Y-80170209D01*
X161164223Y-80205387D01*
X161189097Y-80210335D01*
X161367112Y-80206244D01*
X161374965Y-80210171D01*
X161400128Y-80206999D01*
X161506987Y-80167292D01*
X161518734Y-80167292D01*
X161533451Y-80157458D01*
X161536447Y-80156345D01*
X161537114Y-80155010D01*
X161539821Y-80153202D01*
X161605364Y-80082577D01*
X161612637Y-80080153D01*
X161628187Y-80060118D01*
X161630010Y-80056020D01*
X161630101Y-80055923D01*
X161630101Y-80055817D01*
X161656877Y-79995650D01*
X161660370Y-79993555D01*
X161671203Y-79970624D01*
X161701949Y-79831694D01*
X161706292Y-79827352D01*
X161711240Y-79802478D01*
X161707685Y-79702502D01*
X161710532Y-79697758D01*
X161709299Y-79672427D01*
X161671294Y-79536258D01*
X161672980Y-79531203D01*
X161666282Y-79506743D01*
X161630101Y-79441842D01*
X161630101Y-79434745D01*
X161616011Y-79413658D01*
X161612649Y-79410538D01*
X161612637Y-79410516D01*
X161612619Y-79410510D01*
X161541570Y-79344571D01*
X161536447Y-79334325D01*
X161521109Y-79325582D01*
X161518734Y-79323378D01*
X161517242Y-79323378D01*
X161514414Y-79321766D01*
X161410043Y-79290879D01*
X161404447Y-79285283D01*
X161379573Y-79280335D01*
X161164223Y-79285283D01*
X161129045Y-79320461D01*
X161124097Y-79345335D01*
X160868346Y-79345335D01*
X160868197Y-79320461D01*
X160833019Y-79285283D01*
X160783271Y-79285283D01*
X160748093Y-79320461D01*
X160743145Y-79345335D01*
X160746525Y-79908974D01*
X160411105Y-79329049D01*
X160411054Y-79320461D01*
X160399394Y-79308801D01*
X160390801Y-79293944D01*
X160382187Y-79291594D01*
X160375876Y-79285283D01*
X160359044Y-79285283D01*
X160342805Y-79280854D01*
X160335054Y-79285283D01*
X160326128Y-79285283D01*
X160314226Y-79297184D01*
X160299611Y-79305536D01*
X160297261Y-79314149D01*
X160290950Y-79320461D01*
X160286002Y-79345335D01*
X160020651Y-79345335D01*
X160019153Y-79340842D01*
X159999118Y-79325292D01*
X159926364Y-79292914D01*
X159918733Y-79285283D01*
X159901525Y-79281859D01*
X159898467Y-79280499D01*
X159897052Y-79280970D01*
X159893859Y-79280335D01*
X159791156Y-79283986D01*
X159784181Y-79280499D01*
X159759018Y-79283671D01*
X159652159Y-79323378D01*
X159640412Y-79323378D01*
X159625694Y-79333211D01*
X159622699Y-79334325D01*
X159622031Y-79335659D01*
X159619325Y-79337468D01*
X159553780Y-79408092D01*
X159546509Y-79410516D01*
X159530959Y-79430551D01*
X159529136Y-79434646D01*
X159529045Y-79434745D01*
X159529045Y-79434851D01*
X159502268Y-79495019D01*
X159498776Y-79497115D01*
X159487943Y-79520046D01*
X159457196Y-79658975D01*
X159452854Y-79663318D01*
X159447906Y-79688192D01*
X159359017Y-79688192D01*
X159359017Y-79191446D01*
X161800129Y-79191446D01*
X161800129Y-80299224D01*
G37*
D12*
X182306327Y-81232760D02*
X182420613Y-81270855D01*
X182420613Y-81270855D02*
X182611089Y-81270855D01*
X182611089Y-81270855D02*
X182687280Y-81232760D01*
X182687280Y-81232760D02*
X182725375Y-81194664D01*
X182725375Y-81194664D02*
X182763470Y-81118474D01*
X182763470Y-81118474D02*
X182763470Y-81042283D01*
X182763470Y-81042283D02*
X182725375Y-80966093D01*
X182725375Y-80966093D02*
X182687280Y-80927998D01*
X182687280Y-80927998D02*
X182611089Y-80889902D01*
X182611089Y-80889902D02*
X182458708Y-80851807D01*
X182458708Y-80851807D02*
X182382518Y-80813712D01*
X182382518Y-80813712D02*
X182344423Y-80775617D01*
X182344423Y-80775617D02*
X182306327Y-80699426D01*
X182306327Y-80699426D02*
X182306327Y-80623236D01*
X182306327Y-80623236D02*
X182344423Y-80547045D01*
X182344423Y-80547045D02*
X182382518Y-80508950D01*
X182382518Y-80508950D02*
X182458708Y-80470855D01*
X182458708Y-80470855D02*
X182649185Y-80470855D01*
X182649185Y-80470855D02*
X182763470Y-80508950D01*
X183106328Y-80851807D02*
X183372994Y-80851807D01*
X183487280Y-81270855D02*
X183106328Y-81270855D01*
X183106328Y-81270855D02*
X183106328Y-80470855D01*
X183106328Y-80470855D02*
X183487280Y-80470855D01*
X183830138Y-81270855D02*
X183830138Y-80470855D01*
X183830138Y-80470855D02*
X184287281Y-81270855D01*
X184287281Y-81270855D02*
X184287281Y-80470855D01*
X184630137Y-81232760D02*
X184744423Y-81270855D01*
X184744423Y-81270855D02*
X184934899Y-81270855D01*
X184934899Y-81270855D02*
X185011090Y-81232760D01*
X185011090Y-81232760D02*
X185049185Y-81194664D01*
X185049185Y-81194664D02*
X185087280Y-81118474D01*
X185087280Y-81118474D02*
X185087280Y-81042283D01*
X185087280Y-81042283D02*
X185049185Y-80966093D01*
X185049185Y-80966093D02*
X185011090Y-80927998D01*
X185011090Y-80927998D02*
X184934899Y-80889902D01*
X184934899Y-80889902D02*
X184782518Y-80851807D01*
X184782518Y-80851807D02*
X184706328Y-80813712D01*
X184706328Y-80813712D02*
X184668233Y-80775617D01*
X184668233Y-80775617D02*
X184630137Y-80699426D01*
X184630137Y-80699426D02*
X184630137Y-80623236D01*
X184630137Y-80623236D02*
X184668233Y-80547045D01*
X184668233Y-80547045D02*
X184706328Y-80508950D01*
X184706328Y-80508950D02*
X184782518Y-80470855D01*
X184782518Y-80470855D02*
X184972995Y-80470855D01*
X184972995Y-80470855D02*
X185087280Y-80508950D01*
X185430138Y-80851807D02*
X185696804Y-80851807D01*
X185811090Y-81270855D02*
X185430138Y-81270855D01*
X185430138Y-81270855D02*
X185430138Y-80470855D01*
X185430138Y-80470855D02*
X185811090Y-80470855D01*
X168664661Y-79107900D02*
X168931328Y-79907900D01*
X168931328Y-79907900D02*
X169197994Y-79107900D01*
X169464661Y-79907900D02*
X169464661Y-79107900D01*
X169845613Y-79907900D02*
X169845613Y-79107900D01*
X169845613Y-79107900D02*
X170302756Y-79907900D01*
X170302756Y-79907900D02*
X170302756Y-79107900D01*
X168131327Y-81157760D02*
X168245613Y-81195855D01*
X168245613Y-81195855D02*
X168436089Y-81195855D01*
X168436089Y-81195855D02*
X168512280Y-81157760D01*
X168512280Y-81157760D02*
X168550375Y-81119664D01*
X168550375Y-81119664D02*
X168588470Y-81043474D01*
X168588470Y-81043474D02*
X168588470Y-80967283D01*
X168588470Y-80967283D02*
X168550375Y-80891093D01*
X168550375Y-80891093D02*
X168512280Y-80852998D01*
X168512280Y-80852998D02*
X168436089Y-80814902D01*
X168436089Y-80814902D02*
X168283708Y-80776807D01*
X168283708Y-80776807D02*
X168207518Y-80738712D01*
X168207518Y-80738712D02*
X168169423Y-80700617D01*
X168169423Y-80700617D02*
X168131327Y-80624426D01*
X168131327Y-80624426D02*
X168131327Y-80548236D01*
X168131327Y-80548236D02*
X168169423Y-80472045D01*
X168169423Y-80472045D02*
X168207518Y-80433950D01*
X168207518Y-80433950D02*
X168283708Y-80395855D01*
X168283708Y-80395855D02*
X168474185Y-80395855D01*
X168474185Y-80395855D02*
X168588470Y-80433950D01*
X168931328Y-80776807D02*
X169197994Y-80776807D01*
X169312280Y-81195855D02*
X168931328Y-81195855D01*
X168931328Y-81195855D02*
X168931328Y-80395855D01*
X168931328Y-80395855D02*
X169312280Y-80395855D01*
X169655138Y-81195855D02*
X169655138Y-80395855D01*
X169655138Y-80395855D02*
X170112281Y-81195855D01*
X170112281Y-81195855D02*
X170112281Y-80395855D01*
X170455137Y-81157760D02*
X170569423Y-81195855D01*
X170569423Y-81195855D02*
X170759899Y-81195855D01*
X170759899Y-81195855D02*
X170836090Y-81157760D01*
X170836090Y-81157760D02*
X170874185Y-81119664D01*
X170874185Y-81119664D02*
X170912280Y-81043474D01*
X170912280Y-81043474D02*
X170912280Y-80967283D01*
X170912280Y-80967283D02*
X170874185Y-80891093D01*
X170874185Y-80891093D02*
X170836090Y-80852998D01*
X170836090Y-80852998D02*
X170759899Y-80814902D01*
X170759899Y-80814902D02*
X170607518Y-80776807D01*
X170607518Y-80776807D02*
X170531328Y-80738712D01*
X170531328Y-80738712D02*
X170493233Y-80700617D01*
X170493233Y-80700617D02*
X170455137Y-80624426D01*
X170455137Y-80624426D02*
X170455137Y-80548236D01*
X170455137Y-80548236D02*
X170493233Y-80472045D01*
X170493233Y-80472045D02*
X170531328Y-80433950D01*
X170531328Y-80433950D02*
X170607518Y-80395855D01*
X170607518Y-80395855D02*
X170797995Y-80395855D01*
X170797995Y-80395855D02*
X170912280Y-80433950D01*
X171255138Y-80776807D02*
X171521804Y-80776807D01*
X171636090Y-81195855D02*
X171255138Y-81195855D01*
X171255138Y-81195855D02*
X171255138Y-80395855D01*
X171255138Y-80395855D02*
X171636090Y-80395855D01*
D13*
G36*
X192872679Y-79430295D02*
G01*
X192934133Y-79487327D01*
X192967775Y-79607870D01*
X192966954Y-79612001D01*
X192971131Y-79858167D01*
X192968895Y-79862903D01*
X192939963Y-79993634D01*
X192888365Y-80049232D01*
X192832105Y-80080596D01*
X192710935Y-80083979D01*
X192657892Y-80060373D01*
X192596442Y-80003341D01*
X192562798Y-79882797D01*
X192563620Y-79878668D01*
X192559442Y-79632501D01*
X192561679Y-79627766D01*
X192590610Y-79497034D01*
X192642208Y-79441437D01*
X192698468Y-79410073D01*
X192819639Y-79406690D01*
X192872679Y-79430295D01*
G37*
G36*
X194704704Y-80299224D02*
G01*
X191582991Y-80299224D01*
X191582991Y-79340728D01*
X191671880Y-79340728D01*
X191675052Y-79365890D01*
X191939934Y-80145697D01*
X191938547Y-80149942D01*
X191947372Y-80167594D01*
X191954278Y-80187923D01*
X191958622Y-80190095D01*
X191960795Y-80194440D01*
X191980347Y-80200957D01*
X191998776Y-80210171D01*
X192003382Y-80208635D01*
X192007990Y-80210171D01*
X192026421Y-80200955D01*
X192045971Y-80194439D01*
X192048142Y-80190095D01*
X192052488Y-80187923D01*
X192065047Y-80165890D01*
X192246175Y-79612001D01*
X192433620Y-79612001D01*
X192437882Y-79863177D01*
X192434328Y-79869102D01*
X192435561Y-79894433D01*
X192476664Y-80041704D01*
X192476664Y-80055923D01*
X192483479Y-80066122D01*
X192484490Y-80069745D01*
X192486842Y-80071156D01*
X192490754Y-80077011D01*
X192561377Y-80142555D01*
X192563802Y-80149828D01*
X192583837Y-80165378D01*
X192587932Y-80167200D01*
X192588031Y-80167292D01*
X192588138Y-80167292D01*
X192656592Y-80197756D01*
X192664223Y-80205387D01*
X192681430Y-80208810D01*
X192684489Y-80210171D01*
X192685903Y-80209699D01*
X192689097Y-80210335D01*
X192834409Y-80206278D01*
X192846086Y-80210171D01*
X192863239Y-80205473D01*
X192866352Y-80205387D01*
X192867405Y-80204333D01*
X192870547Y-80203473D01*
X192935446Y-80167292D01*
X192942543Y-80167292D01*
X192963630Y-80153202D01*
X192966749Y-80149840D01*
X192966772Y-80149828D01*
X192966777Y-80149810D01*
X193034799Y-80076516D01*
X193046085Y-80069745D01*
X193051269Y-80058769D01*
X193053911Y-80055924D01*
X193053911Y-80053179D01*
X193056918Y-80046814D01*
X193087663Y-79907884D01*
X193092006Y-79903542D01*
X193096954Y-79878668D01*
X193092691Y-79627492D01*
X193096246Y-79621568D01*
X193095013Y-79596237D01*
X193053911Y-79448965D01*
X193053911Y-79434745D01*
X193047095Y-79424545D01*
X193046085Y-79420924D01*
X193043733Y-79419512D01*
X193039821Y-79413658D01*
X192969196Y-79348114D01*
X192968270Y-79345335D01*
X193309811Y-79345335D01*
X193314509Y-79983957D01*
X193309975Y-79997562D01*
X193314737Y-80014955D01*
X193314759Y-80017828D01*
X193315812Y-80018881D01*
X193316673Y-80022023D01*
X193352854Y-80086922D01*
X193352854Y-80094018D01*
X193366943Y-80115105D01*
X193370134Y-80117919D01*
X193370318Y-80118248D01*
X193370622Y-80118349D01*
X193400055Y-80144303D01*
X193401897Y-80149828D01*
X193421932Y-80165378D01*
X193426017Y-80167196D01*
X193426125Y-80167291D01*
X193426230Y-80167291D01*
X193494687Y-80197756D01*
X193502318Y-80205387D01*
X193519525Y-80208810D01*
X193522584Y-80210171D01*
X193523998Y-80209699D01*
X193527192Y-80210335D01*
X193672504Y-80206278D01*
X193684181Y-80210171D01*
X193701334Y-80205473D01*
X193704447Y-80205387D01*
X193705500Y-80204333D01*
X193708642Y-80203473D01*
X193773542Y-80167291D01*
X193780638Y-80167291D01*
X193801726Y-80153201D01*
X193804538Y-80150010D01*
X193804867Y-80149828D01*
X193804968Y-80149523D01*
X193830921Y-80120089D01*
X193836446Y-80118248D01*
X193851995Y-80098213D01*
X193853813Y-80094127D01*
X193853910Y-80094018D01*
X193853909Y-80093910D01*
X193884374Y-80025459D01*
X193892006Y-80017828D01*
X193895428Y-80000621D01*
X193896790Y-79997563D01*
X193896318Y-79996148D01*
X193896954Y-79992954D01*
X193892006Y-79320461D01*
X194038568Y-79320461D01*
X194038568Y-79370209D01*
X194073746Y-79405387D01*
X194098620Y-79410335D01*
X194262570Y-79408652D01*
X194267139Y-80170209D01*
X194302317Y-80205387D01*
X194352065Y-80205387D01*
X194387243Y-80170209D01*
X194392191Y-80145335D01*
X194387764Y-79407366D01*
X194580637Y-79405387D01*
X194615815Y-79370209D01*
X194615815Y-79320461D01*
X194580637Y-79285283D01*
X194555763Y-79280335D01*
X194073746Y-79285283D01*
X194038568Y-79320461D01*
X193892006Y-79320461D01*
X193856828Y-79285283D01*
X193807080Y-79285283D01*
X193771902Y-79320461D01*
X193766954Y-79345335D01*
X193771542Y-79968993D01*
X193746947Y-80024257D01*
X193723443Y-80050914D01*
X193670200Y-80080596D01*
X193549030Y-80083979D01*
X193495883Y-80060327D01*
X193469233Y-80036827D01*
X193439744Y-79983932D01*
X193434863Y-79320461D01*
X193399685Y-79285283D01*
X193349937Y-79285283D01*
X193314759Y-79320461D01*
X193309811Y-79345335D01*
X192968270Y-79345335D01*
X192966772Y-79340842D01*
X192946737Y-79325292D01*
X192942639Y-79323468D01*
X192942542Y-79323378D01*
X192942436Y-79323378D01*
X192873983Y-79292914D01*
X192866352Y-79285283D01*
X192849144Y-79281859D01*
X192846086Y-79280499D01*
X192844671Y-79280970D01*
X192841478Y-79280335D01*
X192696165Y-79284391D01*
X192684489Y-79280499D01*
X192667335Y-79285196D01*
X192664223Y-79285283D01*
X192663168Y-79286337D01*
X192660029Y-79287197D01*
X192595128Y-79323378D01*
X192588031Y-79323378D01*
X192566944Y-79337468D01*
X192563824Y-79340829D01*
X192563802Y-79340842D01*
X192563796Y-79340859D01*
X192495774Y-79414153D01*
X192484490Y-79420924D01*
X192479305Y-79431899D01*
X192476664Y-79434745D01*
X192476664Y-79437489D01*
X192473657Y-79443855D01*
X192442910Y-79582784D01*
X192438568Y-79587127D01*
X192433620Y-79612001D01*
X192246175Y-79612001D01*
X192334885Y-79340727D01*
X192312637Y-79296230D01*
X192265442Y-79280499D01*
X192220945Y-79302747D01*
X192208385Y-79324780D01*
X192004787Y-79947378D01*
X191785820Y-79302747D01*
X191741323Y-79280499D01*
X191694128Y-79296231D01*
X191671880Y-79340728D01*
X191582991Y-79340728D01*
X191582991Y-79191446D01*
X194704704Y-79191446D01*
X194704704Y-80299224D01*
G37*
D12*
X182655137Y-79207900D02*
X182921804Y-80007900D01*
X182921804Y-80007900D02*
X183188470Y-79207900D01*
X183607518Y-79207900D02*
X183759899Y-79207900D01*
X183759899Y-79207900D02*
X183836089Y-79245995D01*
X183836089Y-79245995D02*
X183912280Y-79322185D01*
X183912280Y-79322185D02*
X183950375Y-79474566D01*
X183950375Y-79474566D02*
X183950375Y-79741233D01*
X183950375Y-79741233D02*
X183912280Y-79893614D01*
X183912280Y-79893614D02*
X183836089Y-79969805D01*
X183836089Y-79969805D02*
X183759899Y-80007900D01*
X183759899Y-80007900D02*
X183607518Y-80007900D01*
X183607518Y-80007900D02*
X183531327Y-79969805D01*
X183531327Y-79969805D02*
X183455137Y-79893614D01*
X183455137Y-79893614D02*
X183417041Y-79741233D01*
X183417041Y-79741233D02*
X183417041Y-79474566D01*
X183417041Y-79474566D02*
X183455137Y-79322185D01*
X183455137Y-79322185D02*
X183531327Y-79245995D01*
X183531327Y-79245995D02*
X183607518Y-79207900D01*
X184293232Y-79207900D02*
X184293232Y-79855519D01*
X184293232Y-79855519D02*
X184331327Y-79931709D01*
X184331327Y-79931709D02*
X184369422Y-79969805D01*
X184369422Y-79969805D02*
X184445613Y-80007900D01*
X184445613Y-80007900D02*
X184597994Y-80007900D01*
X184597994Y-80007900D02*
X184674184Y-79969805D01*
X184674184Y-79969805D02*
X184712279Y-79931709D01*
X184712279Y-79931709D02*
X184750375Y-79855519D01*
X184750375Y-79855519D02*
X184750375Y-79207900D01*
X185017041Y-79207900D02*
X185474184Y-79207900D01*
X185245612Y-80007900D02*
X185245612Y-79207900D01*
D11*
G36*
X166581759Y-87013823D02*
G01*
X166646429Y-87077135D01*
X166680334Y-87142790D01*
X166720155Y-87297125D01*
X166721267Y-87407628D01*
X166683984Y-87561686D01*
X166649978Y-87631974D01*
X166585220Y-87698121D01*
X166486420Y-87732111D01*
X166355709Y-87732934D01*
X166354525Y-86981593D01*
X166479447Y-86980806D01*
X166581759Y-87013823D01*
G37*
G36*
X166970112Y-87982057D02*
G01*
X164220112Y-87982057D01*
X164220112Y-87292771D01*
X164320112Y-87292771D01*
X164321363Y-87417172D01*
X164320201Y-87424987D01*
X164321533Y-87433998D01*
X164321553Y-87435974D01*
X164321976Y-87436995D01*
X164322351Y-87439532D01*
X164365112Y-87605261D01*
X164365632Y-87612580D01*
X164369832Y-87623555D01*
X164370155Y-87624807D01*
X164370477Y-87625242D01*
X164370887Y-87626312D01*
X164414894Y-87711530D01*
X164418466Y-87720153D01*
X164420842Y-87723049D01*
X164421576Y-87724469D01*
X164423074Y-87725768D01*
X164427793Y-87731518D01*
X164506472Y-87808545D01*
X164507291Y-87810183D01*
X164514775Y-87816674D01*
X164524873Y-87826560D01*
X164527361Y-87827590D01*
X164529398Y-87829357D01*
X164542824Y-87835351D01*
X164671270Y-87876801D01*
X164680480Y-87880616D01*
X164684238Y-87880986D01*
X164685732Y-87881468D01*
X164687706Y-87881327D01*
X164695112Y-87882057D01*
X164781117Y-87880821D01*
X164790206Y-87881468D01*
X164793851Y-87880639D01*
X164795458Y-87880616D01*
X164797289Y-87879857D01*
X164804543Y-87878208D01*
X164922118Y-87837759D01*
X164924030Y-87837759D01*
X164933398Y-87833878D01*
X164946541Y-87829357D01*
X164948577Y-87827590D01*
X164951066Y-87826560D01*
X164962432Y-87817232D01*
X165014616Y-87763009D01*
X165019664Y-87750822D01*
X165025814Y-87735974D01*
X165027255Y-87721342D01*
X165025814Y-87406710D01*
X165014615Y-87379674D01*
X164993923Y-87358982D01*
X164966887Y-87347783D01*
X164952255Y-87346342D01*
X164766194Y-87347783D01*
X164739158Y-87358982D01*
X164718466Y-87379674D01*
X164707267Y-87406710D01*
X164707267Y-87435974D01*
X164718466Y-87463010D01*
X164739158Y-87483702D01*
X164766194Y-87494901D01*
X164780826Y-87496342D01*
X164877595Y-87495592D01*
X164878484Y-87689856D01*
X164870329Y-87698330D01*
X164771923Y-87732184D01*
X164710051Y-87733073D01*
X164608464Y-87700291D01*
X164543794Y-87636978D01*
X164509889Y-87571322D01*
X164470068Y-87416987D01*
X164468956Y-87306485D01*
X164506241Y-87152422D01*
X164540244Y-87082138D01*
X164605002Y-87015992D01*
X164703901Y-86981968D01*
X164804239Y-86980958D01*
X164889589Y-87022251D01*
X164918779Y-87024325D01*
X164946540Y-87015071D01*
X164968647Y-86995898D01*
X164981735Y-86969723D01*
X164983809Y-86940533D01*
X164974555Y-86912772D01*
X164969599Y-86907057D01*
X165262969Y-86907057D01*
X165264410Y-87821689D01*
X165275609Y-87848725D01*
X165296301Y-87869417D01*
X165323337Y-87880616D01*
X165352601Y-87880616D01*
X165379637Y-87869417D01*
X165400329Y-87848725D01*
X165411528Y-87821689D01*
X165412969Y-87807057D01*
X165411992Y-87186991D01*
X165786158Y-87839705D01*
X165789895Y-87848725D01*
X165793255Y-87852085D01*
X165795647Y-87856257D01*
X165803536Y-87862366D01*
X165810587Y-87869417D01*
X165815003Y-87871246D01*
X165818784Y-87874174D01*
X165828407Y-87876798D01*
X165837623Y-87880616D01*
X165842404Y-87880616D01*
X165847016Y-87881874D01*
X165856910Y-87880616D01*
X165866887Y-87880616D01*
X165871305Y-87878785D01*
X165876046Y-87878183D01*
X165884703Y-87873235D01*
X165893923Y-87869417D01*
X165897304Y-87866035D01*
X165901455Y-87863664D01*
X165907561Y-87855778D01*
X165914615Y-87848725D01*
X165916445Y-87844306D01*
X165919372Y-87840527D01*
X165921996Y-87830905D01*
X165925814Y-87821689D01*
X165926550Y-87814206D01*
X165927072Y-87812296D01*
X165926884Y-87810820D01*
X165927255Y-87807057D01*
X165925837Y-86907057D01*
X166205826Y-86907057D01*
X166207267Y-87821689D01*
X166218466Y-87848725D01*
X166239158Y-87869417D01*
X166266194Y-87880616D01*
X166280826Y-87882057D01*
X166493908Y-87880715D01*
X166504492Y-87881468D01*
X166508196Y-87880625D01*
X166509744Y-87880616D01*
X166511575Y-87879857D01*
X166518829Y-87878208D01*
X166636404Y-87837759D01*
X166638314Y-87837759D01*
X166647678Y-87833880D01*
X166660826Y-87829357D01*
X166662862Y-87827590D01*
X166665351Y-87826560D01*
X166676716Y-87817233D01*
X166761259Y-87730876D01*
X166768648Y-87724469D01*
X166770656Y-87721278D01*
X166771758Y-87720153D01*
X166772515Y-87718325D01*
X166776480Y-87712026D01*
X166816057Y-87630221D01*
X166820069Y-87624807D01*
X166824001Y-87613800D01*
X166824592Y-87612580D01*
X166824630Y-87612040D01*
X166825016Y-87610961D01*
X166865529Y-87443557D01*
X166868671Y-87435974D01*
X166869567Y-87426874D01*
X166870024Y-87424987D01*
X166869860Y-87423891D01*
X166870112Y-87421342D01*
X166868860Y-87296945D01*
X166870024Y-87289126D01*
X166868690Y-87280111D01*
X166868671Y-87278139D01*
X166868248Y-87277118D01*
X166867873Y-87274581D01*
X166825111Y-87108851D01*
X166824592Y-87101533D01*
X166820391Y-87090557D01*
X166820069Y-87089306D01*
X166819746Y-87088870D01*
X166819337Y-87087801D01*
X166775330Y-87002583D01*
X166771758Y-86993960D01*
X166769381Y-86991063D01*
X166768648Y-86989644D01*
X166767149Y-86988344D01*
X166762431Y-86982595D01*
X166683751Y-86905568D01*
X166682933Y-86903931D01*
X166675449Y-86897440D01*
X166665350Y-86887553D01*
X166662861Y-86886522D01*
X166660826Y-86884757D01*
X166647400Y-86878763D01*
X166518953Y-86837312D01*
X166509744Y-86833498D01*
X166505985Y-86833127D01*
X166504492Y-86832646D01*
X166502517Y-86832786D01*
X166495112Y-86832057D01*
X166266194Y-86833498D01*
X166239158Y-86844697D01*
X166218466Y-86865389D01*
X166207267Y-86892425D01*
X166205826Y-86907057D01*
X165925837Y-86907057D01*
X165925814Y-86892425D01*
X165914615Y-86865389D01*
X165893923Y-86844697D01*
X165866887Y-86833498D01*
X165837623Y-86833498D01*
X165810587Y-86844697D01*
X165789895Y-86865389D01*
X165778696Y-86892425D01*
X165777255Y-86907057D01*
X165778231Y-87527121D01*
X165404065Y-86874408D01*
X165400329Y-86865389D01*
X165396968Y-86862028D01*
X165394577Y-86857857D01*
X165386687Y-86851747D01*
X165379637Y-86844697D01*
X165375220Y-86842867D01*
X165371440Y-86839940D01*
X165361816Y-86837315D01*
X165352601Y-86833498D01*
X165347820Y-86833498D01*
X165343208Y-86832240D01*
X165333311Y-86833498D01*
X165323337Y-86833498D01*
X165318921Y-86835327D01*
X165314178Y-86835930D01*
X165305513Y-86840880D01*
X165296301Y-86844697D01*
X165292922Y-86848075D01*
X165288769Y-86850449D01*
X165282659Y-86858338D01*
X165275609Y-86865389D01*
X165273779Y-86869805D01*
X165270852Y-86873586D01*
X165268227Y-86883209D01*
X165264410Y-86892425D01*
X165263673Y-86899907D01*
X165263152Y-86901818D01*
X165263339Y-86903293D01*
X165262969Y-86907057D01*
X164969599Y-86907057D01*
X164955382Y-86890664D01*
X164942939Y-86882832D01*
X164866511Y-86845856D01*
X164865352Y-86844697D01*
X164856751Y-86841134D01*
X164843493Y-86834720D01*
X164840805Y-86834529D01*
X164838316Y-86833498D01*
X164823684Y-86832057D01*
X164695584Y-86833346D01*
X164685732Y-86832646D01*
X164682054Y-86833482D01*
X164680480Y-86833498D01*
X164678648Y-86834256D01*
X164671395Y-86835906D01*
X164553820Y-86876355D01*
X164551910Y-86876355D01*
X164542542Y-86880234D01*
X164529398Y-86884757D01*
X164527362Y-86886522D01*
X164524874Y-86887553D01*
X164513509Y-86896880D01*
X164428965Y-86983235D01*
X164421576Y-86989644D01*
X164419567Y-86992834D01*
X164418466Y-86993960D01*
X164417708Y-86995787D01*
X164413744Y-87002087D01*
X164374166Y-87083891D01*
X164370155Y-87089306D01*
X164366222Y-87100312D01*
X164365632Y-87101533D01*
X164365593Y-87102072D01*
X164365208Y-87103152D01*
X164324696Y-87270550D01*
X164321553Y-87278139D01*
X164320656Y-87287244D01*
X164320201Y-87289126D01*
X164320363Y-87290217D01*
X164320112Y-87292771D01*
X164220112Y-87292771D01*
X164220112Y-86732057D01*
X166970112Y-86732057D01*
X166970112Y-87982057D01*
G37*
D14*
X168677847Y-94143734D02*
X168677847Y-93877068D01*
X169096895Y-93762782D02*
X169096895Y-94143734D01*
X169096895Y-94143734D02*
X168296895Y-94143734D01*
X168296895Y-94143734D02*
X168296895Y-93762782D01*
X169096895Y-93419924D02*
X168296895Y-93419924D01*
X168296895Y-93419924D02*
X169096895Y-92962781D01*
X169096895Y-92962781D02*
X168296895Y-92962781D01*
D13*
G36*
X161353700Y-98174060D02*
G01*
X159407991Y-98174060D01*
X159407991Y-97215728D01*
X159496880Y-97215728D01*
X159500052Y-97240890D01*
X159764934Y-98020697D01*
X159763547Y-98024942D01*
X159772372Y-98042594D01*
X159779278Y-98062923D01*
X159783622Y-98065095D01*
X159785795Y-98069440D01*
X159805347Y-98075957D01*
X159823776Y-98085171D01*
X159828382Y-98083635D01*
X159832990Y-98085171D01*
X159851421Y-98075955D01*
X159870971Y-98069439D01*
X159873142Y-98065095D01*
X159877488Y-98062923D01*
X159890047Y-98040890D01*
X160158378Y-97220335D01*
X160296716Y-97220335D01*
X160301664Y-98045209D01*
X160336842Y-98080387D01*
X160386590Y-98080387D01*
X160421768Y-98045209D01*
X160426716Y-98020335D01*
X160421917Y-97220335D01*
X160677668Y-97220335D01*
X160682616Y-98045209D01*
X160717794Y-98080387D01*
X160767542Y-98080387D01*
X160802720Y-98045209D01*
X160807668Y-98020335D01*
X160804287Y-97456695D01*
X161139707Y-98036620D01*
X161139759Y-98045209D01*
X161151418Y-98056868D01*
X161160012Y-98071726D01*
X161168625Y-98074075D01*
X161174937Y-98080387D01*
X161191769Y-98080387D01*
X161208008Y-98084816D01*
X161215759Y-98080387D01*
X161224685Y-98080387D01*
X161236586Y-98068485D01*
X161251202Y-98060134D01*
X161253551Y-98051520D01*
X161259863Y-98045209D01*
X161264811Y-98020335D01*
X161259863Y-97195461D01*
X161224685Y-97160283D01*
X161174937Y-97160283D01*
X161139759Y-97195461D01*
X161134811Y-97220335D01*
X161138191Y-97783974D01*
X160802771Y-97204049D01*
X160802720Y-97195461D01*
X160791060Y-97183801D01*
X160782467Y-97168944D01*
X160773853Y-97166594D01*
X160767542Y-97160283D01*
X160750710Y-97160283D01*
X160734471Y-97155854D01*
X160726720Y-97160283D01*
X160717794Y-97160283D01*
X160705892Y-97172184D01*
X160691277Y-97180536D01*
X160688927Y-97189149D01*
X160682616Y-97195461D01*
X160677668Y-97220335D01*
X160421917Y-97220335D01*
X160421768Y-97195461D01*
X160386590Y-97160283D01*
X160336842Y-97160283D01*
X160301664Y-97195461D01*
X160296716Y-97220335D01*
X160158378Y-97220335D01*
X160159885Y-97215727D01*
X160137637Y-97171230D01*
X160090442Y-97155499D01*
X160045945Y-97177747D01*
X160033385Y-97199780D01*
X159829787Y-97822378D01*
X159610820Y-97177747D01*
X159566323Y-97155499D01*
X159519128Y-97171231D01*
X159496880Y-97215728D01*
X159407991Y-97215728D01*
X159407991Y-97066610D01*
X161353700Y-97066610D01*
X161353700Y-98174060D01*
G37*
D12*
X186048470Y-84663950D02*
X185972280Y-84625855D01*
X185972280Y-84625855D02*
X185857994Y-84625855D01*
X185857994Y-84625855D02*
X185743708Y-84663950D01*
X185743708Y-84663950D02*
X185667518Y-84740140D01*
X185667518Y-84740140D02*
X185629423Y-84816331D01*
X185629423Y-84816331D02*
X185591327Y-84968712D01*
X185591327Y-84968712D02*
X185591327Y-85082998D01*
X185591327Y-85082998D02*
X185629423Y-85235379D01*
X185629423Y-85235379D02*
X185667518Y-85311569D01*
X185667518Y-85311569D02*
X185743708Y-85387760D01*
X185743708Y-85387760D02*
X185857994Y-85425855D01*
X185857994Y-85425855D02*
X185934185Y-85425855D01*
X185934185Y-85425855D02*
X186048470Y-85387760D01*
X186048470Y-85387760D02*
X186086566Y-85349664D01*
X186086566Y-85349664D02*
X186086566Y-85082998D01*
X186086566Y-85082998D02*
X185934185Y-85082998D01*
X186429423Y-85425855D02*
X186429423Y-84625855D01*
X186429423Y-84625855D02*
X186886566Y-85425855D01*
X186886566Y-85425855D02*
X186886566Y-84625855D01*
X187267518Y-85425855D02*
X187267518Y-84625855D01*
X187267518Y-84625855D02*
X187457994Y-84625855D01*
X187457994Y-84625855D02*
X187572280Y-84663950D01*
X187572280Y-84663950D02*
X187648470Y-84740140D01*
X187648470Y-84740140D02*
X187686565Y-84816331D01*
X187686565Y-84816331D02*
X187724661Y-84968712D01*
X187724661Y-84968712D02*
X187724661Y-85082998D01*
X187724661Y-85082998D02*
X187686565Y-85235379D01*
X187686565Y-85235379D02*
X187648470Y-85311569D01*
X187648470Y-85311569D02*
X187572280Y-85387760D01*
X187572280Y-85387760D02*
X187457994Y-85425855D01*
X187457994Y-85425855D02*
X187267518Y-85425855D01*
X171520855Y-93749624D02*
X171520855Y-94130576D01*
X171520855Y-94130576D02*
X170720855Y-94130576D01*
X170720855Y-93330576D02*
X170720855Y-93178195D01*
X170720855Y-93178195D02*
X170758950Y-93102005D01*
X170758950Y-93102005D02*
X170835140Y-93025814D01*
X170835140Y-93025814D02*
X170987521Y-92987719D01*
X170987521Y-92987719D02*
X171254188Y-92987719D01*
X171254188Y-92987719D02*
X171406569Y-93025814D01*
X171406569Y-93025814D02*
X171482760Y-93102005D01*
X171482760Y-93102005D02*
X171520855Y-93178195D01*
X171520855Y-93178195D02*
X171520855Y-93330576D01*
X171520855Y-93330576D02*
X171482760Y-93406767D01*
X171482760Y-93406767D02*
X171406569Y-93482957D01*
X171406569Y-93482957D02*
X171254188Y-93521053D01*
X171254188Y-93521053D02*
X170987521Y-93521053D01*
X170987521Y-93521053D02*
X170835140Y-93482957D01*
X170835140Y-93482957D02*
X170758950Y-93406767D01*
X170758950Y-93406767D02*
X170720855Y-93330576D01*
X170720855Y-92721053D02*
X171520855Y-92530577D01*
X171520855Y-92530577D02*
X170949426Y-92378196D01*
X170949426Y-92378196D02*
X171520855Y-92225815D01*
X171520855Y-92225815D02*
X170720855Y-92035339D01*
D13*
G36*
X194259018Y-97256999D02*
G01*
X194354080Y-97285130D01*
X194412041Y-97338922D01*
X194444904Y-97397871D01*
X194445085Y-97401576D01*
X194482061Y-97534062D01*
X194481240Y-97538192D01*
X194484633Y-97633637D01*
X194483181Y-97636713D01*
X194453357Y-97771471D01*
X194450006Y-97775790D01*
X194423183Y-97836060D01*
X194365131Y-97898612D01*
X194279695Y-97930359D01*
X194279573Y-97930335D01*
X194153724Y-97933226D01*
X194149679Y-97258943D01*
X194258059Y-97256452D01*
X194259018Y-97256999D01*
G37*
G36*
X194700129Y-98149224D02*
G01*
X192259017Y-98149224D01*
X192259017Y-97538192D01*
X192347906Y-97538192D01*
X192351460Y-97638167D01*
X192348614Y-97642912D01*
X192349847Y-97668243D01*
X192387851Y-97804411D01*
X192386166Y-97809467D01*
X192392864Y-97833928D01*
X192429045Y-97898827D01*
X192429045Y-97905923D01*
X192443135Y-97927011D01*
X192446496Y-97930130D01*
X192446509Y-97930153D01*
X192446526Y-97930158D01*
X192517575Y-97996097D01*
X192522699Y-98006345D01*
X192538036Y-98015087D01*
X192540412Y-98017292D01*
X192541904Y-98017292D01*
X192544732Y-98018904D01*
X192649102Y-98049790D01*
X192654699Y-98055387D01*
X192679573Y-98060335D01*
X192684002Y-98060118D01*
X192684181Y-98060171D01*
X192684317Y-98060102D01*
X192745071Y-98057128D01*
X192751157Y-98060171D01*
X192776319Y-98056999D01*
X192883175Y-98017292D01*
X192894924Y-98017292D01*
X192909644Y-98007455D01*
X192912637Y-98006344D01*
X192913303Y-98005011D01*
X192916011Y-98003202D01*
X192968197Y-97944019D01*
X192968197Y-97944018D01*
X192973145Y-97919144D01*
X192968197Y-97627604D01*
X192933019Y-97592426D01*
X192908145Y-97587478D01*
X192730890Y-97592426D01*
X192695712Y-97627604D01*
X192695712Y-97677352D01*
X192730890Y-97712530D01*
X192755764Y-97717478D01*
X192844206Y-97715009D01*
X192847179Y-97890197D01*
X192838997Y-97899476D01*
X192755887Y-97930359D01*
X192755764Y-97930335D01*
X192698353Y-97933145D01*
X192605064Y-97905538D01*
X192547105Y-97851748D01*
X192514241Y-97792797D01*
X192514061Y-97789094D01*
X192477084Y-97656607D01*
X192477906Y-97652478D01*
X192474512Y-97557032D01*
X192475965Y-97553957D01*
X192505788Y-97419198D01*
X192509140Y-97414880D01*
X192535962Y-97354608D01*
X192594014Y-97292057D01*
X192679450Y-97260310D01*
X192679573Y-97260335D01*
X192772763Y-97257021D01*
X192865441Y-97298266D01*
X192912637Y-97282534D01*
X192934885Y-97238038D01*
X192920651Y-97195335D01*
X193186002Y-97195335D01*
X193190950Y-98020209D01*
X193226128Y-98055387D01*
X193275876Y-98055387D01*
X193311054Y-98020209D01*
X193316002Y-97995335D01*
X193312621Y-97431695D01*
X193648041Y-98011620D01*
X193648093Y-98020209D01*
X193659752Y-98031868D01*
X193668346Y-98046726D01*
X193676959Y-98049075D01*
X193683271Y-98055387D01*
X193700103Y-98055387D01*
X193716342Y-98059816D01*
X193724093Y-98055387D01*
X193733019Y-98055387D01*
X193744920Y-98043485D01*
X193759536Y-98035134D01*
X193761885Y-98026520D01*
X193768197Y-98020209D01*
X193773145Y-97995335D01*
X193768346Y-97195335D01*
X194024097Y-97195335D01*
X194029045Y-98020209D01*
X194064223Y-98055387D01*
X194089097Y-98060335D01*
X194267112Y-98056244D01*
X194274965Y-98060171D01*
X194300128Y-98056999D01*
X194406987Y-98017292D01*
X194418734Y-98017292D01*
X194433451Y-98007458D01*
X194436447Y-98006345D01*
X194437114Y-98005010D01*
X194439821Y-98003202D01*
X194505364Y-97932577D01*
X194512637Y-97930153D01*
X194528187Y-97910118D01*
X194530010Y-97906020D01*
X194530101Y-97905923D01*
X194530101Y-97905817D01*
X194556877Y-97845650D01*
X194560370Y-97843555D01*
X194571203Y-97820624D01*
X194601949Y-97681694D01*
X194606292Y-97677352D01*
X194611240Y-97652478D01*
X194607685Y-97552502D01*
X194610532Y-97547758D01*
X194609299Y-97522427D01*
X194571294Y-97386258D01*
X194572980Y-97381203D01*
X194566282Y-97356743D01*
X194530101Y-97291842D01*
X194530101Y-97284745D01*
X194516011Y-97263658D01*
X194512649Y-97260538D01*
X194512637Y-97260516D01*
X194512619Y-97260510D01*
X194441570Y-97194571D01*
X194436447Y-97184325D01*
X194421109Y-97175582D01*
X194418734Y-97173378D01*
X194417242Y-97173378D01*
X194414414Y-97171766D01*
X194310043Y-97140879D01*
X194304447Y-97135283D01*
X194279573Y-97130335D01*
X194064223Y-97135283D01*
X194029045Y-97170461D01*
X194024097Y-97195335D01*
X193768346Y-97195335D01*
X193768197Y-97170461D01*
X193733019Y-97135283D01*
X193683271Y-97135283D01*
X193648093Y-97170461D01*
X193643145Y-97195335D01*
X193646525Y-97758974D01*
X193311105Y-97179049D01*
X193311054Y-97170461D01*
X193299394Y-97158801D01*
X193290801Y-97143944D01*
X193282187Y-97141594D01*
X193275876Y-97135283D01*
X193259044Y-97135283D01*
X193242805Y-97130854D01*
X193235054Y-97135283D01*
X193226128Y-97135283D01*
X193214226Y-97147184D01*
X193199611Y-97155536D01*
X193197261Y-97164149D01*
X193190950Y-97170461D01*
X193186002Y-97195335D01*
X192920651Y-97195335D01*
X192919153Y-97190842D01*
X192899118Y-97175292D01*
X192826364Y-97142914D01*
X192818733Y-97135283D01*
X192801525Y-97131859D01*
X192798467Y-97130499D01*
X192797052Y-97130970D01*
X192793859Y-97130335D01*
X192691156Y-97133986D01*
X192684181Y-97130499D01*
X192659018Y-97133671D01*
X192552159Y-97173378D01*
X192540412Y-97173378D01*
X192525694Y-97183211D01*
X192522699Y-97184325D01*
X192522031Y-97185659D01*
X192519325Y-97187468D01*
X192453780Y-97258092D01*
X192446509Y-97260516D01*
X192430959Y-97280551D01*
X192429136Y-97284646D01*
X192429045Y-97284745D01*
X192429045Y-97284851D01*
X192402268Y-97345019D01*
X192398776Y-97347115D01*
X192387943Y-97370046D01*
X192357196Y-97508975D01*
X192352854Y-97513318D01*
X192347906Y-97538192D01*
X192259017Y-97538192D01*
X192259017Y-97041446D01*
X194700129Y-97041446D01*
X194700129Y-98149224D01*
G37*
D12*
X188020855Y-93674624D02*
X188020855Y-94055576D01*
X188020855Y-94055576D02*
X187220855Y-94055576D01*
X187220855Y-93255576D02*
X187220855Y-93103195D01*
X187220855Y-93103195D02*
X187258950Y-93027005D01*
X187258950Y-93027005D02*
X187335140Y-92950814D01*
X187335140Y-92950814D02*
X187487521Y-92912719D01*
X187487521Y-92912719D02*
X187754188Y-92912719D01*
X187754188Y-92912719D02*
X187906569Y-92950814D01*
X187906569Y-92950814D02*
X187982760Y-93027005D01*
X187982760Y-93027005D02*
X188020855Y-93103195D01*
X188020855Y-93103195D02*
X188020855Y-93255576D01*
X188020855Y-93255576D02*
X187982760Y-93331767D01*
X187982760Y-93331767D02*
X187906569Y-93407957D01*
X187906569Y-93407957D02*
X187754188Y-93446053D01*
X187754188Y-93446053D02*
X187487521Y-93446053D01*
X187487521Y-93446053D02*
X187335140Y-93407957D01*
X187335140Y-93407957D02*
X187258950Y-93331767D01*
X187258950Y-93331767D02*
X187220855Y-93255576D01*
X187220855Y-92646053D02*
X188020855Y-92455577D01*
X188020855Y-92455577D02*
X187449426Y-92303196D01*
X187449426Y-92303196D02*
X188020855Y-92150815D01*
X188020855Y-92150815D02*
X187220855Y-91960339D01*
X182845855Y-94080576D02*
X182045855Y-94080576D01*
X182426807Y-94080576D02*
X182426807Y-93623433D01*
X182845855Y-93623433D02*
X182045855Y-93623433D01*
X182845855Y-93242481D02*
X182045855Y-93242481D01*
X182083950Y-92442482D02*
X182045855Y-92518672D01*
X182045855Y-92518672D02*
X182045855Y-92632958D01*
X182045855Y-92632958D02*
X182083950Y-92747244D01*
X182083950Y-92747244D02*
X182160140Y-92823434D01*
X182160140Y-92823434D02*
X182236331Y-92861529D01*
X182236331Y-92861529D02*
X182388712Y-92899625D01*
X182388712Y-92899625D02*
X182502998Y-92899625D01*
X182502998Y-92899625D02*
X182655379Y-92861529D01*
X182655379Y-92861529D02*
X182731569Y-92823434D01*
X182731569Y-92823434D02*
X182807760Y-92747244D01*
X182807760Y-92747244D02*
X182845855Y-92632958D01*
X182845855Y-92632958D02*
X182845855Y-92556767D01*
X182845855Y-92556767D02*
X182807760Y-92442482D01*
X182807760Y-92442482D02*
X182769664Y-92404386D01*
X182769664Y-92404386D02*
X182502998Y-92404386D01*
X182502998Y-92404386D02*
X182502998Y-92556767D01*
X182845855Y-92061529D02*
X182045855Y-92061529D01*
X182426807Y-92061529D02*
X182426807Y-91604386D01*
X182845855Y-91604386D02*
X182045855Y-91604386D01*
X185545855Y-94080576D02*
X184745855Y-94080576D01*
X184745855Y-94080576D02*
X184745855Y-93775814D01*
X184745855Y-93775814D02*
X184783950Y-93699624D01*
X184783950Y-93699624D02*
X184822045Y-93661529D01*
X184822045Y-93661529D02*
X184898236Y-93623433D01*
X184898236Y-93623433D02*
X185012521Y-93623433D01*
X185012521Y-93623433D02*
X185088712Y-93661529D01*
X185088712Y-93661529D02*
X185126807Y-93699624D01*
X185126807Y-93699624D02*
X185164902Y-93775814D01*
X185164902Y-93775814D02*
X185164902Y-94080576D01*
X185507760Y-93318672D02*
X185545855Y-93204386D01*
X185545855Y-93204386D02*
X185545855Y-93013910D01*
X185545855Y-93013910D02*
X185507760Y-92937719D01*
X185507760Y-92937719D02*
X185469664Y-92899624D01*
X185469664Y-92899624D02*
X185393474Y-92861529D01*
X185393474Y-92861529D02*
X185317283Y-92861529D01*
X185317283Y-92861529D02*
X185241093Y-92899624D01*
X185241093Y-92899624D02*
X185202998Y-92937719D01*
X185202998Y-92937719D02*
X185164902Y-93013910D01*
X185164902Y-93013910D02*
X185126807Y-93166291D01*
X185126807Y-93166291D02*
X185088712Y-93242481D01*
X185088712Y-93242481D02*
X185050617Y-93280576D01*
X185050617Y-93280576D02*
X184974426Y-93318672D01*
X184974426Y-93318672D02*
X184898236Y-93318672D01*
X184898236Y-93318672D02*
X184822045Y-93280576D01*
X184822045Y-93280576D02*
X184783950Y-93242481D01*
X184783950Y-93242481D02*
X184745855Y-93166291D01*
X184745855Y-93166291D02*
X184745855Y-92975814D01*
X184745855Y-92975814D02*
X184783950Y-92861529D01*
X184707760Y-91947243D02*
X185736331Y-92632957D01*
X185507760Y-91718672D02*
X185545855Y-91604386D01*
X185545855Y-91604386D02*
X185545855Y-91413910D01*
X185545855Y-91413910D02*
X185507760Y-91337719D01*
X185507760Y-91337719D02*
X185469664Y-91299624D01*
X185469664Y-91299624D02*
X185393474Y-91261529D01*
X185393474Y-91261529D02*
X185317283Y-91261529D01*
X185317283Y-91261529D02*
X185241093Y-91299624D01*
X185241093Y-91299624D02*
X185202998Y-91337719D01*
X185202998Y-91337719D02*
X185164902Y-91413910D01*
X185164902Y-91413910D02*
X185126807Y-91566291D01*
X185126807Y-91566291D02*
X185088712Y-91642481D01*
X185088712Y-91642481D02*
X185050617Y-91680576D01*
X185050617Y-91680576D02*
X184974426Y-91718672D01*
X184974426Y-91718672D02*
X184898236Y-91718672D01*
X184898236Y-91718672D02*
X184822045Y-91680576D01*
X184822045Y-91680576D02*
X184783950Y-91642481D01*
X184783950Y-91642481D02*
X184745855Y-91566291D01*
X184745855Y-91566291D02*
X184745855Y-91375814D01*
X184745855Y-91375814D02*
X184783950Y-91261529D01*
X185164902Y-90766290D02*
X185545855Y-90766290D01*
X184745855Y-91032957D02*
X185164902Y-90766290D01*
X185164902Y-90766290D02*
X184745855Y-90499624D01*
X185545855Y-90232957D02*
X184745855Y-90232957D01*
X184745855Y-90232957D02*
X185545855Y-89775814D01*
X185545855Y-89775814D02*
X184745855Y-89775814D01*
X185469664Y-88937719D02*
X185507760Y-88975815D01*
X185507760Y-88975815D02*
X185545855Y-89090100D01*
X185545855Y-89090100D02*
X185545855Y-89166291D01*
X185545855Y-89166291D02*
X185507760Y-89280577D01*
X185507760Y-89280577D02*
X185431569Y-89356767D01*
X185431569Y-89356767D02*
X185355379Y-89394862D01*
X185355379Y-89394862D02*
X185202998Y-89432958D01*
X185202998Y-89432958D02*
X185088712Y-89432958D01*
X185088712Y-89432958D02*
X184936331Y-89394862D01*
X184936331Y-89394862D02*
X184860140Y-89356767D01*
X184860140Y-89356767D02*
X184783950Y-89280577D01*
X184783950Y-89280577D02*
X184745855Y-89166291D01*
X184745855Y-89166291D02*
X184745855Y-89090100D01*
X184745855Y-89090100D02*
X184783950Y-88975815D01*
X184783950Y-88975815D02*
X184822045Y-88937719D01*
D14*
X168429999Y-97512371D02*
X168429999Y-97940942D01*
X168429999Y-97940942D02*
X168401428Y-98026657D01*
X168401428Y-98026657D02*
X168344285Y-98083800D01*
X168344285Y-98083800D02*
X168258571Y-98112371D01*
X168258571Y-98112371D02*
X168201428Y-98112371D01*
X168658571Y-97512371D02*
X169029999Y-97512371D01*
X169029999Y-97512371D02*
X168829999Y-97740942D01*
X168829999Y-97740942D02*
X168915714Y-97740942D01*
X168915714Y-97740942D02*
X168972857Y-97769514D01*
X168972857Y-97769514D02*
X169001428Y-97798085D01*
X169001428Y-97798085D02*
X169029999Y-97855228D01*
X169029999Y-97855228D02*
X169029999Y-97998085D01*
X169029999Y-97998085D02*
X169001428Y-98055228D01*
X169001428Y-98055228D02*
X168972857Y-98083800D01*
X168972857Y-98083800D02*
X168915714Y-98112371D01*
X168915714Y-98112371D02*
X168744285Y-98112371D01*
X168744285Y-98112371D02*
X168687142Y-98083800D01*
X168687142Y-98083800D02*
X168658571Y-98055228D01*
X189400000Y-83347371D02*
X189400000Y-82747371D01*
X189400000Y-82747371D02*
X189628571Y-82747371D01*
X189628571Y-82747371D02*
X189685714Y-82775942D01*
X189685714Y-82775942D02*
X189714285Y-82804514D01*
X189714285Y-82804514D02*
X189742857Y-82861657D01*
X189742857Y-82861657D02*
X189742857Y-82947371D01*
X189742857Y-82947371D02*
X189714285Y-83004514D01*
X189714285Y-83004514D02*
X189685714Y-83033085D01*
X189685714Y-83033085D02*
X189628571Y-83061657D01*
X189628571Y-83061657D02*
X189400000Y-83061657D01*
X189942857Y-82747371D02*
X190085714Y-83347371D01*
X190085714Y-83347371D02*
X190200000Y-82918800D01*
X190200000Y-82918800D02*
X190314285Y-83347371D01*
X190314285Y-83347371D02*
X190457143Y-82747371D01*
X191028571Y-83347371D02*
X190828571Y-83061657D01*
X190685714Y-83347371D02*
X190685714Y-82747371D01*
X190685714Y-82747371D02*
X190914285Y-82747371D01*
X190914285Y-82747371D02*
X190971428Y-82775942D01*
X190971428Y-82775942D02*
X190999999Y-82804514D01*
X190999999Y-82804514D02*
X191028571Y-82861657D01*
X191028571Y-82861657D02*
X191028571Y-82947371D01*
X191028571Y-82947371D02*
X190999999Y-83004514D01*
X190999999Y-83004514D02*
X190971428Y-83033085D01*
X190971428Y-83033085D02*
X190914285Y-83061657D01*
X190914285Y-83061657D02*
X190685714Y-83061657D01*
X191024999Y-83997371D02*
X191024999Y-84425942D01*
X191024999Y-84425942D02*
X190996428Y-84511657D01*
X190996428Y-84511657D02*
X190939285Y-84568800D01*
X190939285Y-84568800D02*
X190853571Y-84597371D01*
X190853571Y-84597371D02*
X190796428Y-84597371D01*
X191567857Y-83997371D02*
X191453571Y-83997371D01*
X191453571Y-83997371D02*
X191396428Y-84025942D01*
X191396428Y-84025942D02*
X191367857Y-84054514D01*
X191367857Y-84054514D02*
X191310714Y-84140228D01*
X191310714Y-84140228D02*
X191282142Y-84254514D01*
X191282142Y-84254514D02*
X191282142Y-84483085D01*
X191282142Y-84483085D02*
X191310714Y-84540228D01*
X191310714Y-84540228D02*
X191339285Y-84568800D01*
X191339285Y-84568800D02*
X191396428Y-84597371D01*
X191396428Y-84597371D02*
X191510714Y-84597371D01*
X191510714Y-84597371D02*
X191567857Y-84568800D01*
X191567857Y-84568800D02*
X191596428Y-84540228D01*
X191596428Y-84540228D02*
X191624999Y-84483085D01*
X191624999Y-84483085D02*
X191624999Y-84340228D01*
X191624999Y-84340228D02*
X191596428Y-84283085D01*
X191596428Y-84283085D02*
X191567857Y-84254514D01*
X191567857Y-84254514D02*
X191510714Y-84225942D01*
X191510714Y-84225942D02*
X191396428Y-84225942D01*
X191396428Y-84225942D02*
X191339285Y-84254514D01*
X191339285Y-84254514D02*
X191310714Y-84283085D01*
X191310714Y-84283085D02*
X191282142Y-84340228D01*
X177810000Y-92312371D02*
X177610000Y-92026657D01*
X177467143Y-92312371D02*
X177467143Y-91712371D01*
X177467143Y-91712371D02*
X177695714Y-91712371D01*
X177695714Y-91712371D02*
X177752857Y-91740942D01*
X177752857Y-91740942D02*
X177781428Y-91769514D01*
X177781428Y-91769514D02*
X177810000Y-91826657D01*
X177810000Y-91826657D02*
X177810000Y-91912371D01*
X177810000Y-91912371D02*
X177781428Y-91969514D01*
X177781428Y-91969514D02*
X177752857Y-91998085D01*
X177752857Y-91998085D02*
X177695714Y-92026657D01*
X177695714Y-92026657D02*
X177467143Y-92026657D01*
X178010000Y-91712371D02*
X178381428Y-91712371D01*
X178381428Y-91712371D02*
X178181428Y-91940942D01*
X178181428Y-91940942D02*
X178267143Y-91940942D01*
X178267143Y-91940942D02*
X178324286Y-91969514D01*
X178324286Y-91969514D02*
X178352857Y-91998085D01*
X178352857Y-91998085D02*
X178381428Y-92055228D01*
X178381428Y-92055228D02*
X178381428Y-92198085D01*
X178381428Y-92198085D02*
X178352857Y-92255228D01*
X178352857Y-92255228D02*
X178324286Y-92283800D01*
X178324286Y-92283800D02*
X178267143Y-92312371D01*
X178267143Y-92312371D02*
X178095714Y-92312371D01*
X178095714Y-92312371D02*
X178038571Y-92283800D01*
X178038571Y-92283800D02*
X178010000Y-92255228D01*
X167539999Y-84442371D02*
X167539999Y-84870942D01*
X167539999Y-84870942D02*
X167511428Y-84956657D01*
X167511428Y-84956657D02*
X167454285Y-85013800D01*
X167454285Y-85013800D02*
X167368571Y-85042371D01*
X167368571Y-85042371D02*
X167311428Y-85042371D01*
X167797142Y-84499514D02*
X167825714Y-84470942D01*
X167825714Y-84470942D02*
X167882857Y-84442371D01*
X167882857Y-84442371D02*
X168025714Y-84442371D01*
X168025714Y-84442371D02*
X168082857Y-84470942D01*
X168082857Y-84470942D02*
X168111428Y-84499514D01*
X168111428Y-84499514D02*
X168139999Y-84556657D01*
X168139999Y-84556657D02*
X168139999Y-84613800D01*
X168139999Y-84613800D02*
X168111428Y-84699514D01*
X168111428Y-84699514D02*
X167768571Y-85042371D01*
X167768571Y-85042371D02*
X168139999Y-85042371D01*
D15*
X182496800Y-83965808D02*
X182496800Y-84401237D01*
X182496800Y-84401237D02*
X182467771Y-84488322D01*
X182467771Y-84488322D02*
X182409714Y-84546380D01*
X182409714Y-84546380D02*
X182322628Y-84575408D01*
X182322628Y-84575408D02*
X182264571Y-84575408D01*
X183048343Y-84169008D02*
X183048343Y-84575408D01*
X182903200Y-83936780D02*
X182758057Y-84372208D01*
X182758057Y-84372208D02*
X183135428Y-84372208D01*
D14*
X179925000Y-94897371D02*
X179725000Y-94611657D01*
X179582143Y-94897371D02*
X179582143Y-94297371D01*
X179582143Y-94297371D02*
X179810714Y-94297371D01*
X179810714Y-94297371D02*
X179867857Y-94325942D01*
X179867857Y-94325942D02*
X179896428Y-94354514D01*
X179896428Y-94354514D02*
X179925000Y-94411657D01*
X179925000Y-94411657D02*
X179925000Y-94497371D01*
X179925000Y-94497371D02*
X179896428Y-94554514D01*
X179896428Y-94554514D02*
X179867857Y-94583085D01*
X179867857Y-94583085D02*
X179810714Y-94611657D01*
X179810714Y-94611657D02*
X179582143Y-94611657D01*
X180153571Y-94354514D02*
X180182143Y-94325942D01*
X180182143Y-94325942D02*
X180239286Y-94297371D01*
X180239286Y-94297371D02*
X180382143Y-94297371D01*
X180382143Y-94297371D02*
X180439286Y-94325942D01*
X180439286Y-94325942D02*
X180467857Y-94354514D01*
X180467857Y-94354514D02*
X180496428Y-94411657D01*
X180496428Y-94411657D02*
X180496428Y-94468800D01*
X180496428Y-94468800D02*
X180467857Y-94554514D01*
X180467857Y-94554514D02*
X180125000Y-94897371D01*
X180125000Y-94897371D02*
X180496428Y-94897371D01*
X173600000Y-97497371D02*
X173400000Y-97211657D01*
X173257143Y-97497371D02*
X173257143Y-96897371D01*
X173257143Y-96897371D02*
X173485714Y-96897371D01*
X173485714Y-96897371D02*
X173542857Y-96925942D01*
X173542857Y-96925942D02*
X173571428Y-96954514D01*
X173571428Y-96954514D02*
X173600000Y-97011657D01*
X173600000Y-97011657D02*
X173600000Y-97097371D01*
X173600000Y-97097371D02*
X173571428Y-97154514D01*
X173571428Y-97154514D02*
X173542857Y-97183085D01*
X173542857Y-97183085D02*
X173485714Y-97211657D01*
X173485714Y-97211657D02*
X173257143Y-97211657D01*
X174114286Y-97097371D02*
X174114286Y-97497371D01*
X173971428Y-96868800D02*
X173828571Y-97297371D01*
X173828571Y-97297371D02*
X174200000Y-97297371D01*
X174150000Y-87765228D02*
X174121428Y-87793800D01*
X174121428Y-87793800D02*
X174035714Y-87822371D01*
X174035714Y-87822371D02*
X173978571Y-87822371D01*
X173978571Y-87822371D02*
X173892857Y-87793800D01*
X173892857Y-87793800D02*
X173835714Y-87736657D01*
X173835714Y-87736657D02*
X173807143Y-87679514D01*
X173807143Y-87679514D02*
X173778571Y-87565228D01*
X173778571Y-87565228D02*
X173778571Y-87479514D01*
X173778571Y-87479514D02*
X173807143Y-87365228D01*
X173807143Y-87365228D02*
X173835714Y-87308085D01*
X173835714Y-87308085D02*
X173892857Y-87250942D01*
X173892857Y-87250942D02*
X173978571Y-87222371D01*
X173978571Y-87222371D02*
X174035714Y-87222371D01*
X174035714Y-87222371D02*
X174121428Y-87250942D01*
X174121428Y-87250942D02*
X174150000Y-87279514D01*
X174721428Y-87822371D02*
X174378571Y-87822371D01*
X174550000Y-87822371D02*
X174550000Y-87222371D01*
X174550000Y-87222371D02*
X174492857Y-87308085D01*
X174492857Y-87308085D02*
X174435714Y-87365228D01*
X174435714Y-87365228D02*
X174378571Y-87393800D01*
X176725000Y-81522371D02*
X176439286Y-81522371D01*
X176439286Y-81522371D02*
X176439286Y-80922371D01*
X177239285Y-81522371D02*
X176896428Y-81522371D01*
X177067857Y-81522371D02*
X177067857Y-80922371D01*
X177067857Y-80922371D02*
X177010714Y-81008085D01*
X177010714Y-81008085D02*
X176953571Y-81065228D01*
X176953571Y-81065228D02*
X176896428Y-81093800D01*
X162749999Y-84022371D02*
X162749999Y-84450942D01*
X162749999Y-84450942D02*
X162721428Y-84536657D01*
X162721428Y-84536657D02*
X162664285Y-84593800D01*
X162664285Y-84593800D02*
X162578571Y-84622371D01*
X162578571Y-84622371D02*
X162521428Y-84622371D01*
X163349999Y-84622371D02*
X163007142Y-84622371D01*
X163178571Y-84622371D02*
X163178571Y-84022371D01*
X163178571Y-84022371D02*
X163121428Y-84108085D01*
X163121428Y-84108085D02*
X163064285Y-84165228D01*
X163064285Y-84165228D02*
X163007142Y-84193800D01*
X184829999Y-97462371D02*
X184829999Y-97890942D01*
X184829999Y-97890942D02*
X184801428Y-97976657D01*
X184801428Y-97976657D02*
X184744285Y-98033800D01*
X184744285Y-98033800D02*
X184658571Y-98062371D01*
X184658571Y-98062371D02*
X184601428Y-98062371D01*
X185401428Y-97462371D02*
X185115714Y-97462371D01*
X185115714Y-97462371D02*
X185087142Y-97748085D01*
X185087142Y-97748085D02*
X185115714Y-97719514D01*
X185115714Y-97719514D02*
X185172857Y-97690942D01*
X185172857Y-97690942D02*
X185315714Y-97690942D01*
X185315714Y-97690942D02*
X185372857Y-97719514D01*
X185372857Y-97719514D02*
X185401428Y-97748085D01*
X185401428Y-97748085D02*
X185429999Y-97805228D01*
X185429999Y-97805228D02*
X185429999Y-97948085D01*
X185429999Y-97948085D02*
X185401428Y-98005228D01*
X185401428Y-98005228D02*
X185372857Y-98033800D01*
X185372857Y-98033800D02*
X185315714Y-98062371D01*
X185315714Y-98062371D02*
X185172857Y-98062371D01*
X185172857Y-98062371D02*
X185115714Y-98033800D01*
X185115714Y-98033800D02*
X185087142Y-98005228D01*
X176860000Y-94875228D02*
X176831428Y-94903800D01*
X176831428Y-94903800D02*
X176745714Y-94932371D01*
X176745714Y-94932371D02*
X176688571Y-94932371D01*
X176688571Y-94932371D02*
X176602857Y-94903800D01*
X176602857Y-94903800D02*
X176545714Y-94846657D01*
X176545714Y-94846657D02*
X176517143Y-94789514D01*
X176517143Y-94789514D02*
X176488571Y-94675228D01*
X176488571Y-94675228D02*
X176488571Y-94589514D01*
X176488571Y-94589514D02*
X176517143Y-94475228D01*
X176517143Y-94475228D02*
X176545714Y-94418085D01*
X176545714Y-94418085D02*
X176602857Y-94360942D01*
X176602857Y-94360942D02*
X176688571Y-94332371D01*
X176688571Y-94332371D02*
X176745714Y-94332371D01*
X176745714Y-94332371D02*
X176831428Y-94360942D01*
X176831428Y-94360942D02*
X176860000Y-94389514D01*
X177088571Y-94389514D02*
X177117143Y-94360942D01*
X177117143Y-94360942D02*
X177174286Y-94332371D01*
X177174286Y-94332371D02*
X177317143Y-94332371D01*
X177317143Y-94332371D02*
X177374286Y-94360942D01*
X177374286Y-94360942D02*
X177402857Y-94389514D01*
X177402857Y-94389514D02*
X177431428Y-94446657D01*
X177431428Y-94446657D02*
X177431428Y-94503800D01*
X177431428Y-94503800D02*
X177402857Y-94589514D01*
X177402857Y-94589514D02*
X177060000Y-94932371D01*
X177060000Y-94932371D02*
X177431428Y-94932371D01*
X180825000Y-87740228D02*
X180796428Y-87768800D01*
X180796428Y-87768800D02*
X180710714Y-87797371D01*
X180710714Y-87797371D02*
X180653571Y-87797371D01*
X180653571Y-87797371D02*
X180567857Y-87768800D01*
X180567857Y-87768800D02*
X180510714Y-87711657D01*
X180510714Y-87711657D02*
X180482143Y-87654514D01*
X180482143Y-87654514D02*
X180453571Y-87540228D01*
X180453571Y-87540228D02*
X180453571Y-87454514D01*
X180453571Y-87454514D02*
X180482143Y-87340228D01*
X180482143Y-87340228D02*
X180510714Y-87283085D01*
X180510714Y-87283085D02*
X180567857Y-87225942D01*
X180567857Y-87225942D02*
X180653571Y-87197371D01*
X180653571Y-87197371D02*
X180710714Y-87197371D01*
X180710714Y-87197371D02*
X180796428Y-87225942D01*
X180796428Y-87225942D02*
X180825000Y-87254514D01*
X181025000Y-87197371D02*
X181396428Y-87197371D01*
X181396428Y-87197371D02*
X181196428Y-87425942D01*
X181196428Y-87425942D02*
X181282143Y-87425942D01*
X181282143Y-87425942D02*
X181339286Y-87454514D01*
X181339286Y-87454514D02*
X181367857Y-87483085D01*
X181367857Y-87483085D02*
X181396428Y-87540228D01*
X181396428Y-87540228D02*
X181396428Y-87683085D01*
X181396428Y-87683085D02*
X181367857Y-87740228D01*
X181367857Y-87740228D02*
X181339286Y-87768800D01*
X181339286Y-87768800D02*
X181282143Y-87797371D01*
X181282143Y-87797371D02*
X181110714Y-87797371D01*
X181110714Y-87797371D02*
X181053571Y-87768800D01*
X181053571Y-87768800D02*
X181025000Y-87740228D01*
X176417857Y-87247371D02*
X176417857Y-87733085D01*
X176417857Y-87733085D02*
X176446428Y-87790228D01*
X176446428Y-87790228D02*
X176475000Y-87818800D01*
X176475000Y-87818800D02*
X176532142Y-87847371D01*
X176532142Y-87847371D02*
X176646428Y-87847371D01*
X176646428Y-87847371D02*
X176703571Y-87818800D01*
X176703571Y-87818800D02*
X176732142Y-87790228D01*
X176732142Y-87790228D02*
X176760714Y-87733085D01*
X176760714Y-87733085D02*
X176760714Y-87247371D01*
X177360713Y-87847371D02*
X177017856Y-87847371D01*
X177189285Y-87847371D02*
X177189285Y-87247371D01*
X177189285Y-87247371D02*
X177132142Y-87333085D01*
X177132142Y-87333085D02*
X177074999Y-87390228D01*
X177074999Y-87390228D02*
X177017856Y-87418800D01*
X163800000Y-97547371D02*
X163600000Y-97261657D01*
X163457143Y-97547371D02*
X163457143Y-96947371D01*
X163457143Y-96947371D02*
X163685714Y-96947371D01*
X163685714Y-96947371D02*
X163742857Y-96975942D01*
X163742857Y-96975942D02*
X163771428Y-97004514D01*
X163771428Y-97004514D02*
X163800000Y-97061657D01*
X163800000Y-97061657D02*
X163800000Y-97147371D01*
X163800000Y-97147371D02*
X163771428Y-97204514D01*
X163771428Y-97204514D02*
X163742857Y-97233085D01*
X163742857Y-97233085D02*
X163685714Y-97261657D01*
X163685714Y-97261657D02*
X163457143Y-97261657D01*
X164371428Y-97547371D02*
X164028571Y-97547371D01*
X164200000Y-97547371D02*
X164200000Y-96947371D01*
X164200000Y-96947371D02*
X164142857Y-97033085D01*
X164142857Y-97033085D02*
X164085714Y-97090228D01*
X164085714Y-97090228D02*
X164028571Y-97118800D01*
X187510000Y-79452371D02*
X187310000Y-79166657D01*
X187167143Y-79452371D02*
X187167143Y-78852371D01*
X187167143Y-78852371D02*
X187395714Y-78852371D01*
X187395714Y-78852371D02*
X187452857Y-78880942D01*
X187452857Y-78880942D02*
X187481428Y-78909514D01*
X187481428Y-78909514D02*
X187510000Y-78966657D01*
X187510000Y-78966657D02*
X187510000Y-79052371D01*
X187510000Y-79052371D02*
X187481428Y-79109514D01*
X187481428Y-79109514D02*
X187452857Y-79138085D01*
X187452857Y-79138085D02*
X187395714Y-79166657D01*
X187395714Y-79166657D02*
X187167143Y-79166657D01*
X188052857Y-78852371D02*
X187767143Y-78852371D01*
X187767143Y-78852371D02*
X187738571Y-79138085D01*
X187738571Y-79138085D02*
X187767143Y-79109514D01*
X187767143Y-79109514D02*
X187824286Y-79080942D01*
X187824286Y-79080942D02*
X187967143Y-79080942D01*
X187967143Y-79080942D02*
X188024286Y-79109514D01*
X188024286Y-79109514D02*
X188052857Y-79138085D01*
X188052857Y-79138085D02*
X188081428Y-79195228D01*
X188081428Y-79195228D02*
X188081428Y-79338085D01*
X188081428Y-79338085D02*
X188052857Y-79395228D01*
X188052857Y-79395228D02*
X188024286Y-79423800D01*
X188024286Y-79423800D02*
X187967143Y-79452371D01*
X187967143Y-79452371D02*
X187824286Y-79452371D01*
X187824286Y-79452371D02*
X187767143Y-79423800D01*
X187767143Y-79423800D02*
X187738571Y-79395228D01*
X179225000Y-87740228D02*
X179196428Y-87768800D01*
X179196428Y-87768800D02*
X179110714Y-87797371D01*
X179110714Y-87797371D02*
X179053571Y-87797371D01*
X179053571Y-87797371D02*
X178967857Y-87768800D01*
X178967857Y-87768800D02*
X178910714Y-87711657D01*
X178910714Y-87711657D02*
X178882143Y-87654514D01*
X178882143Y-87654514D02*
X178853571Y-87540228D01*
X178853571Y-87540228D02*
X178853571Y-87454514D01*
X178853571Y-87454514D02*
X178882143Y-87340228D01*
X178882143Y-87340228D02*
X178910714Y-87283085D01*
X178910714Y-87283085D02*
X178967857Y-87225942D01*
X178967857Y-87225942D02*
X179053571Y-87197371D01*
X179053571Y-87197371D02*
X179110714Y-87197371D01*
X179110714Y-87197371D02*
X179196428Y-87225942D01*
X179196428Y-87225942D02*
X179225000Y-87254514D01*
X179739286Y-87397371D02*
X179739286Y-87797371D01*
X179596428Y-87168800D02*
X179453571Y-87597371D01*
X179453571Y-87597371D02*
X179825000Y-87597371D01*
D16*
X164865000Y-95290000D02*
X165500000Y-94655000D01*
X164865000Y-96560000D02*
X164865000Y-95290000D01*
X165500000Y-94655000D02*
X166770000Y-94655000D01*
X165500000Y-97195000D02*
X164865000Y-96560000D01*
X166770000Y-94655000D02*
X167405000Y-95290000D01*
X166770000Y-97195000D02*
X165500000Y-97195000D01*
X167405000Y-95290000D02*
X168040000Y-94655000D01*
X167405000Y-96560000D02*
X166770000Y-97195000D01*
X168040000Y-94655000D02*
X169310000Y-94655000D01*
X168040000Y-97195000D02*
X167405000Y-96560000D01*
X169310000Y-94655000D02*
X169945000Y-95290000D01*
X169310000Y-97195000D02*
X168040000Y-97195000D01*
X169945000Y-95290000D02*
X170580000Y-94655000D01*
X169945000Y-96560000D02*
X169310000Y-97195000D01*
X170580000Y-94655000D02*
X171850000Y-94655000D01*
X170580000Y-97195000D02*
X169945000Y-96560000D01*
X171850000Y-97195000D02*
X170580000Y-97195000D01*
X171850000Y-97195000D02*
X172485000Y-96560000D01*
X172485000Y-95290000D02*
X171850000Y-94655000D01*
X172485000Y-96560000D02*
X172485000Y-95290000D01*
D12*
X189475000Y-79615000D02*
X189475000Y-81900000D01*
X190945000Y-79615000D02*
X189475000Y-79615000D01*
X190945000Y-81900000D02*
X190945000Y-79615000D01*
X190490000Y-84890000D02*
X190490000Y-92510000D01*
X190490000Y-92510000D02*
X196460000Y-92510000D01*
X195524000Y-84890000D02*
X190490000Y-84890000D01*
X196460000Y-85926000D02*
X195524000Y-84890000D01*
X196460000Y-92510000D02*
X196460000Y-85926000D01*
X196750000Y-84600000D02*
X194750000Y-84600000D01*
X196750000Y-86650000D02*
X196750000Y-84600000D01*
X179837742Y-91352500D02*
X180312258Y-91352500D01*
X179837742Y-92397500D02*
X180312258Y-92397500D01*
D16*
X170440000Y-83485000D02*
X169805000Y-84120000D01*
X170440000Y-82215000D02*
X170440000Y-83485000D01*
X169805000Y-84120000D02*
X168535000Y-84120000D01*
X169805000Y-81580000D02*
X170440000Y-82215000D01*
X168535000Y-84120000D02*
X167900000Y-83485000D01*
X168535000Y-81580000D02*
X169805000Y-81580000D01*
X167900000Y-83485000D02*
X167265000Y-84120000D01*
X167900000Y-82215000D02*
X168535000Y-81580000D01*
X167265000Y-84120000D02*
X165995000Y-84120000D01*
X167265000Y-81580000D02*
X167900000Y-82215000D01*
X165995000Y-81580000D02*
X167265000Y-81580000D01*
X165995000Y-81580000D02*
X165360000Y-82215000D01*
X165360000Y-83485000D02*
X165995000Y-84120000D01*
X165360000Y-82215000D02*
X165360000Y-83485000D01*
X182860000Y-82215000D02*
X182860000Y-83485000D01*
X182860000Y-83485000D02*
X183495000Y-84120000D01*
X183495000Y-81580000D02*
X182860000Y-82215000D01*
X183495000Y-81580000D02*
X184765000Y-81580000D01*
X184765000Y-81580000D02*
X185400000Y-82215000D01*
X184765000Y-84120000D02*
X183495000Y-84120000D01*
X185400000Y-82215000D02*
X186035000Y-81580000D01*
X185400000Y-83485000D02*
X184765000Y-84120000D01*
X186035000Y-81580000D02*
X187305000Y-81580000D01*
X186035000Y-84120000D02*
X185400000Y-83485000D01*
X187305000Y-81580000D02*
X187940000Y-82215000D01*
X187305000Y-84120000D02*
X186035000Y-84120000D01*
X187940000Y-82215000D02*
X187940000Y-83485000D01*
X187940000Y-83485000D02*
X187305000Y-84120000D01*
D12*
X180312258Y-92902500D02*
X179837742Y-92902500D01*
X180312258Y-93947500D02*
X179837742Y-93947500D01*
X173052500Y-94962742D02*
X173052500Y-95437258D01*
X174097500Y-94962742D02*
X174097500Y-95437258D01*
X173715000Y-89259420D02*
X173715000Y-89540580D01*
X174735000Y-89259420D02*
X174735000Y-89540580D01*
X174100000Y-81975000D02*
X179300000Y-81975000D01*
X174100000Y-85975000D02*
X174100000Y-81975000D01*
X179300000Y-81975000D02*
X179300000Y-85975000D01*
X179300000Y-85975000D02*
X174100000Y-85975000D01*
X157075000Y-90750000D02*
X157075000Y-92800000D01*
X157075000Y-92800000D02*
X159075000Y-92800000D01*
X157365000Y-84890000D02*
X157365000Y-91474000D01*
X157365000Y-91474000D02*
X158301000Y-92510000D01*
X158301000Y-92510000D02*
X163335000Y-92510000D01*
X163335000Y-84890000D02*
X157365000Y-84890000D01*
X163335000Y-92510000D02*
X163335000Y-84890000D01*
D16*
X181255000Y-95265000D02*
X181890000Y-94630000D01*
X181255000Y-96535000D02*
X181255000Y-95265000D01*
X181890000Y-94630000D02*
X183160000Y-94630000D01*
X181890000Y-97170000D02*
X181255000Y-96535000D01*
X183160000Y-94630000D02*
X183795000Y-95265000D01*
X183160000Y-97170000D02*
X181890000Y-97170000D01*
X183795000Y-95265000D02*
X184430000Y-94630000D01*
X183795000Y-96535000D02*
X183160000Y-97170000D01*
X184430000Y-94630000D02*
X185700000Y-94630000D01*
X184430000Y-97170000D02*
X183795000Y-96535000D01*
X185700000Y-94630000D02*
X186335000Y-95265000D01*
X185700000Y-97170000D02*
X184430000Y-97170000D01*
X186335000Y-95265000D02*
X186970000Y-94630000D01*
X186335000Y-96535000D02*
X185700000Y-97170000D01*
X186970000Y-94630000D02*
X188240000Y-94630000D01*
X186970000Y-97170000D02*
X186335000Y-96535000D01*
X188240000Y-97170000D02*
X186970000Y-97170000D01*
X188240000Y-97170000D02*
X188875000Y-96535000D01*
X188875000Y-95265000D02*
X188240000Y-94630000D01*
X188875000Y-96535000D02*
X188875000Y-95265000D01*
D12*
X176784420Y-92915000D02*
X177065580Y-92915000D01*
X176784420Y-93935000D02*
X177065580Y-93935000D01*
X180415000Y-89259420D02*
X180415000Y-89540580D01*
X181435000Y-89259420D02*
X181435000Y-89540580D01*
X175440000Y-88587500D02*
X175440000Y-91087500D01*
X178160000Y-89837500D02*
X178160000Y-91087500D01*
X163277500Y-94937742D02*
X163277500Y-95412258D01*
X164322500Y-94937742D02*
X164322500Y-95412258D01*
X187342742Y-79797500D02*
X187817258Y-79797500D01*
X187342742Y-80842500D02*
X187817258Y-80842500D01*
X178815000Y-89259420D02*
X178815000Y-89540580D01*
X179835000Y-89259420D02*
X179835000Y-89540580D01*
%LPC*%
D17*
X171215000Y-95925000D03*
X168675000Y-95925000D03*
X166135000Y-95925000D03*
D18*
X190210000Y-80312500D03*
X190210000Y-81887500D03*
D19*
X194000000Y-87450000D03*
D20*
X194000000Y-89950000D03*
D21*
X194025000Y-82450000D03*
X159825000Y-82450000D03*
D22*
X179250000Y-91875000D03*
X180900000Y-91875000D03*
D23*
X190770000Y-97310000D03*
D17*
X169170000Y-82850000D03*
X166630000Y-82850000D03*
D23*
X163180000Y-79880000D03*
D17*
X184130000Y-82850000D03*
X186670000Y-82850000D03*
D24*
X180900000Y-93425000D03*
X179250000Y-93425000D03*
D25*
X173575000Y-94375000D03*
X173575000Y-96025000D03*
D26*
X174225000Y-88625000D03*
X174225000Y-90175000D03*
D27*
X178600000Y-83975000D03*
X174800000Y-83975000D03*
D19*
X159825000Y-89950000D03*
D28*
X159825000Y-87450000D03*
D21*
X159825000Y-94950000D03*
D17*
X187605000Y-95900000D03*
X185065000Y-95900000D03*
X182525000Y-95900000D03*
D29*
X176150000Y-93425000D03*
X177700000Y-93425000D03*
D26*
X180925000Y-88625000D03*
X180925000Y-90175000D03*
D30*
X177800000Y-88625000D03*
X177300000Y-88625000D03*
X176800000Y-88625000D03*
X176300000Y-88625000D03*
X175800000Y-88625000D03*
X175800000Y-91050000D03*
X176300000Y-91050000D03*
X176800000Y-91050000D03*
X177300000Y-91050000D03*
X177800000Y-91050000D03*
D31*
X176800000Y-89837500D03*
D25*
X163800000Y-94350000D03*
X163800000Y-96000000D03*
D22*
X186755000Y-80320000D03*
X188405000Y-80320000D03*
D21*
X194000000Y-94950000D03*
D26*
X179325000Y-88625000D03*
X179325000Y-90175000D03*
%LPD*%
M02*
